G04 #@! TF.GenerationSoftware,KiCad,Pcbnew,(6.0.6)*
G04 #@! TF.CreationDate,2022-07-14T08:26:48+02:00*
G04 #@! TF.ProjectId,hs3-arduino-nano,6873332d-6172-4647-9569-6e6f2d6e616e,rev?*
G04 #@! TF.SameCoordinates,Original*
G04 #@! TF.FileFunction,Legend,Bot*
G04 #@! TF.FilePolarity,Positive*
%FSLAX46Y46*%
G04 Gerber Fmt 4.6, Leading zero omitted, Abs format (unit mm)*
G04 Created by KiCad (PCBNEW (6.0.6)) date 2022-07-14 08:26:48*
%MOMM*%
%LPD*%
G01*
G04 APERTURE LIST*
%ADD10C,0.150000*%
%ADD11C,0.100000*%
%ADD12C,2.540000*%
%ADD13R,0.850000X0.850000*%
%ADD14O,0.850000X0.850000*%
%ADD15C,0.650000*%
%ADD16O,1.000000X2.100000*%
%ADD17O,1.000000X1.600000*%
G04 APERTURE END LIST*
D10*
X152273000Y-84455000D02*
X154432000Y-84455000D01*
X154432000Y-84455000D02*
X154432000Y-82296000D01*
X154432000Y-82296000D02*
X152273000Y-82296000D01*
X152273000Y-82296000D02*
X152273000Y-84455000D01*
X150622000Y-83248500D02*
X152781000Y-83248500D01*
X152781000Y-83248500D02*
X152781000Y-81089500D01*
X152781000Y-81089500D02*
X150622000Y-81089500D01*
X150622000Y-81089500D02*
X150622000Y-83248500D01*
D11*
X150426333Y-108963666D02*
X150426333Y-109463666D01*
X150459666Y-109563666D01*
X150526333Y-109630333D01*
X150626333Y-109663666D01*
X150693000Y-109663666D01*
X149759666Y-109663666D02*
X150093000Y-109663666D01*
X150093000Y-108963666D01*
X149126333Y-109597000D02*
X149159666Y-109630333D01*
X149259666Y-109663666D01*
X149326333Y-109663666D01*
X149426333Y-109630333D01*
X149493000Y-109563666D01*
X149526333Y-109497000D01*
X149559666Y-109363666D01*
X149559666Y-109263666D01*
X149526333Y-109130333D01*
X149493000Y-109063666D01*
X149426333Y-108997000D01*
X149326333Y-108963666D01*
X149259666Y-108963666D01*
X149159666Y-108997000D01*
X149126333Y-109030333D01*
X148626333Y-108963666D02*
X148626333Y-109463666D01*
X148659666Y-109563666D01*
X148726333Y-109630333D01*
X148826333Y-109663666D01*
X148893000Y-109663666D01*
X147959666Y-109663666D02*
X148293000Y-109663666D01*
X148293000Y-108963666D01*
X147326333Y-109597000D02*
X147359666Y-109630333D01*
X147459666Y-109663666D01*
X147526333Y-109663666D01*
X147626333Y-109630333D01*
X147693000Y-109563666D01*
X147726333Y-109497000D01*
X147759666Y-109363666D01*
X147759666Y-109263666D01*
X147726333Y-109130333D01*
X147693000Y-109063666D01*
X147626333Y-108997000D01*
X147526333Y-108963666D01*
X147459666Y-108963666D01*
X147359666Y-108997000D01*
X147326333Y-109030333D01*
X146826333Y-108963666D02*
X146826333Y-109463666D01*
X146859666Y-109563666D01*
X146926333Y-109630333D01*
X147026333Y-109663666D01*
X147093000Y-109663666D01*
X146159666Y-109663666D02*
X146493000Y-109663666D01*
X146493000Y-108963666D01*
X145526333Y-109597000D02*
X145559666Y-109630333D01*
X145659666Y-109663666D01*
X145726333Y-109663666D01*
X145826333Y-109630333D01*
X145893000Y-109563666D01*
X145926333Y-109497000D01*
X145959666Y-109363666D01*
X145959666Y-109263666D01*
X145926333Y-109130333D01*
X145893000Y-109063666D01*
X145826333Y-108997000D01*
X145726333Y-108963666D01*
X145659666Y-108963666D01*
X145559666Y-108997000D01*
X145526333Y-109030333D01*
X145026333Y-108963666D02*
X145026333Y-109463666D01*
X145059666Y-109563666D01*
X145126333Y-109630333D01*
X145226333Y-109663666D01*
X145293000Y-109663666D01*
X144359666Y-109663666D02*
X144693000Y-109663666D01*
X144693000Y-108963666D01*
X143726333Y-109597000D02*
X143759666Y-109630333D01*
X143859666Y-109663666D01*
X143926333Y-109663666D01*
X144026333Y-109630333D01*
X144093000Y-109563666D01*
X144126333Y-109497000D01*
X144159666Y-109363666D01*
X144159666Y-109263666D01*
X144126333Y-109130333D01*
X144093000Y-109063666D01*
X144026333Y-108997000D01*
X143926333Y-108963666D01*
X143859666Y-108963666D01*
X143759666Y-108997000D01*
X143726333Y-109030333D01*
D10*
X151614142Y-84126755D02*
X151661761Y-84073184D01*
X151709380Y-83924375D01*
X151709380Y-83829136D01*
X151661761Y-83692232D01*
X151566523Y-83608898D01*
X151471285Y-83573184D01*
X151280809Y-83549375D01*
X151137952Y-83567232D01*
X150947476Y-83638660D01*
X150852238Y-83698184D01*
X150757000Y-83805327D01*
X150709380Y-83954136D01*
X150709380Y-84049375D01*
X150757000Y-84186279D01*
X150804619Y-84227946D01*
X151042714Y-84531517D02*
X151709380Y-84686279D01*
X151042714Y-85007708D02*
X151709380Y-84686279D01*
X151947476Y-84561279D01*
X151995095Y-84507708D01*
X152042714Y-84406517D01*
X151709380Y-85305327D02*
X150709380Y-85430327D01*
X151090333Y-85382708D02*
X151042714Y-85483898D01*
X151042714Y-85674375D01*
X151090333Y-85763660D01*
X151137952Y-85805327D01*
X151233190Y-85841041D01*
X151518904Y-85805327D01*
X151614142Y-85745803D01*
X151661761Y-85692232D01*
X151709380Y-85591041D01*
X151709380Y-85400565D01*
X151661761Y-85311279D01*
X151661761Y-86596994D02*
X151709380Y-86495803D01*
X151709380Y-86305327D01*
X151661761Y-86216041D01*
X151566523Y-86180327D01*
X151185571Y-86227946D01*
X151090333Y-86287470D01*
X151042714Y-86388660D01*
X151042714Y-86579136D01*
X151090333Y-86668422D01*
X151185571Y-86704136D01*
X151280809Y-86692232D01*
X151376047Y-86204136D01*
X151709380Y-87067232D02*
X151042714Y-87150565D01*
X151233190Y-87126755D02*
X151137952Y-87186279D01*
X151090333Y-87239851D01*
X151042714Y-87341041D01*
X151042714Y-87436279D01*
X151661761Y-87644613D02*
X151709380Y-87733898D01*
X151709380Y-87924375D01*
X151661761Y-88025565D01*
X151566523Y-88085089D01*
X151518904Y-88091041D01*
X151423666Y-88055327D01*
X151376047Y-87966041D01*
X151376047Y-87823184D01*
X151328428Y-87733898D01*
X151233190Y-87698184D01*
X151185571Y-87704136D01*
X151090333Y-87763660D01*
X151042714Y-87864851D01*
X151042714Y-88007708D01*
X151090333Y-88096994D01*
X151709380Y-88495803D02*
X150709380Y-88620803D01*
X151328428Y-88638660D02*
X151709380Y-88876755D01*
X151042714Y-88960089D02*
X151423666Y-88531517D01*
X151709380Y-89733898D02*
X151185571Y-89799375D01*
X151090333Y-89763660D01*
X151042714Y-89674375D01*
X151042714Y-89483898D01*
X151090333Y-89382708D01*
X151661761Y-89739851D02*
X151709380Y-89638660D01*
X151709380Y-89400565D01*
X151661761Y-89311279D01*
X151566523Y-89275565D01*
X151471285Y-89287470D01*
X151376047Y-89346994D01*
X151328428Y-89448184D01*
X151328428Y-89686279D01*
X151280809Y-89787470D01*
X151709380Y-90210089D02*
X150709380Y-90335089D01*
X151328428Y-90352946D02*
X151709380Y-90591041D01*
X151042714Y-90674375D02*
X151423666Y-90245803D01*
X151709380Y-91448184D02*
X151185571Y-91513660D01*
X151090333Y-91477946D01*
X151042714Y-91388660D01*
X151042714Y-91198184D01*
X151090333Y-91096994D01*
X151661761Y-91454136D02*
X151709380Y-91352946D01*
X151709380Y-91114851D01*
X151661761Y-91025565D01*
X151566523Y-90989851D01*
X151471285Y-91001755D01*
X151376047Y-91061279D01*
X151328428Y-91162470D01*
X151328428Y-91400565D01*
X151280809Y-91501755D01*
X151042714Y-92007708D02*
X151709380Y-91924375D01*
X151137952Y-91995803D02*
X151090333Y-92049375D01*
X151042714Y-92150565D01*
X151042714Y-92293422D01*
X151090333Y-92382708D01*
X151185571Y-92418422D01*
X151709380Y-92352946D01*
X151709380Y-92829136D02*
X150709380Y-92954136D01*
X151328428Y-92971994D02*
X151709380Y-93210089D01*
X151042714Y-93293422D02*
X151423666Y-92864851D01*
X151709380Y-94067232D02*
X151185571Y-94132708D01*
X151090333Y-94096994D01*
X151042714Y-94007708D01*
X151042714Y-93817232D01*
X151090333Y-93716041D01*
X151661761Y-94073184D02*
X151709380Y-93971994D01*
X151709380Y-93733898D01*
X151661761Y-93644613D01*
X151566523Y-93608898D01*
X151471285Y-93620803D01*
X151376047Y-93680327D01*
X151328428Y-93781517D01*
X151328428Y-94019613D01*
X151280809Y-94120803D01*
X141967000Y-70129476D02*
X141928904Y-70053285D01*
X141928904Y-69939000D01*
X141967000Y-69824714D01*
X142043190Y-69748523D01*
X142119380Y-69710428D01*
X142271761Y-69672333D01*
X142386047Y-69672333D01*
X142538428Y-69710428D01*
X142614619Y-69748523D01*
X142690809Y-69824714D01*
X142728904Y-69939000D01*
X142728904Y-70015190D01*
X142690809Y-70129476D01*
X142652714Y-70167571D01*
X142386047Y-70167571D01*
X142386047Y-70015190D01*
X142728904Y-70510428D02*
X141928904Y-70510428D01*
X142728904Y-70967571D01*
X141928904Y-70967571D01*
X142728904Y-71348523D02*
X141928904Y-71348523D01*
X141928904Y-71539000D01*
X141967000Y-71653285D01*
X142043190Y-71729476D01*
X142119380Y-71767571D01*
X142271761Y-71805666D01*
X142386047Y-71805666D01*
X142538428Y-71767571D01*
X142614619Y-71729476D01*
X142690809Y-71653285D01*
X142728904Y-71539000D01*
X142728904Y-71348523D01*
X144849809Y-69691476D02*
X144887904Y-69805761D01*
X144887904Y-69996238D01*
X144849809Y-70072428D01*
X144811714Y-70110523D01*
X144735523Y-70148619D01*
X144659333Y-70148619D01*
X144583142Y-70110523D01*
X144545047Y-70072428D01*
X144506952Y-69996238D01*
X144468857Y-69843857D01*
X144430761Y-69767666D01*
X144392666Y-69729571D01*
X144316476Y-69691476D01*
X144240285Y-69691476D01*
X144164095Y-69729571D01*
X144126000Y-69767666D01*
X144087904Y-69843857D01*
X144087904Y-70034333D01*
X144126000Y-70148619D01*
X144087904Y-70415285D02*
X144887904Y-70605761D01*
X144316476Y-70758142D01*
X144887904Y-70910523D01*
X144087904Y-71101000D01*
X144811714Y-71862904D02*
X144849809Y-71824809D01*
X144887904Y-71710523D01*
X144887904Y-71634333D01*
X144849809Y-71520047D01*
X144773619Y-71443857D01*
X144697428Y-71405761D01*
X144545047Y-71367666D01*
X144430761Y-71367666D01*
X144278380Y-71405761D01*
X144202190Y-71443857D01*
X144126000Y-71520047D01*
X144087904Y-71634333D01*
X144087904Y-71710523D01*
X144126000Y-71824809D01*
X144164095Y-71862904D01*
X144887904Y-72586714D02*
X144887904Y-72205761D01*
X144087904Y-72205761D01*
X144887904Y-72853380D02*
X144087904Y-72853380D01*
X144887904Y-73310523D02*
X144430761Y-72967666D01*
X144087904Y-73310523D02*
X144545047Y-72853380D01*
X143833809Y-69653285D02*
X143871904Y-69767571D01*
X143871904Y-69958047D01*
X143833809Y-70034238D01*
X143795714Y-70072333D01*
X143719523Y-70110428D01*
X143643333Y-70110428D01*
X143567142Y-70072333D01*
X143529047Y-70034238D01*
X143490952Y-69958047D01*
X143452857Y-69805666D01*
X143414761Y-69729476D01*
X143376666Y-69691380D01*
X143300476Y-69653285D01*
X143224285Y-69653285D01*
X143148095Y-69691380D01*
X143110000Y-69729476D01*
X143071904Y-69805666D01*
X143071904Y-69996142D01*
X143110000Y-70110428D01*
X143071904Y-70377095D02*
X143871904Y-70567571D01*
X143300476Y-70719952D01*
X143871904Y-70872333D01*
X143071904Y-71062809D01*
X143871904Y-71367571D02*
X143071904Y-71367571D01*
X143071904Y-71558047D01*
X143110000Y-71672333D01*
X143186190Y-71748523D01*
X143262380Y-71786619D01*
X143414761Y-71824714D01*
X143529047Y-71824714D01*
X143681428Y-71786619D01*
X143757619Y-71748523D01*
X143833809Y-71672333D01*
X143871904Y-71558047D01*
X143871904Y-71367571D01*
X145230904Y-69685047D02*
X145230904Y-70180285D01*
X145535666Y-69913619D01*
X145535666Y-70027904D01*
X145573761Y-70104095D01*
X145611857Y-70142190D01*
X145688047Y-70180285D01*
X145878523Y-70180285D01*
X145954714Y-70142190D01*
X145992809Y-70104095D01*
X146030904Y-70027904D01*
X146030904Y-69799333D01*
X145992809Y-69723142D01*
X145954714Y-69685047D01*
X145954714Y-70523142D02*
X145992809Y-70561238D01*
X146030904Y-70523142D01*
X145992809Y-70485047D01*
X145954714Y-70523142D01*
X146030904Y-70523142D01*
X145230904Y-70827904D02*
X145230904Y-71323142D01*
X145535666Y-71056476D01*
X145535666Y-71170761D01*
X145573761Y-71246952D01*
X145611857Y-71285047D01*
X145688047Y-71323142D01*
X145878523Y-71323142D01*
X145954714Y-71285047D01*
X145992809Y-71246952D01*
X146030904Y-71170761D01*
X146030904Y-70942190D01*
X145992809Y-70866000D01*
X145954714Y-70827904D01*
X145230904Y-71551714D02*
X146030904Y-71818380D01*
X145230904Y-72085047D01*
G36*
X148422740Y-88491185D02*
G01*
X147288158Y-88491185D01*
X147288158Y-88198389D01*
X148422740Y-88198389D01*
X148422740Y-88491185D01*
G37*
G36*
X148120604Y-83150475D02*
G01*
X148265804Y-83260093D01*
X148371260Y-83420350D01*
X148402466Y-83513101D01*
X148416505Y-83701214D01*
X148372655Y-83881289D01*
X148278379Y-84038433D01*
X148141142Y-84157750D01*
X147968406Y-84224345D01*
X147795066Y-84231491D01*
X147622439Y-84182610D01*
X147479498Y-84084864D01*
X147372805Y-83950033D01*
X147308922Y-83789896D01*
X147295920Y-83634294D01*
X147542162Y-83634294D01*
X147555320Y-83760619D01*
X147621396Y-83864835D01*
X147710970Y-83913867D01*
X147845725Y-83935427D01*
X147982712Y-83919083D01*
X148089503Y-83864835D01*
X148141470Y-83793485D01*
X148166544Y-83657045D01*
X148164330Y-83620394D01*
X148118535Y-83498281D01*
X148026336Y-83412602D01*
X147904680Y-83370251D01*
X147770515Y-83378126D01*
X147640788Y-83443121D01*
X147580675Y-83512988D01*
X147542162Y-83634294D01*
X147295920Y-83634294D01*
X147294411Y-83616231D01*
X147335835Y-83440819D01*
X147439756Y-83275437D01*
X147448244Y-83265979D01*
X147599481Y-83149248D01*
X147772149Y-83092674D01*
X147904680Y-83093564D01*
X147950955Y-83093875D01*
X148120604Y-83150475D01*
G37*
G36*
X148422740Y-86441617D02*
G01*
X147782250Y-86445217D01*
X148026612Y-86570666D01*
X148043769Y-86579537D01*
X148162594Y-86644607D01*
X148252199Y-86699770D01*
X148294320Y-86733891D01*
X148308337Y-86771808D01*
X148284368Y-86851380D01*
X148191492Y-86940283D01*
X148028139Y-87040323D01*
X147782250Y-87171483D01*
X148102495Y-87172544D01*
X148422740Y-87173606D01*
X148422740Y-87429801D01*
X147283740Y-87429801D01*
X147295099Y-87292554D01*
X147296541Y-87276092D01*
X147306703Y-87215984D01*
X147332271Y-87168785D01*
X147385766Y-87123092D01*
X147479707Y-87067501D01*
X147626614Y-86990608D01*
X147715352Y-86944239D01*
X147834584Y-86879208D01*
X147916390Y-86830997D01*
X147946770Y-86807611D01*
X147934182Y-86796064D01*
X147869531Y-86755990D01*
X147762342Y-86696173D01*
X147626614Y-86624614D01*
X147588311Y-86604876D01*
X147454408Y-86533768D01*
X147370655Y-86481397D01*
X147324532Y-86436359D01*
X147303520Y-86387251D01*
X147295099Y-86322669D01*
X147283740Y-86185421D01*
X148422740Y-86185421D01*
X148422740Y-86441617D01*
G37*
G36*
X143042625Y-88783980D02*
G01*
X142585132Y-88783980D01*
X142418609Y-88784393D01*
X142282087Y-88787053D01*
X142196644Y-88793933D01*
X142150365Y-88807002D01*
X142131335Y-88828230D01*
X142127639Y-88859585D01*
X142129334Y-88893998D01*
X142147567Y-88961490D01*
X142193211Y-89028348D01*
X142275388Y-89103657D01*
X142403220Y-89196503D01*
X142585828Y-89315971D01*
X142592848Y-89320454D01*
X142743295Y-89420010D01*
X142871438Y-89511082D01*
X142963897Y-89583762D01*
X143007298Y-89628144D01*
X143007829Y-89629165D01*
X143024043Y-89692002D01*
X143035623Y-89793298D01*
X143041910Y-89910807D01*
X143042245Y-90022283D01*
X143035967Y-90105482D01*
X143022418Y-90138159D01*
X142994357Y-90126130D01*
X142914355Y-90079399D01*
X142796397Y-90005162D01*
X142652794Y-89911704D01*
X142495857Y-89807307D01*
X142337895Y-89700256D01*
X142191220Y-89598833D01*
X142068141Y-89511323D01*
X141980970Y-89446009D01*
X141942016Y-89411174D01*
X141911980Y-89377325D01*
X141885113Y-89395387D01*
X141854492Y-89431670D01*
X141778647Y-89498015D01*
X141676791Y-89575743D01*
X141654622Y-89591703D01*
X141523881Y-89686575D01*
X141369456Y-89799501D01*
X141220217Y-89909385D01*
X140953285Y-90106787D01*
X140964021Y-89823304D01*
X140974758Y-89539821D01*
X141377351Y-89261531D01*
X141530645Y-89153632D01*
X141654189Y-89060146D01*
X141732748Y-88989549D01*
X141775476Y-88933487D01*
X141791526Y-88883610D01*
X141803107Y-88783980D01*
X140956458Y-88783980D01*
X140956458Y-88308188D01*
X143042625Y-88308188D01*
X143042625Y-88783980D01*
G37*
G36*
X148161398Y-89273145D02*
G01*
X148278487Y-89229175D01*
X148342793Y-89206430D01*
X148357656Y-89201958D01*
X148404038Y-89196994D01*
X148419874Y-89230909D01*
X148415992Y-89320593D01*
X148405051Y-89396736D01*
X148367601Y-89464916D01*
X148285493Y-89513424D01*
X148229756Y-89540502D01*
X148187041Y-89580122D01*
X148169769Y-89645555D01*
X148166544Y-89760470D01*
X148169589Y-89854604D01*
X148185450Y-89931817D01*
X148217389Y-89955162D01*
X148239075Y-89956812D01*
X148332206Y-90001885D01*
X148397970Y-90090600D01*
X148416526Y-90198692D01*
X148404441Y-90312356D01*
X147855449Y-90101866D01*
X147306458Y-89891376D01*
X147306458Y-89748004D01*
X147601242Y-89748004D01*
X147728346Y-89793899D01*
X147743133Y-89799149D01*
X147838051Y-89828941D01*
X147901199Y-89842579D01*
X147933300Y-89816353D01*
X147946948Y-89737787D01*
X147946948Y-89630210D01*
X147601242Y-89748004D01*
X147306458Y-89748004D01*
X147306458Y-89607703D01*
X147782250Y-89420224D01*
X147829821Y-89401514D01*
X147946948Y-89355849D01*
X148006763Y-89332529D01*
X148161398Y-89273145D01*
G37*
G36*
X146519570Y-83769859D02*
G01*
X145614180Y-83769859D01*
X145597109Y-84153699D01*
X145591419Y-84265835D01*
X145578303Y-84420582D01*
X145557324Y-84537338D01*
X145523764Y-84638639D01*
X145472904Y-84747022D01*
X145444629Y-84798918D01*
X145296459Y-84990564D01*
X145107444Y-85122309D01*
X144872829Y-85197721D01*
X144796376Y-85209468D01*
X144539993Y-85209154D01*
X144309534Y-85146375D01*
X144113180Y-85024280D01*
X143959114Y-84846019D01*
X143948589Y-84829153D01*
X143886758Y-84713443D01*
X143840837Y-84587600D01*
X143808743Y-84439051D01*
X143788395Y-84255226D01*
X143777938Y-84028461D01*
X144250406Y-84028461D01*
X144258600Y-84194697D01*
X144298654Y-84368860D01*
X144376042Y-84486264D01*
X144495165Y-84552768D01*
X144660427Y-84574233D01*
X144841184Y-84556820D01*
X144984319Y-84495070D01*
X145076638Y-84386741D01*
X145098445Y-84324159D01*
X145120581Y-84190502D01*
X145128792Y-84027873D01*
X145128792Y-83769859D01*
X144250406Y-83769859D01*
X144250406Y-84028461D01*
X143777938Y-84028461D01*
X143777712Y-84023552D01*
X143774614Y-83731458D01*
X143774614Y-83147669D01*
X146519570Y-83147669D01*
X146519570Y-83769859D01*
G37*
G36*
X146519570Y-86130194D02*
G01*
X146515845Y-86277684D01*
X146500519Y-86408218D01*
X146473821Y-86470220D01*
X146470843Y-86472202D01*
X146414791Y-86496759D01*
X146300080Y-86540539D01*
X146135971Y-86600216D01*
X145931727Y-86672464D01*
X145696612Y-86753960D01*
X145439887Y-86841378D01*
X145396814Y-86855922D01*
X145142484Y-86941916D01*
X144910745Y-87020468D01*
X144710952Y-87088393D01*
X144552460Y-87142506D01*
X144444626Y-87179621D01*
X144396804Y-87196552D01*
X144396998Y-87200935D01*
X144443552Y-87226199D01*
X144548414Y-87270049D01*
X144703695Y-87329515D01*
X144901509Y-87401623D01*
X145133967Y-87483405D01*
X145393181Y-87571887D01*
X145491613Y-87605122D01*
X145749256Y-87693227D01*
X145981815Y-87774333D01*
X146180410Y-87845241D01*
X146336158Y-87902750D01*
X146440178Y-87943659D01*
X146483587Y-87964770D01*
X146484577Y-87965835D01*
X146503112Y-88025368D01*
X146512691Y-88141496D01*
X146511993Y-88298688D01*
X146501271Y-88593478D01*
X143792913Y-87546034D01*
X143782443Y-87217463D01*
X143771974Y-86888891D01*
X143873942Y-86851948D01*
X143874714Y-86851668D01*
X143933350Y-86829508D01*
X144051657Y-86784139D01*
X144221335Y-86718768D01*
X144434083Y-86636599D01*
X144681600Y-86540840D01*
X144955586Y-86434695D01*
X145247740Y-86321370D01*
X146519570Y-85827734D01*
X146519570Y-86130194D01*
G37*
G36*
X147250486Y-83596525D02*
G01*
X147243227Y-83660936D01*
X147210530Y-83769645D01*
X147161572Y-83875807D01*
X147107487Y-83956551D01*
X147059412Y-83989003D01*
X147053331Y-83985472D01*
X147038073Y-83934995D01*
X147031962Y-83843635D01*
X147032993Y-83808184D01*
X147061494Y-83689741D01*
X147140688Y-83578290D01*
X147249413Y-83458764D01*
X147250486Y-83596525D01*
G37*
G36*
X148298805Y-90934097D02*
G01*
X148358860Y-91025695D01*
X148385307Y-91089322D01*
X148414887Y-91252683D01*
X148398257Y-91411940D01*
X148339268Y-91546970D01*
X148241771Y-91637650D01*
X148199276Y-91657469D01*
X148053263Y-91681769D01*
X147919778Y-91639280D01*
X147808521Y-91534994D01*
X147729189Y-91373899D01*
X147714042Y-91329754D01*
X147666235Y-91236355D01*
X147614353Y-91210715D01*
X147552651Y-91248759D01*
X147537372Y-91265230D01*
X147513827Y-91322010D01*
X147537863Y-91401209D01*
X147545107Y-91417434D01*
X147576908Y-91519454D01*
X147559108Y-91584983D01*
X147487611Y-91632916D01*
X147467759Y-91641699D01*
X147413930Y-91654395D01*
X147377569Y-91624717D01*
X147337446Y-91539451D01*
X147326328Y-91510709D01*
X147294859Y-91343548D01*
X147316287Y-91189323D01*
X147383792Y-91061942D01*
X147490553Y-90975313D01*
X147629750Y-90943346D01*
X147664943Y-90944645D01*
X147794343Y-90982216D01*
X147891719Y-91077007D01*
X147965254Y-91236161D01*
X147993388Y-91311134D01*
X148046607Y-91397027D01*
X148103553Y-91413359D01*
X148168003Y-91362482D01*
X148189574Y-91327478D01*
X148190026Y-91268463D01*
X148152615Y-91174951D01*
X148141781Y-91152031D01*
X148111218Y-91074324D01*
X148114754Y-91025358D01*
X148152347Y-90975412D01*
X148168389Y-90958487D01*
X148238703Y-90912520D01*
X148298805Y-90934097D01*
G37*
G36*
X143042625Y-92334124D02*
G01*
X142676631Y-92334124D01*
X142676631Y-91492338D01*
X142164239Y-91492338D01*
X142164239Y-92151127D01*
X141798245Y-92151127D01*
X141798245Y-91492338D01*
X141322452Y-91492338D01*
X141322452Y-92334124D01*
X140956458Y-92334124D01*
X140956458Y-91016545D01*
X143042625Y-91016545D01*
X143042625Y-92334124D01*
G37*
G36*
X148356607Y-84868919D02*
G01*
X148401959Y-84884063D01*
X148419698Y-84932973D01*
X148422740Y-85035355D01*
X148418133Y-85124579D01*
X148387647Y-85221086D01*
X148315757Y-85309850D01*
X148307843Y-85317757D01*
X148263049Y-85359489D01*
X148218253Y-85387466D01*
X148158815Y-85404439D01*
X148070096Y-85413158D01*
X147937456Y-85416373D01*
X147746257Y-85416833D01*
X147283740Y-85416833D01*
X147295099Y-85279585D01*
X147306458Y-85142338D01*
X147736501Y-85132026D01*
X147906694Y-85126138D01*
X148055927Y-85114990D01*
X148142479Y-85098895D01*
X148172119Y-85077127D01*
X148173583Y-85066214D01*
X148186197Y-84995940D01*
X148188385Y-84985699D01*
X148198922Y-84913591D01*
X148233623Y-84881255D01*
X148312942Y-84867842D01*
X148356607Y-84868919D01*
G37*
G36*
X147454055Y-80000446D02*
G01*
X147516532Y-80011127D01*
X147540476Y-80052783D01*
X147544354Y-80146516D01*
X147544354Y-80292914D01*
X147959148Y-80292914D01*
X148108618Y-80294525D01*
X148252191Y-80299697D01*
X148354004Y-80307584D01*
X148398341Y-80317314D01*
X148399782Y-80318966D01*
X148416044Y-80373277D01*
X148422740Y-80463711D01*
X148422740Y-80585709D01*
X147544354Y-80585709D01*
X147544354Y-80732107D01*
X147544068Y-80775305D01*
X147534721Y-80846707D01*
X147498273Y-80874073D01*
X147416256Y-80878505D01*
X147288158Y-80878505D01*
X147288158Y-80000119D01*
X147416256Y-80000119D01*
X147454055Y-80000446D01*
G37*
G36*
X146519570Y-94896084D02*
G01*
X146043778Y-94896084D01*
X146043778Y-93761502D01*
X145384988Y-93761502D01*
X145384988Y-94603289D01*
X144909196Y-94603289D01*
X144909196Y-93761502D01*
X144250406Y-93761502D01*
X144250406Y-94896084D01*
X143774614Y-94896084D01*
X143774614Y-93102712D01*
X146519570Y-93102712D01*
X146519570Y-94896084D01*
G37*
G36*
X143042625Y-93761502D02*
G01*
X142274037Y-93761502D01*
X142274037Y-93883051D01*
X142274075Y-93891485D01*
X142279478Y-93947216D01*
X142302282Y-93993191D01*
X142354259Y-94040505D01*
X142447182Y-94100255D01*
X142592823Y-94183538D01*
X142650082Y-94215756D01*
X142811392Y-94309601D01*
X142921110Y-94384161D01*
X142989165Y-94451527D01*
X143025484Y-94523792D01*
X143039994Y-94613048D01*
X143042625Y-94731387D01*
X143040405Y-94848524D01*
X143034277Y-94935891D01*
X143025612Y-94969283D01*
X142992918Y-94955577D01*
X142910582Y-94909989D01*
X142795064Y-94841470D01*
X142661420Y-94759410D01*
X142524708Y-94673198D01*
X142399985Y-94592224D01*
X142302307Y-94525879D01*
X142246732Y-94483552D01*
X142244430Y-94481441D01*
X142184285Y-94434024D01*
X142152531Y-94423197D01*
X142149447Y-94427337D01*
X142115656Y-94475143D01*
X142061609Y-94553027D01*
X141946833Y-94668230D01*
X141782269Y-94751624D01*
X141596536Y-94787872D01*
X141410623Y-94773105D01*
X141245516Y-94703454D01*
X141150870Y-94628927D01*
X141078669Y-94539277D01*
X141027452Y-94424155D01*
X140993466Y-94271691D01*
X140972959Y-94070013D01*
X140962176Y-93807251D01*
X140961072Y-93761502D01*
X141285853Y-93761502D01*
X141286057Y-93862150D01*
X141288322Y-93916413D01*
X141318343Y-94075637D01*
X141376040Y-94210406D01*
X141452205Y-94296643D01*
X141515572Y-94327137D01*
X141648167Y-94337990D01*
X141774893Y-94290206D01*
X141873052Y-94189559D01*
X141873897Y-94188165D01*
X141924407Y-94060634D01*
X141944506Y-93917049D01*
X141944642Y-93761502D01*
X141285853Y-93761502D01*
X140961072Y-93761502D01*
X140949594Y-93285709D01*
X143042625Y-93285709D01*
X143042625Y-93761502D01*
G37*
G36*
X143042625Y-80695508D02*
G01*
X142164239Y-80695508D01*
X142164239Y-81573894D01*
X143042625Y-81573894D01*
X143042625Y-82049686D01*
X140956458Y-82049686D01*
X140956458Y-81573894D01*
X141837167Y-81573894D01*
X141826856Y-81143850D01*
X141816544Y-80713807D01*
X140956458Y-80693185D01*
X140956458Y-80219715D01*
X143042625Y-80219715D01*
X143042625Y-80695508D01*
G37*
G36*
X142348638Y-85681918D02*
G01*
X142567069Y-85780209D01*
X142765423Y-85940795D01*
X142865238Y-86052787D01*
X142948219Y-86167587D01*
X142994776Y-86258620D01*
X142995718Y-86261680D01*
X143016160Y-86365136D01*
X143031646Y-86510095D01*
X143038889Y-86666184D01*
X143038358Y-86788131D01*
X143026685Y-86914830D01*
X142996644Y-87021315D01*
X142941977Y-87138063D01*
X142889183Y-87233748D01*
X142814882Y-87338378D01*
X142748490Y-87380286D01*
X142680694Y-87363717D01*
X142602184Y-87292914D01*
X142495310Y-87174327D01*
X142588950Y-87000119D01*
X142630116Y-86916067D01*
X142666386Y-86791361D01*
X142667133Y-86656740D01*
X142642652Y-86526646D01*
X142556924Y-86356610D01*
X142416168Y-86232455D01*
X142223302Y-86156420D01*
X141981242Y-86130741D01*
X141836169Y-86140095D01*
X141631304Y-86197301D01*
X141477955Y-86305639D01*
X141377355Y-86464083D01*
X141330737Y-86671608D01*
X141326607Y-86751852D01*
X141340728Y-86889094D01*
X141391649Y-87019362D01*
X141414245Y-87065138D01*
X141453370Y-87153869D01*
X141468850Y-87204403D01*
X141463816Y-87217527D01*
X141417724Y-87270172D01*
X141339108Y-87337076D01*
X141287278Y-87374078D01*
X141214443Y-87405923D01*
X141155284Y-87388680D01*
X141096742Y-87315839D01*
X141025761Y-87180892D01*
X141014081Y-87155528D01*
X140950679Y-86934472D01*
X140934274Y-86686782D01*
X140964464Y-86438220D01*
X141040845Y-86214551D01*
X141044358Y-86207444D01*
X141195276Y-85979628D01*
X141391488Y-85808930D01*
X141630741Y-85696825D01*
X141910786Y-85644786D01*
X142097944Y-85641702D01*
X142348638Y-85681918D01*
G37*
G36*
X145214374Y-89607524D02*
G01*
X145389065Y-89609928D01*
X145515859Y-89618325D01*
X145615315Y-89636053D01*
X145707995Y-89666451D01*
X145814457Y-89712856D01*
X146029543Y-89838532D01*
X146248936Y-90038760D01*
X146415637Y-90282267D01*
X146521293Y-90559052D01*
X146546955Y-90731019D01*
X146550547Y-90953107D01*
X146530204Y-91179716D01*
X146487302Y-91377693D01*
X146483925Y-91388295D01*
X146427884Y-91526619D01*
X146354326Y-91662969D01*
X146274360Y-91780820D01*
X146199091Y-91863649D01*
X146139629Y-91894931D01*
X146110166Y-91882855D01*
X146039391Y-91830085D01*
X145953338Y-91749618D01*
X145901133Y-91696949D01*
X145855135Y-91644141D01*
X145838529Y-91596712D01*
X145852105Y-91536925D01*
X145896654Y-91447046D01*
X145972968Y-91309340D01*
X146026847Y-91164936D01*
X146042366Y-90964922D01*
X146005307Y-90760487D01*
X145919895Y-90572193D01*
X145790356Y-90420605D01*
X145778603Y-90410991D01*
X145599678Y-90308511D01*
X145381510Y-90243925D01*
X145147243Y-90219783D01*
X144920020Y-90238633D01*
X144722983Y-90303026D01*
X144533602Y-90422898D01*
X144386482Y-90583166D01*
X144300967Y-90778840D01*
X144272878Y-91016545D01*
X144272931Y-91043308D01*
X144282490Y-91193023D01*
X144315026Y-91315396D01*
X144380240Y-91449548D01*
X144488302Y-91644656D01*
X144323605Y-91788569D01*
X144246390Y-91850341D01*
X144159977Y-91905314D01*
X144105434Y-91922630D01*
X144047711Y-91883712D01*
X143976772Y-91788847D01*
X143903905Y-91654460D01*
X143837738Y-91496571D01*
X143786901Y-91331203D01*
X143760707Y-91214336D01*
X143744149Y-91086678D01*
X143746633Y-90956487D01*
X143766890Y-90789373D01*
X143793628Y-90645258D01*
X143896778Y-90338934D01*
X144055839Y-90079258D01*
X144270090Y-89867247D01*
X144538809Y-89703913D01*
X144547576Y-89699818D01*
X144644524Y-89658382D01*
X144734827Y-89631500D01*
X144838438Y-89616101D01*
X144975309Y-89609114D01*
X145165392Y-89607467D01*
X145214374Y-89607524D01*
G37*
G36*
X146206226Y-80037198D02*
G01*
X146249236Y-80075194D01*
X146308606Y-80161602D01*
X146374483Y-80279031D01*
X146437014Y-80410093D01*
X146486345Y-80537398D01*
X146528353Y-80696993D01*
X146553684Y-80967653D01*
X146523624Y-81226467D01*
X146441489Y-81461431D01*
X146310597Y-81660540D01*
X146134264Y-81811790D01*
X146107686Y-81828130D01*
X146014911Y-81877977D01*
X145926506Y-81906187D01*
X145816646Y-81918733D01*
X145659505Y-81921588D01*
X145598723Y-81921366D01*
X145464807Y-81916623D01*
X145373288Y-81901556D01*
X145301370Y-81870757D01*
X145226254Y-81818820D01*
X145211284Y-81807118D01*
X145115412Y-81713598D01*
X145033498Y-81592486D01*
X144957038Y-81428885D01*
X144877528Y-81207899D01*
X144822465Y-81051038D01*
X144754691Y-80897338D01*
X144687256Y-80799246D01*
X144613168Y-80747317D01*
X144525440Y-80732107D01*
X144447564Y-80739030D01*
X144336329Y-80791664D01*
X144271461Y-80898617D01*
X144250406Y-81062960D01*
X144268353Y-81227303D01*
X144323605Y-81390897D01*
X144341330Y-81426599D01*
X144392305Y-81561575D01*
X144390077Y-81660599D01*
X144330336Y-81739557D01*
X144208774Y-81814340D01*
X144158061Y-81840083D01*
X144077938Y-81875440D01*
X144022058Y-81878482D01*
X143976117Y-81840949D01*
X143925812Y-81754583D01*
X143856839Y-81611124D01*
X143830347Y-81552514D01*
X143787757Y-81428006D01*
X143766077Y-81293254D01*
X143759131Y-81117032D01*
X143763977Y-80940802D01*
X143795809Y-80733467D01*
X143861763Y-80564430D01*
X143967170Y-80415716D01*
X144053998Y-80327089D01*
X144216371Y-80216635D01*
X144404002Y-80160748D01*
X144634759Y-80152380D01*
X144727654Y-80158423D01*
X144851516Y-80176448D01*
X144944004Y-80210378D01*
X145031882Y-80268006D01*
X145053951Y-80285457D01*
X145151692Y-80383794D01*
X145233912Y-80511013D01*
X145308610Y-80681723D01*
X145383789Y-80910531D01*
X145457418Y-81113274D01*
X145541484Y-81251524D01*
X145640909Y-81329691D01*
X145761239Y-81354297D01*
X145888783Y-81328699D01*
X145987361Y-81249495D01*
X146043539Y-81125761D01*
X146055223Y-80966737D01*
X146020321Y-80781660D01*
X145936738Y-80579769D01*
X145882263Y-80462969D01*
X145847030Y-80360497D01*
X145840788Y-80298800D01*
X145841250Y-80297485D01*
X145881583Y-80248725D01*
X145961249Y-80181349D01*
X146056886Y-80112277D01*
X146145138Y-80058427D01*
X146202644Y-80036718D01*
X146206226Y-80037198D01*
G37*
G36*
X148422740Y-81866689D02*
G01*
X148221444Y-81866689D01*
X148122753Y-81870582D01*
X148041493Y-81890455D01*
X148029491Y-81928912D01*
X148086666Y-81987889D01*
X148212935Y-82069325D01*
X148311073Y-82129285D01*
X148374707Y-82183883D01*
X148404134Y-82245217D01*
X148415695Y-82334671D01*
X148417795Y-82374877D01*
X148415251Y-82456434D01*
X148402912Y-82488879D01*
X148402377Y-82488852D01*
X148359427Y-82469675D01*
X148273340Y-82421754D01*
X148162155Y-82355112D01*
X147945435Y-82221345D01*
X147859019Y-82302529D01*
X147825113Y-82330966D01*
X147738189Y-82369071D01*
X147616388Y-82372247D01*
X147525391Y-82358097D01*
X147425993Y-82309185D01*
X147358761Y-82217796D01*
X147317446Y-82074102D01*
X147304523Y-81951252D01*
X147506701Y-81951252D01*
X147545642Y-82052092D01*
X147589689Y-82100792D01*
X147673544Y-82120326D01*
X147756631Y-82078966D01*
X147782471Y-82036906D01*
X147800550Y-81950868D01*
X147800549Y-81949854D01*
X147790914Y-81895897D01*
X147748858Y-81872053D01*
X147654152Y-81866689D01*
X147607845Y-81868367D01*
X147525967Y-81892518D01*
X147506701Y-81951252D01*
X147304523Y-81951252D01*
X147295795Y-81868277D01*
X147278753Y-81573894D01*
X148422740Y-81573894D01*
X148422740Y-81866689D01*
G37*
G36*
X147878295Y-93798449D02*
G01*
X148078969Y-93836561D01*
X148241648Y-93935374D01*
X148360718Y-94091626D01*
X148372352Y-94115662D01*
X148416980Y-94290099D01*
X148406839Y-94472525D01*
X148347888Y-94644360D01*
X148246083Y-94787021D01*
X148107380Y-94881925D01*
X147957052Y-94926352D01*
X147761834Y-94929467D01*
X147587294Y-94872444D01*
X147444438Y-94761763D01*
X147344274Y-94603903D01*
X147297812Y-94405345D01*
X147299521Y-94365392D01*
X147544354Y-94365392D01*
X147548015Y-94421464D01*
X147595667Y-94542655D01*
X147698233Y-94615541D01*
X147855449Y-94639888D01*
X147860725Y-94639873D01*
X148000303Y-94622057D01*
X148093346Y-94566689D01*
X148140525Y-94495574D01*
X148166544Y-94349168D01*
X148160936Y-94280532D01*
X148111732Y-94173023D01*
X148008521Y-94110889D01*
X147847306Y-94090897D01*
X147792183Y-94093575D01*
X147655724Y-94135371D01*
X147572502Y-94226531D01*
X147544354Y-94365392D01*
X147299521Y-94365392D01*
X147304942Y-94238614D01*
X147368345Y-94057532D01*
X147485982Y-93918578D01*
X147650726Y-93829514D01*
X147847306Y-93799350D01*
X147855449Y-93798101D01*
X147878295Y-93798449D01*
G37*
G36*
X143042065Y-83102454D02*
G01*
X143039332Y-83191973D01*
X143028683Y-83297945D01*
X143012845Y-83357484D01*
X142997328Y-83368536D01*
X142921055Y-83403894D01*
X142791114Y-83456077D01*
X142617654Y-83521215D01*
X142410823Y-83595437D01*
X142180769Y-83674873D01*
X142037303Y-83724123D01*
X141830130Y-83797748D01*
X141657217Y-83862323D01*
X141527385Y-83914403D01*
X141449456Y-83950542D01*
X141432250Y-83967293D01*
X141442606Y-83970991D01*
X141514351Y-83996007D01*
X141640447Y-84039648D01*
X141809927Y-84098127D01*
X142011820Y-84167656D01*
X142235157Y-84244450D01*
X142319034Y-84273494D01*
X142533331Y-84349844D01*
X142720355Y-84419520D01*
X142869560Y-84478412D01*
X142970401Y-84522410D01*
X143012335Y-84547402D01*
X143023996Y-84582876D01*
X143036842Y-84677786D01*
X143042065Y-84799867D01*
X143042625Y-85006388D01*
X142014349Y-84607720D01*
X141917043Y-84570020D01*
X141666576Y-84473225D01*
X141441941Y-84386764D01*
X141251614Y-84313875D01*
X141104074Y-84257800D01*
X141007798Y-84221779D01*
X140971265Y-84209052D01*
X140970861Y-84208959D01*
X140963589Y-84172263D01*
X140958423Y-84081981D01*
X140956458Y-83956772D01*
X140958653Y-83857765D01*
X140973473Y-83736402D01*
X141002207Y-83686514D01*
X141022610Y-83678568D01*
X141105043Y-83646580D01*
X141239447Y-83594480D01*
X141415687Y-83526195D01*
X141623631Y-83445651D01*
X141853144Y-83356775D01*
X141971897Y-83310776D01*
X142208268Y-83219104D01*
X142426961Y-83134148D01*
X142615325Y-83060828D01*
X142760714Y-83004064D01*
X142850478Y-82968778D01*
X143042625Y-82892541D01*
X143042065Y-83102454D01*
G37*
G36*
X147445058Y-92316265D02*
G01*
X147500548Y-92328697D01*
X147526020Y-92373617D01*
X147537309Y-92471372D01*
X147548563Y-92626920D01*
X148427159Y-92626920D01*
X148415800Y-92764167D01*
X148404441Y-92901415D01*
X147974397Y-92911727D01*
X147544354Y-92922038D01*
X147544354Y-93067274D01*
X147544088Y-93109049D01*
X147534794Y-93180653D01*
X147498092Y-93208077D01*
X147415130Y-93212510D01*
X147285905Y-93212510D01*
X147296182Y-92764167D01*
X147306458Y-92315825D01*
X147416256Y-92315825D01*
X147445058Y-92316265D01*
G37*
%LPC*%
D12*
X139446000Y-68707000D03*
X139446000Y-109347000D03*
X154686000Y-109347000D03*
X154686000Y-68707000D03*
D13*
X151765000Y-68961000D03*
D14*
X150765000Y-68961000D03*
D15*
X150210000Y-105731000D03*
X144430000Y-105731000D03*
D16*
X143000000Y-105201000D03*
D17*
X151640000Y-109381000D03*
X143000000Y-109381000D03*
D16*
X151640000Y-105201000D03*
D13*
X145415000Y-68935600D03*
D14*
X144415000Y-68935600D03*
X143415000Y-68935600D03*
X142415000Y-68935600D03*
M02*
