M48
; DRILL file {KiCad (6.0.6)} date czw, 14 lip 2022, 08:26:53
; FORMAT={-:-/ absolute / metric / decimal}
; #@! TF.CreationDate,2022-07-14T08:26:53+02:00
; #@! TF.GenerationSoftware,Kicad,Pcbnew,(6.0.6)
; #@! TF.FileFunction,Plated,1,2,PTH
FMAT,2
METRIC
; #@! TA.AperFunction,Plated,PTH,ViaDrill
T1C0.200
; #@! TA.AperFunction,Plated,PTH,ViaDrill
T2C0.300
; #@! TA.AperFunction,Plated,PTH,ComponentDrill
T3C0.350
; #@! TA.AperFunction,Plated,PTH,ViaDrill
T4C0.400
; #@! TA.AperFunction,Plated,PTH,ComponentDrill
T5C0.500
; #@! TA.AperFunction,Plated,PTH,ComponentDrill
T6C0.600
; #@! TA.AperFunction,Plated,PTH,ComponentDrill
T7C1.778
%
G90
G05
T1
X140.081Y-84.074
X140.081Y-85.344
X140.843Y-84.074
X140.843Y-85.344
X141.986Y-86.106
X142.875Y-97.719
X142.875Y-98.369
X143.002Y-83.185
X143.256Y-88.9
X143.51Y-93.091
X145.796Y-101.219
X146.177Y-96.393
X146.177Y-98.679
X147.058Y-106.339
X147.708Y-106.339
X148.59Y-84.328
X148.59Y-88.011
X148.844Y-91.948
X152.781Y-88.265
X153.797Y-82.804
X153.924Y-96.266
T2
X139.192Y-86.995
X139.192Y-88.265
X139.192Y-91.821
X146.05Y-74.295
X146.05Y-79.756
X148.209Y-77.47
X148.336Y-72.009
X148.6Y-90.55
X148.717Y-94.107
T3
X142.616Y-89.784
X142.616Y-91.059
X142.616Y-92.334
X143.891Y-89.784
X143.891Y-91.059
X143.891Y-92.334
X145.166Y-89.784
X145.166Y-91.059
X145.166Y-92.334
T4
X139.319Y-102.87
X139.573Y-98.171
X142.24Y-101.346
X143.51Y-72.644
X143.51Y-78.105
X147.193Y-69.85
X150.876Y-73.406
X150.876Y-78.74
X150.876Y-84.455
X150.876Y-99.441
T5
X142.415Y-68.936
X143.415Y-68.936
X144.415Y-68.936
X145.415Y-68.936
X150.765Y-68.961
X151.765Y-68.961
T7
X139.446Y-68.707
X139.446Y-109.347
X154.686Y-68.707
X154.686Y-109.347
T6
X143.0Y-104.651G85X143.0Y-105.751
G05
X143.0Y-109.081G85X143.0Y-109.681
G05
X151.64Y-104.651G85X151.64Y-105.751
G05
X151.64Y-109.081G85X151.64Y-109.681
G05
T0
M30
