G04 #@! TF.GenerationSoftware,KiCad,Pcbnew,(6.0.6)*
G04 #@! TF.CreationDate,2022-07-14T08:26:48+02:00*
G04 #@! TF.ProjectId,hs3-arduino-nano,6873332d-6172-4647-9569-6e6f2d6e616e,rev?*
G04 #@! TF.SameCoordinates,Original*
G04 #@! TF.FileFunction,Legend,Top*
G04 #@! TF.FilePolarity,Positive*
%FSLAX46Y46*%
G04 Gerber Fmt 4.6, Leading zero omitted, Abs format (unit mm)*
G04 Created by KiCad (PCBNEW (6.0.6)) date 2022-07-14 08:26:48*
%MOMM*%
%LPD*%
G01*
G04 APERTURE LIST*
G04 Aperture macros list*
%AMRoundRect*
0 Rectangle with rounded corners*
0 $1 Rounding radius*
0 $2 $3 $4 $5 $6 $7 $8 $9 X,Y pos of 4 corners*
0 Add a 4 corners polygon primitive as box body*
4,1,4,$2,$3,$4,$5,$6,$7,$8,$9,$2,$3,0*
0 Add four circle primitives for the rounded corners*
1,1,$1+$1,$2,$3*
1,1,$1+$1,$4,$5*
1,1,$1+$1,$6,$7*
1,1,$1+$1,$8,$9*
0 Add four rect primitives between the rounded corners*
20,1,$1+$1,$2,$3,$4,$5,0*
20,1,$1+$1,$4,$5,$6,$7,0*
20,1,$1+$1,$6,$7,$8,$9,0*
20,1,$1+$1,$8,$9,$2,$3,0*%
G04 Aperture macros list end*
%ADD10C,0.150000*%
%ADD11C,0.100000*%
%ADD12C,0.125000*%
%ADD13C,0.120000*%
%ADD14C,2.540000*%
%ADD15R,0.800000X0.900000*%
%ADD16RoundRect,0.140000X0.170000X-0.140000X0.170000X0.140000X-0.170000X0.140000X-0.170000X-0.140000X0*%
%ADD17R,0.550000X1.500000*%
%ADD18RoundRect,0.140000X-0.170000X0.140000X-0.170000X-0.140000X0.170000X-0.140000X0.170000X0.140000X0*%
%ADD19R,0.850000X0.850000*%
%ADD20O,0.850000X0.850000*%
%ADD21RoundRect,0.135000X0.185000X-0.135000X0.185000X0.135000X-0.185000X0.135000X-0.185000X-0.135000X0*%
%ADD22RoundRect,0.150000X0.150000X0.625000X-0.150000X0.625000X-0.150000X-0.625000X0.150000X-0.625000X0*%
%ADD23RoundRect,0.250000X0.350000X0.650000X-0.350000X0.650000X-0.350000X-0.650000X0.350000X-0.650000X0*%
%ADD24RoundRect,0.150000X-0.150000X-0.625000X0.150000X-0.625000X0.150000X0.625000X-0.150000X0.625000X0*%
%ADD25RoundRect,0.250000X-0.350000X-0.650000X0.350000X-0.650000X0.350000X0.650000X-0.350000X0.650000X0*%
%ADD26RoundRect,0.135000X-0.135000X-0.185000X0.135000X-0.185000X0.135000X0.185000X-0.135000X0.185000X0*%
%ADD27C,0.650000*%
%ADD28R,0.600000X1.450000*%
%ADD29R,0.300000X1.450000*%
%ADD30O,1.000000X2.100000*%
%ADD31O,1.000000X1.600000*%
%ADD32RoundRect,0.250000X-0.475000X0.250000X-0.475000X-0.250000X0.475000X-0.250000X0.475000X0.250000X0*%
%ADD33R,2.000000X1.500000*%
%ADD34R,2.000000X3.800000*%
%ADD35RoundRect,0.150000X-0.150000X0.650000X-0.150000X-0.650000X0.150000X-0.650000X0.150000X0.650000X0*%
%ADD36RoundRect,0.050000X0.387500X0.050000X-0.387500X0.050000X-0.387500X-0.050000X0.387500X-0.050000X0*%
%ADD37RoundRect,0.050000X0.050000X0.387500X-0.050000X0.387500X-0.050000X-0.387500X0.050000X-0.387500X0*%
%ADD38RoundRect,0.144000X1.456000X1.456000X-1.456000X1.456000X-1.456000X-1.456000X1.456000X-1.456000X0*%
%ADD39RoundRect,0.140000X0.140000X0.170000X-0.140000X0.170000X-0.140000X-0.170000X0.140000X-0.170000X0*%
%ADD40RoundRect,0.250000X0.475000X-0.250000X0.475000X0.250000X-0.475000X0.250000X-0.475000X-0.250000X0*%
%ADD41RoundRect,0.135000X0.135000X0.185000X-0.135000X0.185000X-0.135000X-0.185000X0.135000X-0.185000X0*%
G04 APERTURE END LIST*
D10*
X143510000Y-97790000D02*
X143256000Y-97790000D01*
X141605000Y-98552000D02*
X142621000Y-98552000D01*
X143256000Y-97790000D02*
X143129000Y-97790000D01*
X143637000Y-97282000D02*
X143764000Y-97409000D01*
X143637000Y-97282000D02*
X143510000Y-97409000D01*
X142113000Y-97790000D02*
X142113000Y-97282000D01*
X141986000Y-97409000D02*
X142113000Y-97282000D01*
X142113000Y-97282000D02*
X141986000Y-97409000D01*
X142494000Y-98425000D02*
X142621000Y-98552000D01*
X143510000Y-97409000D02*
X143637000Y-97282000D01*
X142240000Y-97409000D02*
X142113000Y-97282000D01*
X142621000Y-98552000D02*
X142494000Y-98679000D01*
X143637000Y-97663000D02*
X143637000Y-97282000D01*
X143129000Y-97790000D02*
X143256000Y-97663000D01*
X142494000Y-98679000D02*
X142621000Y-98552000D01*
X143129000Y-97790000D02*
X143256000Y-97917000D01*
X141605000Y-97790000D02*
X142113000Y-97790000D01*
D11*
X139065047Y-98683000D02*
X139017428Y-98659190D01*
X138946000Y-98659190D01*
X138874571Y-98683000D01*
X138826952Y-98730619D01*
X138803142Y-98778238D01*
X138779333Y-98873476D01*
X138779333Y-98944904D01*
X138803142Y-99040142D01*
X138826952Y-99087761D01*
X138874571Y-99135380D01*
X138946000Y-99159190D01*
X138993619Y-99159190D01*
X139065047Y-99135380D01*
X139088857Y-99111571D01*
X139088857Y-98944904D01*
X138993619Y-98944904D01*
X139303142Y-99159190D02*
X139303142Y-98659190D01*
X139588857Y-99159190D01*
X139588857Y-98659190D01*
X139826952Y-99159190D02*
X139826952Y-98659190D01*
X139946000Y-98659190D01*
X140017428Y-98683000D01*
X140065047Y-98730619D01*
X140088857Y-98778238D01*
X140112666Y-98873476D01*
X140112666Y-98944904D01*
X140088857Y-99040142D01*
X140065047Y-99087761D01*
X140017428Y-99135380D01*
X139946000Y-99159190D01*
X139826952Y-99159190D01*
X141252619Y-98351952D02*
X141252619Y-97951952D01*
X141347857Y-97951952D01*
X141405000Y-97971000D01*
X141443095Y-98009095D01*
X141462142Y-98047190D01*
X141481190Y-98123380D01*
X141481190Y-98180523D01*
X141462142Y-98256714D01*
X141443095Y-98294809D01*
X141405000Y-98332904D01*
X141347857Y-98351952D01*
X141252619Y-98351952D01*
X141652619Y-98199571D02*
X141957380Y-98199571D01*
D12*
X138410190Y-92178095D02*
X138410190Y-91868571D01*
X138600666Y-92035238D01*
X138600666Y-91963809D01*
X138624476Y-91916190D01*
X138648285Y-91892380D01*
X138695904Y-91868571D01*
X138814952Y-91868571D01*
X138862571Y-91892380D01*
X138886380Y-91916190D01*
X138910190Y-91963809D01*
X138910190Y-92106666D01*
X138886380Y-92154285D01*
X138862571Y-92178095D01*
X138862571Y-91654285D02*
X138886380Y-91630476D01*
X138910190Y-91654285D01*
X138886380Y-91678095D01*
X138862571Y-91654285D01*
X138910190Y-91654285D01*
X138410190Y-91463809D02*
X138410190Y-91154285D01*
X138600666Y-91320952D01*
X138600666Y-91249523D01*
X138624476Y-91201904D01*
X138648285Y-91178095D01*
X138695904Y-91154285D01*
X138814952Y-91154285D01*
X138862571Y-91178095D01*
X138886380Y-91201904D01*
X138910190Y-91249523D01*
X138910190Y-91392380D01*
X138886380Y-91440000D01*
X138862571Y-91463809D01*
X138410190Y-91011428D02*
X138910190Y-90844761D01*
X138410190Y-90678095D01*
D11*
X140589047Y-101096000D02*
X140541428Y-101072190D01*
X140470000Y-101072190D01*
X140398571Y-101096000D01*
X140350952Y-101143619D01*
X140327142Y-101191238D01*
X140303333Y-101286476D01*
X140303333Y-101357904D01*
X140327142Y-101453142D01*
X140350952Y-101500761D01*
X140398571Y-101548380D01*
X140470000Y-101572190D01*
X140517619Y-101572190D01*
X140589047Y-101548380D01*
X140612857Y-101524571D01*
X140612857Y-101357904D01*
X140517619Y-101357904D01*
X140827142Y-101572190D02*
X140827142Y-101072190D01*
X141112857Y-101572190D01*
X141112857Y-101072190D01*
X141350952Y-101572190D02*
X141350952Y-101072190D01*
X141470000Y-101072190D01*
X141541428Y-101096000D01*
X141589047Y-101143619D01*
X141612857Y-101191238D01*
X141636666Y-101286476D01*
X141636666Y-101357904D01*
X141612857Y-101453142D01*
X141589047Y-101500761D01*
X141541428Y-101548380D01*
X141470000Y-101572190D01*
X141350952Y-101572190D01*
X141128000Y-109932666D02*
X141094666Y-109999333D01*
X141094666Y-110099333D01*
X141128000Y-110199333D01*
X141194666Y-110266000D01*
X141261333Y-110299333D01*
X141394666Y-110332666D01*
X141494666Y-110332666D01*
X141628000Y-110299333D01*
X141694666Y-110266000D01*
X141761333Y-110199333D01*
X141794666Y-110099333D01*
X141794666Y-110032666D01*
X141761333Y-109932666D01*
X141728000Y-109899333D01*
X141494666Y-109899333D01*
X141494666Y-110032666D01*
X141794666Y-109599333D02*
X141094666Y-109599333D01*
X141794666Y-109199333D01*
X141094666Y-109199333D01*
X141794666Y-108866000D02*
X141094666Y-108866000D01*
X141094666Y-108699333D01*
X141128000Y-108599333D01*
X141194666Y-108532666D01*
X141261333Y-108499333D01*
X141394666Y-108466000D01*
X141494666Y-108466000D01*
X141628000Y-108499333D01*
X141694666Y-108532666D01*
X141761333Y-108599333D01*
X141794666Y-108699333D01*
X141794666Y-108866000D01*
X141328000Y-108166000D02*
X141528000Y-107632666D01*
X141728000Y-108166000D01*
X146911190Y-69464952D02*
X146411190Y-69464952D01*
X146411190Y-69345904D01*
X146435000Y-69274476D01*
X146482619Y-69226857D01*
X146530238Y-69203047D01*
X146625476Y-69179238D01*
X146696904Y-69179238D01*
X146792142Y-69203047D01*
X146839761Y-69226857D01*
X146887380Y-69274476D01*
X146911190Y-69345904D01*
X146911190Y-69464952D01*
X146649285Y-68798285D02*
X146673095Y-68726857D01*
X146696904Y-68703047D01*
X146744523Y-68679238D01*
X146815952Y-68679238D01*
X146863571Y-68703047D01*
X146887380Y-68726857D01*
X146911190Y-68774476D01*
X146911190Y-68964952D01*
X146411190Y-68964952D01*
X146411190Y-68798285D01*
X146435000Y-68750666D01*
X146458809Y-68726857D01*
X146506428Y-68703047D01*
X146554047Y-68703047D01*
X146601666Y-68726857D01*
X146625476Y-68750666D01*
X146649285Y-68798285D01*
X146649285Y-68964952D01*
X146435000Y-68203047D02*
X146411190Y-68250666D01*
X146411190Y-68322095D01*
X146435000Y-68393523D01*
X146482619Y-68441142D01*
X146530238Y-68464952D01*
X146625476Y-68488761D01*
X146696904Y-68488761D01*
X146792142Y-68464952D01*
X146839761Y-68441142D01*
X146887380Y-68393523D01*
X146911190Y-68322095D01*
X146911190Y-68274476D01*
X146887380Y-68203047D01*
X146863571Y-68179238D01*
X146696904Y-68179238D01*
X146696904Y-68274476D01*
X149832190Y-69155428D02*
X149832190Y-69393523D01*
X149332190Y-69393523D01*
X149570285Y-68988761D02*
X149570285Y-68822095D01*
X149832190Y-68750666D02*
X149832190Y-68988761D01*
X149332190Y-68988761D01*
X149332190Y-68750666D01*
X149832190Y-68536380D02*
X149332190Y-68536380D01*
X149332190Y-68417333D01*
X149356000Y-68345904D01*
X149403619Y-68298285D01*
X149451238Y-68274476D01*
X149546476Y-68250666D01*
X149617904Y-68250666D01*
X149713142Y-68274476D01*
X149760761Y-68298285D01*
X149808380Y-68345904D01*
X149832190Y-68417333D01*
X149832190Y-68536380D01*
X140896952Y-86823476D02*
X140496952Y-86823476D01*
X140496952Y-86556809D02*
X140496952Y-86480619D01*
X140516000Y-86442523D01*
X140554095Y-86404428D01*
X140630285Y-86385380D01*
X140763619Y-86385380D01*
X140839809Y-86404428D01*
X140877904Y-86442523D01*
X140896952Y-86480619D01*
X140896952Y-86556809D01*
X140877904Y-86594904D01*
X140839809Y-86633000D01*
X140763619Y-86652047D01*
X140630285Y-86652047D01*
X140554095Y-86633000D01*
X140516000Y-86594904D01*
X140496952Y-86556809D01*
X140896952Y-86004428D02*
X140896952Y-86233000D01*
X140896952Y-86118714D02*
X140496952Y-86118714D01*
X140554095Y-86156809D01*
X140592190Y-86194904D01*
X140611238Y-86233000D01*
X140496952Y-85661571D02*
X140496952Y-85737761D01*
X140516000Y-85775857D01*
X140535047Y-85794904D01*
X140592190Y-85833000D01*
X140668380Y-85852047D01*
X140820761Y-85852047D01*
X140858857Y-85833000D01*
X140877904Y-85813952D01*
X140896952Y-85775857D01*
X140896952Y-85699666D01*
X140877904Y-85661571D01*
X140858857Y-85642523D01*
X140820761Y-85623476D01*
X140725523Y-85623476D01*
X140687428Y-85642523D01*
X140668380Y-85661571D01*
X140649333Y-85699666D01*
X140649333Y-85775857D01*
X140668380Y-85813952D01*
X140687428Y-85833000D01*
X140725523Y-85852047D01*
X143665619Y-98224952D02*
X143665619Y-97824952D01*
X143760857Y-97824952D01*
X143818000Y-97844000D01*
X143856095Y-97882095D01*
X143875142Y-97920190D01*
X143894190Y-97996380D01*
X143894190Y-98053523D01*
X143875142Y-98129714D01*
X143856095Y-98167809D01*
X143818000Y-98205904D01*
X143760857Y-98224952D01*
X143665619Y-98224952D01*
X144065619Y-98072571D02*
X144370380Y-98072571D01*
X144218000Y-98224952D02*
X144218000Y-97920190D01*
D12*
X147597904Y-69576190D02*
X147907428Y-69576190D01*
X147740761Y-69766666D01*
X147812190Y-69766666D01*
X147859809Y-69790476D01*
X147883619Y-69814285D01*
X147907428Y-69861904D01*
X147907428Y-69980952D01*
X147883619Y-70028571D01*
X147859809Y-70052380D01*
X147812190Y-70076190D01*
X147669333Y-70076190D01*
X147621714Y-70052380D01*
X147597904Y-70028571D01*
X148121714Y-70028571D02*
X148145523Y-70052380D01*
X148121714Y-70076190D01*
X148097904Y-70052380D01*
X148121714Y-70028571D01*
X148121714Y-70076190D01*
X148312190Y-69576190D02*
X148621714Y-69576190D01*
X148455047Y-69766666D01*
X148526476Y-69766666D01*
X148574095Y-69790476D01*
X148597904Y-69814285D01*
X148621714Y-69861904D01*
X148621714Y-69980952D01*
X148597904Y-70028571D01*
X148574095Y-70052380D01*
X148526476Y-70076190D01*
X148383619Y-70076190D01*
X148336000Y-70052380D01*
X148312190Y-70028571D01*
X148764571Y-69576190D02*
X148931238Y-70076190D01*
X149097904Y-69576190D01*
D11*
X151102190Y-82442809D02*
X150864095Y-82609476D01*
X151102190Y-82728523D02*
X150602190Y-82728523D01*
X150602190Y-82538047D01*
X150626000Y-82490428D01*
X150649809Y-82466619D01*
X150697428Y-82442809D01*
X150768857Y-82442809D01*
X150816476Y-82466619D01*
X150840285Y-82490428D01*
X150864095Y-82538047D01*
X150864095Y-82728523D01*
X151078380Y-82252333D02*
X151102190Y-82180904D01*
X151102190Y-82061857D01*
X151078380Y-82014238D01*
X151054571Y-81990428D01*
X151006952Y-81966619D01*
X150959333Y-81966619D01*
X150911714Y-81990428D01*
X150887904Y-82014238D01*
X150864095Y-82061857D01*
X150840285Y-82157095D01*
X150816476Y-82204714D01*
X150792666Y-82228523D01*
X150745047Y-82252333D01*
X150697428Y-82252333D01*
X150649809Y-82228523D01*
X150626000Y-82204714D01*
X150602190Y-82157095D01*
X150602190Y-82038047D01*
X150626000Y-81966619D01*
X150602190Y-81823761D02*
X150602190Y-81538047D01*
X151102190Y-81680904D02*
X150602190Y-81680904D01*
D12*
X149248904Y-83546190D02*
X149558428Y-83546190D01*
X149391761Y-83736666D01*
X149463190Y-83736666D01*
X149510809Y-83760476D01*
X149534619Y-83784285D01*
X149558428Y-83831904D01*
X149558428Y-83950952D01*
X149534619Y-83998571D01*
X149510809Y-84022380D01*
X149463190Y-84046190D01*
X149320333Y-84046190D01*
X149272714Y-84022380D01*
X149248904Y-83998571D01*
X149772714Y-83998571D02*
X149796523Y-84022380D01*
X149772714Y-84046190D01*
X149748904Y-84022380D01*
X149772714Y-83998571D01*
X149772714Y-84046190D01*
X149963190Y-83546190D02*
X150272714Y-83546190D01*
X150106047Y-83736666D01*
X150177476Y-83736666D01*
X150225095Y-83760476D01*
X150248904Y-83784285D01*
X150272714Y-83831904D01*
X150272714Y-83950952D01*
X150248904Y-83998571D01*
X150225095Y-84022380D01*
X150177476Y-84046190D01*
X150034619Y-84046190D01*
X149987000Y-84022380D01*
X149963190Y-83998571D01*
X150415571Y-83546190D02*
X150582238Y-84046190D01*
X150748904Y-83546190D01*
D11*
X139753952Y-84156476D02*
X139353952Y-84156476D01*
X139353952Y-83889809D02*
X139353952Y-83813619D01*
X139373000Y-83775523D01*
X139411095Y-83737428D01*
X139487285Y-83718380D01*
X139620619Y-83718380D01*
X139696809Y-83737428D01*
X139734904Y-83775523D01*
X139753952Y-83813619D01*
X139753952Y-83889809D01*
X139734904Y-83927904D01*
X139696809Y-83966000D01*
X139620619Y-83985047D01*
X139487285Y-83985047D01*
X139411095Y-83966000D01*
X139373000Y-83927904D01*
X139353952Y-83889809D01*
X139753952Y-83337428D02*
X139753952Y-83566000D01*
X139753952Y-83451714D02*
X139353952Y-83451714D01*
X139411095Y-83489809D01*
X139449190Y-83527904D01*
X139468238Y-83566000D01*
X139353952Y-83204095D02*
X139353952Y-82937428D01*
X139753952Y-83108857D01*
X148463047Y-90936000D02*
X148415428Y-90912190D01*
X148344000Y-90912190D01*
X148272571Y-90936000D01*
X148224952Y-90983619D01*
X148201142Y-91031238D01*
X148177333Y-91126476D01*
X148177333Y-91197904D01*
X148201142Y-91293142D01*
X148224952Y-91340761D01*
X148272571Y-91388380D01*
X148344000Y-91412190D01*
X148391619Y-91412190D01*
X148463047Y-91388380D01*
X148486857Y-91364571D01*
X148486857Y-91197904D01*
X148391619Y-91197904D01*
X148701142Y-91412190D02*
X148701142Y-90912190D01*
X148986857Y-91412190D01*
X148986857Y-90912190D01*
X149224952Y-91412190D02*
X149224952Y-90912190D01*
X149344000Y-90912190D01*
X149415428Y-90936000D01*
X149463047Y-90983619D01*
X149486857Y-91031238D01*
X149510666Y-91126476D01*
X149510666Y-91197904D01*
X149486857Y-91293142D01*
X149463047Y-91340761D01*
X149415428Y-91388380D01*
X149344000Y-91412190D01*
X149224952Y-91412190D01*
D10*
X147756380Y-86732809D02*
X148756380Y-86066142D01*
X147756380Y-86066142D02*
X148756380Y-86732809D01*
X147756380Y-85828047D02*
X147756380Y-85256619D01*
X148756380Y-85542333D02*
X147756380Y-85542333D01*
X148470666Y-84970904D02*
X148470666Y-84494714D01*
X148756380Y-85066142D02*
X147756380Y-84732809D01*
X148756380Y-84399476D01*
X148756380Y-83589952D02*
X148756380Y-84066142D01*
X147756380Y-84066142D01*
X148756380Y-82732809D02*
X148756380Y-83304238D01*
X148756380Y-83018523D02*
X147756380Y-83018523D01*
X147899238Y-83113761D01*
X147994476Y-83209000D01*
X148042095Y-83304238D01*
X149391933Y-76229333D02*
X149491933Y-76262666D01*
X149658600Y-76262666D01*
X149725266Y-76229333D01*
X149758600Y-76196000D01*
X149791933Y-76129333D01*
X149791933Y-76062666D01*
X149758600Y-75996000D01*
X149725266Y-75962666D01*
X149658600Y-75929333D01*
X149525266Y-75896000D01*
X149458600Y-75862666D01*
X149425266Y-75829333D01*
X149391933Y-75762666D01*
X149391933Y-75696000D01*
X149425266Y-75629333D01*
X149458600Y-75596000D01*
X149525266Y-75562666D01*
X149691933Y-75562666D01*
X149791933Y-75596000D01*
X150358600Y-76229333D02*
X150291933Y-76262666D01*
X150158600Y-76262666D01*
X150091933Y-76229333D01*
X150058600Y-76162666D01*
X150058600Y-75896000D01*
X150091933Y-75829333D01*
X150158600Y-75796000D01*
X150291933Y-75796000D01*
X150358600Y-75829333D01*
X150391933Y-75896000D01*
X150391933Y-75962666D01*
X150058600Y-76029333D01*
X150691933Y-75796000D02*
X150691933Y-76262666D01*
X150691933Y-75862666D02*
X150725266Y-75829333D01*
X150791933Y-75796000D01*
X150891933Y-75796000D01*
X150958600Y-75829333D01*
X150991933Y-75896000D01*
X150991933Y-76262666D01*
X151291933Y-76229333D02*
X151358600Y-76262666D01*
X151491933Y-76262666D01*
X151558600Y-76229333D01*
X151591933Y-76162666D01*
X151591933Y-76129333D01*
X151558600Y-76062666D01*
X151491933Y-76029333D01*
X151391933Y-76029333D01*
X151325266Y-75996000D01*
X151291933Y-75929333D01*
X151291933Y-75896000D01*
X151325266Y-75829333D01*
X151391933Y-75796000D01*
X151491933Y-75796000D01*
X151558600Y-75829333D01*
X151991933Y-76262666D02*
X151925266Y-76229333D01*
X151891933Y-76196000D01*
X151858600Y-76129333D01*
X151858600Y-75929333D01*
X151891933Y-75862666D01*
X151925266Y-75829333D01*
X151991933Y-75796000D01*
X152091933Y-75796000D01*
X152158600Y-75829333D01*
X152191933Y-75862666D01*
X152225266Y-75929333D01*
X152225266Y-76129333D01*
X152191933Y-76196000D01*
X152158600Y-76229333D01*
X152091933Y-76262666D01*
X151991933Y-76262666D01*
X152525266Y-76262666D02*
X152525266Y-75796000D01*
X152525266Y-75929333D02*
X152558600Y-75862666D01*
X152591933Y-75829333D01*
X152658600Y-75796000D01*
X152725266Y-75796000D01*
X152891933Y-75562666D02*
X153325266Y-75562666D01*
X153091933Y-75829333D01*
X153191933Y-75829333D01*
X153258600Y-75862666D01*
X153291933Y-75896000D01*
X153325266Y-75962666D01*
X153325266Y-76129333D01*
X153291933Y-76196000D01*
X153258600Y-76229333D01*
X153191933Y-76262666D01*
X152991933Y-76262666D01*
X152925266Y-76229333D01*
X152891933Y-76196000D01*
X140908333Y-75975333D02*
X141008333Y-76008666D01*
X141175000Y-76008666D01*
X141241666Y-75975333D01*
X141275000Y-75942000D01*
X141308333Y-75875333D01*
X141308333Y-75808666D01*
X141275000Y-75742000D01*
X141241666Y-75708666D01*
X141175000Y-75675333D01*
X141041666Y-75642000D01*
X140975000Y-75608666D01*
X140941666Y-75575333D01*
X140908333Y-75508666D01*
X140908333Y-75442000D01*
X140941666Y-75375333D01*
X140975000Y-75342000D01*
X141041666Y-75308666D01*
X141208333Y-75308666D01*
X141308333Y-75342000D01*
X141875000Y-75975333D02*
X141808333Y-76008666D01*
X141675000Y-76008666D01*
X141608333Y-75975333D01*
X141575000Y-75908666D01*
X141575000Y-75642000D01*
X141608333Y-75575333D01*
X141675000Y-75542000D01*
X141808333Y-75542000D01*
X141875000Y-75575333D01*
X141908333Y-75642000D01*
X141908333Y-75708666D01*
X141575000Y-75775333D01*
X142208333Y-75542000D02*
X142208333Y-76008666D01*
X142208333Y-75608666D02*
X142241666Y-75575333D01*
X142308333Y-75542000D01*
X142408333Y-75542000D01*
X142475000Y-75575333D01*
X142508333Y-75642000D01*
X142508333Y-76008666D01*
X142808333Y-75975333D02*
X142875000Y-76008666D01*
X143008333Y-76008666D01*
X143075000Y-75975333D01*
X143108333Y-75908666D01*
X143108333Y-75875333D01*
X143075000Y-75808666D01*
X143008333Y-75775333D01*
X142908333Y-75775333D01*
X142841666Y-75742000D01*
X142808333Y-75675333D01*
X142808333Y-75642000D01*
X142841666Y-75575333D01*
X142908333Y-75542000D01*
X143008333Y-75542000D01*
X143075000Y-75575333D01*
X143508333Y-76008666D02*
X143441666Y-75975333D01*
X143408333Y-75942000D01*
X143375000Y-75875333D01*
X143375000Y-75675333D01*
X143408333Y-75608666D01*
X143441666Y-75575333D01*
X143508333Y-75542000D01*
X143608333Y-75542000D01*
X143675000Y-75575333D01*
X143708333Y-75608666D01*
X143741666Y-75675333D01*
X143741666Y-75875333D01*
X143708333Y-75942000D01*
X143675000Y-75975333D01*
X143608333Y-76008666D01*
X143508333Y-76008666D01*
X144041666Y-76008666D02*
X144041666Y-75542000D01*
X144041666Y-75675333D02*
X144075000Y-75608666D01*
X144108333Y-75575333D01*
X144175000Y-75542000D01*
X144241666Y-75542000D01*
X144608333Y-75308666D02*
X144675000Y-75308666D01*
X144741666Y-75342000D01*
X144775000Y-75375333D01*
X144808333Y-75442000D01*
X144841666Y-75575333D01*
X144841666Y-75742000D01*
X144808333Y-75875333D01*
X144775000Y-75942000D01*
X144741666Y-75975333D01*
X144675000Y-76008666D01*
X144608333Y-76008666D01*
X144541666Y-75975333D01*
X144508333Y-75942000D01*
X144475000Y-75875333D01*
X144441666Y-75742000D01*
X144441666Y-75575333D01*
X144475000Y-75442000D01*
X144508333Y-75375333D01*
X144541666Y-75342000D01*
X144608333Y-75308666D01*
X149417333Y-70768333D02*
X149517333Y-70801666D01*
X149684000Y-70801666D01*
X149750666Y-70768333D01*
X149784000Y-70735000D01*
X149817333Y-70668333D01*
X149817333Y-70601666D01*
X149784000Y-70535000D01*
X149750666Y-70501666D01*
X149684000Y-70468333D01*
X149550666Y-70435000D01*
X149484000Y-70401666D01*
X149450666Y-70368333D01*
X149417333Y-70301666D01*
X149417333Y-70235000D01*
X149450666Y-70168333D01*
X149484000Y-70135000D01*
X149550666Y-70101666D01*
X149717333Y-70101666D01*
X149817333Y-70135000D01*
X150384000Y-70768333D02*
X150317333Y-70801666D01*
X150184000Y-70801666D01*
X150117333Y-70768333D01*
X150084000Y-70701666D01*
X150084000Y-70435000D01*
X150117333Y-70368333D01*
X150184000Y-70335000D01*
X150317333Y-70335000D01*
X150384000Y-70368333D01*
X150417333Y-70435000D01*
X150417333Y-70501666D01*
X150084000Y-70568333D01*
X150717333Y-70335000D02*
X150717333Y-70801666D01*
X150717333Y-70401666D02*
X150750666Y-70368333D01*
X150817333Y-70335000D01*
X150917333Y-70335000D01*
X150984000Y-70368333D01*
X151017333Y-70435000D01*
X151017333Y-70801666D01*
X151317333Y-70768333D02*
X151384000Y-70801666D01*
X151517333Y-70801666D01*
X151584000Y-70768333D01*
X151617333Y-70701666D01*
X151617333Y-70668333D01*
X151584000Y-70601666D01*
X151517333Y-70568333D01*
X151417333Y-70568333D01*
X151350666Y-70535000D01*
X151317333Y-70468333D01*
X151317333Y-70435000D01*
X151350666Y-70368333D01*
X151417333Y-70335000D01*
X151517333Y-70335000D01*
X151584000Y-70368333D01*
X152017333Y-70801666D02*
X151950666Y-70768333D01*
X151917333Y-70735000D01*
X151884000Y-70668333D01*
X151884000Y-70468333D01*
X151917333Y-70401666D01*
X151950666Y-70368333D01*
X152017333Y-70335000D01*
X152117333Y-70335000D01*
X152184000Y-70368333D01*
X152217333Y-70401666D01*
X152250666Y-70468333D01*
X152250666Y-70668333D01*
X152217333Y-70735000D01*
X152184000Y-70768333D01*
X152117333Y-70801666D01*
X152017333Y-70801666D01*
X152550666Y-70801666D02*
X152550666Y-70335000D01*
X152550666Y-70468333D02*
X152584000Y-70401666D01*
X152617333Y-70368333D01*
X152684000Y-70335000D01*
X152750666Y-70335000D01*
X153350666Y-70801666D02*
X152950666Y-70801666D01*
X153150666Y-70801666D02*
X153150666Y-70101666D01*
X153084000Y-70201666D01*
X153017333Y-70268333D01*
X152950666Y-70301666D01*
X141060733Y-81563333D02*
X141160733Y-81596666D01*
X141327400Y-81596666D01*
X141394066Y-81563333D01*
X141427400Y-81530000D01*
X141460733Y-81463333D01*
X141460733Y-81396666D01*
X141427400Y-81330000D01*
X141394066Y-81296666D01*
X141327400Y-81263333D01*
X141194066Y-81230000D01*
X141127400Y-81196666D01*
X141094066Y-81163333D01*
X141060733Y-81096666D01*
X141060733Y-81030000D01*
X141094066Y-80963333D01*
X141127400Y-80930000D01*
X141194066Y-80896666D01*
X141360733Y-80896666D01*
X141460733Y-80930000D01*
X142027400Y-81563333D02*
X141960733Y-81596666D01*
X141827400Y-81596666D01*
X141760733Y-81563333D01*
X141727400Y-81496666D01*
X141727400Y-81230000D01*
X141760733Y-81163333D01*
X141827400Y-81130000D01*
X141960733Y-81130000D01*
X142027400Y-81163333D01*
X142060733Y-81230000D01*
X142060733Y-81296666D01*
X141727400Y-81363333D01*
X142360733Y-81130000D02*
X142360733Y-81596666D01*
X142360733Y-81196666D02*
X142394066Y-81163333D01*
X142460733Y-81130000D01*
X142560733Y-81130000D01*
X142627400Y-81163333D01*
X142660733Y-81230000D01*
X142660733Y-81596666D01*
X142960733Y-81563333D02*
X143027400Y-81596666D01*
X143160733Y-81596666D01*
X143227400Y-81563333D01*
X143260733Y-81496666D01*
X143260733Y-81463333D01*
X143227400Y-81396666D01*
X143160733Y-81363333D01*
X143060733Y-81363333D01*
X142994066Y-81330000D01*
X142960733Y-81263333D01*
X142960733Y-81230000D01*
X142994066Y-81163333D01*
X143060733Y-81130000D01*
X143160733Y-81130000D01*
X143227400Y-81163333D01*
X143660733Y-81596666D02*
X143594066Y-81563333D01*
X143560733Y-81530000D01*
X143527400Y-81463333D01*
X143527400Y-81263333D01*
X143560733Y-81196666D01*
X143594066Y-81163333D01*
X143660733Y-81130000D01*
X143760733Y-81130000D01*
X143827400Y-81163333D01*
X143860733Y-81196666D01*
X143894066Y-81263333D01*
X143894066Y-81463333D01*
X143860733Y-81530000D01*
X143827400Y-81563333D01*
X143760733Y-81596666D01*
X143660733Y-81596666D01*
X144194066Y-81596666D02*
X144194066Y-81130000D01*
X144194066Y-81263333D02*
X144227400Y-81196666D01*
X144260733Y-81163333D01*
X144327400Y-81130000D01*
X144394066Y-81130000D01*
X144594066Y-80963333D02*
X144627400Y-80930000D01*
X144694066Y-80896666D01*
X144860733Y-80896666D01*
X144927400Y-80930000D01*
X144960733Y-80963333D01*
X144994066Y-81030000D01*
X144994066Y-81096666D01*
X144960733Y-81196666D01*
X144560733Y-81596666D01*
X144994066Y-81596666D01*
D13*
X147454000Y-83359000D02*
X145154000Y-83359000D01*
X145154000Y-83359000D02*
X145154000Y-86059000D01*
X148315000Y-92857836D02*
X148315000Y-92642164D01*
X149035000Y-92857836D02*
X149035000Y-92642164D01*
X155086800Y-83924000D02*
X155086800Y-83824000D01*
X155086800Y-81684000D02*
X151846800Y-81684000D01*
X151846800Y-81784000D02*
X151846800Y-81684000D01*
X151846800Y-83924000D02*
X151846800Y-83824000D01*
X155086800Y-83924000D02*
X151846800Y-83924000D01*
X155086800Y-81784000D02*
X155086800Y-81684000D01*
X144674000Y-97428164D02*
X144674000Y-97643836D01*
X145394000Y-97428164D02*
X145394000Y-97643836D01*
X144378000Y-83673836D02*
X144378000Y-83458164D01*
X143658000Y-83673836D02*
X143658000Y-83458164D01*
X151080000Y-69656000D02*
X150205000Y-69656000D01*
X150205000Y-68266000D02*
X150205000Y-68566507D01*
X150205000Y-69355493D02*
X150205000Y-69656000D01*
X151765000Y-68266000D02*
X152450000Y-68266000D01*
X151080000Y-68266000D02*
X151080000Y-68352724D01*
X151080000Y-69569276D02*
X151080000Y-69656000D01*
X151080000Y-68266000D02*
X150205000Y-68266000D01*
X152450000Y-68266000D02*
X152450000Y-68961000D01*
X148230000Y-85832836D02*
X148230000Y-85617164D01*
X148950000Y-85832836D02*
X148950000Y-85617164D01*
X143638000Y-85624641D02*
X143638000Y-85317359D01*
X144398000Y-85624641D02*
X144398000Y-85317359D01*
X141457000Y-96285164D02*
X141457000Y-96500836D01*
X140737000Y-96285164D02*
X140737000Y-96500836D01*
X154468600Y-78653000D02*
X154468600Y-77503000D01*
X153298600Y-80623000D02*
X149418600Y-80623000D01*
X153418600Y-77503000D02*
X153418600Y-76513000D01*
X154468600Y-77503000D02*
X153418600Y-77503000D01*
X148248600Y-78653000D02*
X148248600Y-77503000D01*
X148248600Y-77503000D02*
X149298600Y-77503000D01*
X138832000Y-89642836D02*
X138832000Y-89427164D01*
X139552000Y-89642836D02*
X139552000Y-89427164D01*
X138832000Y-93198836D02*
X138832000Y-92983164D01*
X139552000Y-93198836D02*
X139552000Y-92983164D01*
X141062000Y-71091200D02*
X144942000Y-71091200D01*
X146112000Y-73061200D02*
X146112000Y-74211200D01*
X146112000Y-74211200D02*
X145062000Y-74211200D01*
X140942000Y-74211200D02*
X140942000Y-75201200D01*
X139892000Y-74211200D02*
X140942000Y-74211200D01*
X139892000Y-73061200D02*
X139892000Y-74211200D01*
X154560359Y-84962000D02*
X154867641Y-84962000D01*
X154560359Y-84202000D02*
X154867641Y-84202000D01*
X142620000Y-106431000D02*
X142620000Y-108431000D01*
X152020000Y-106431000D02*
X152020000Y-108431000D01*
X142620000Y-110331000D02*
X142620000Y-112231000D01*
X152020000Y-110331000D02*
X152020000Y-112231000D01*
X142620000Y-112231000D02*
X152020000Y-112231000D01*
X146100000Y-68240600D02*
X146100000Y-68935600D01*
X144730000Y-68240600D02*
X141855000Y-68240600D01*
X144730000Y-69543876D02*
X144730000Y-69630600D01*
X141855000Y-69330093D02*
X141855000Y-69630600D01*
X141855000Y-68240600D02*
X141855000Y-68541107D01*
X144730000Y-68240600D02*
X144730000Y-68327324D01*
X144730000Y-69630600D02*
X141855000Y-69630600D01*
X145415000Y-68240600D02*
X146100000Y-68240600D01*
X148950000Y-89416836D02*
X148950000Y-89201164D01*
X148230000Y-89416836D02*
X148230000Y-89201164D01*
X139721000Y-96285164D02*
X139721000Y-96500836D01*
X140441000Y-96285164D02*
X140441000Y-96500836D01*
X138705000Y-96285164D02*
X138705000Y-96500836D01*
X139425000Y-96285164D02*
X139425000Y-96500836D01*
X143029000Y-101023748D02*
X143029000Y-101546252D01*
X144499000Y-101023748D02*
X144499000Y-101546252D01*
X143130000Y-96546641D02*
X143130000Y-96239359D01*
X143890000Y-96546641D02*
X143890000Y-96239359D01*
X148274000Y-73141200D02*
X148274000Y-71991200D01*
X153444000Y-71991200D02*
X153444000Y-71001200D01*
X154494000Y-73141200D02*
X154494000Y-71991200D01*
X154494000Y-71991200D02*
X153444000Y-71991200D01*
X153324000Y-75111200D02*
X149444000Y-75111200D01*
X148274000Y-71991200D02*
X149324000Y-71991200D01*
X154913000Y-105402748D02*
X154913000Y-105925252D01*
X153443000Y-105402748D02*
X153443000Y-105925252D01*
X152627359Y-84202000D02*
X152934641Y-84202000D01*
X152627359Y-84962000D02*
X152934641Y-84962000D01*
X141626000Y-84689836D02*
X141626000Y-84474164D01*
X142346000Y-84689836D02*
X142346000Y-84474164D01*
X153167000Y-96031000D02*
X153167000Y-97291000D01*
X149407000Y-102851000D02*
X153167000Y-102851000D01*
X147157000Y-96031000D02*
X153167000Y-96031000D01*
X153167000Y-102851000D02*
X153167000Y-101591000D01*
X140967400Y-79697600D02*
X140967400Y-80687600D01*
X141087400Y-76577600D02*
X144967400Y-76577600D01*
X146137400Y-78547600D02*
X146137400Y-79697600D01*
X139917400Y-79697600D02*
X140967400Y-79697600D01*
X146137400Y-79697600D02*
X145087400Y-79697600D01*
X139917400Y-78547600D02*
X139917400Y-79697600D01*
X150056000Y-90170000D02*
X150056000Y-87445000D01*
X155246000Y-87445000D02*
X155246000Y-85770000D01*
X155506000Y-90170000D02*
X155506000Y-87445000D01*
X150056000Y-92895000D02*
X150316000Y-92895000D01*
X150056000Y-90170000D02*
X150056000Y-92895000D01*
X150056000Y-87445000D02*
X150316000Y-87445000D01*
X155506000Y-92895000D02*
X155246000Y-92895000D01*
X155506000Y-90170000D02*
X155506000Y-92895000D01*
X155506000Y-87445000D02*
X155246000Y-87445000D01*
X142747000Y-96546641D02*
X142747000Y-96239359D01*
X141987000Y-96546641D02*
X141987000Y-96239359D01*
X146537000Y-97456164D02*
X146537000Y-97671836D01*
X145817000Y-97456164D02*
X145817000Y-97671836D01*
X146851000Y-87449000D02*
X147501000Y-87449000D01*
X147501000Y-87449000D02*
X147501000Y-88099000D01*
X140281000Y-87449000D02*
X140281000Y-88099000D01*
X140931000Y-87449000D02*
X140281000Y-87449000D01*
X146851000Y-94669000D02*
X147501000Y-94669000D01*
X140281000Y-94669000D02*
X140281000Y-94019000D01*
X140931000Y-94669000D02*
X140281000Y-94669000D01*
X140814359Y-101982000D02*
X141121641Y-101982000D01*
X140814359Y-102742000D02*
X141121641Y-102742000D01*
X154844636Y-95686200D02*
X154628964Y-95686200D01*
X154844636Y-94966200D02*
X154628964Y-94966200D01*
X145061000Y-101546252D02*
X145061000Y-101023748D01*
X146531000Y-101546252D02*
X146531000Y-101023748D01*
X143362000Y-84689836D02*
X143362000Y-84474164D01*
X142642000Y-84689836D02*
X142642000Y-84474164D01*
X141123641Y-102998000D02*
X140816359Y-102998000D01*
X141123641Y-103758000D02*
X140816359Y-103758000D01*
D14*
X139446000Y-68707000D03*
X139446000Y-109347000D03*
X154686000Y-109347000D03*
X154686000Y-68707000D03*
%LPC*%
D15*
X145754000Y-84009000D03*
X145754000Y-85409000D03*
X146854000Y-85409000D03*
X146854000Y-84009000D03*
D14*
X139446000Y-68707000D03*
X139446000Y-109347000D03*
X154686000Y-109347000D03*
X154686000Y-68707000D03*
D16*
X148675000Y-93230000D03*
X148675000Y-92270000D03*
D17*
X155091800Y-82804000D03*
X151841800Y-82804000D03*
D18*
X145034000Y-97056000D03*
X145034000Y-98016000D03*
D16*
X144018000Y-84046000D03*
X144018000Y-83086000D03*
D19*
X151765000Y-68961000D03*
D20*
X150765000Y-68961000D03*
D16*
X148590000Y-86205000D03*
X148590000Y-85245000D03*
D21*
X144018000Y-85981000D03*
X144018000Y-84961000D03*
D18*
X141097000Y-95913000D03*
X141097000Y-96873000D03*
D22*
X152858600Y-77288000D03*
X151858600Y-77288000D03*
X150858600Y-77288000D03*
X149858600Y-77288000D03*
D23*
X148558600Y-79813000D03*
X154158600Y-79813000D03*
D16*
X139192000Y-90015000D03*
X139192000Y-89055000D03*
X139192000Y-93571000D03*
X139192000Y-92611000D03*
D24*
X141502000Y-74426200D03*
X142502000Y-74426200D03*
X143502000Y-74426200D03*
X144502000Y-74426200D03*
D25*
X145802000Y-71901200D03*
X140202000Y-71901200D03*
D26*
X154204000Y-84582000D03*
X155224000Y-84582000D03*
D27*
X150210000Y-105731000D03*
X144430000Y-105731000D03*
D28*
X144070000Y-104286000D03*
X144870000Y-104286000D03*
D29*
X146070000Y-104286000D03*
X147070000Y-104286000D03*
X147570000Y-104286000D03*
X148570000Y-104286000D03*
D28*
X149770000Y-104286000D03*
X150570000Y-104286000D03*
X150570000Y-104286000D03*
X149770000Y-104286000D03*
D29*
X149070000Y-104286000D03*
X148070000Y-104286000D03*
X146570000Y-104286000D03*
X145570000Y-104286000D03*
D28*
X144870000Y-104286000D03*
X144070000Y-104286000D03*
D30*
X143000000Y-105201000D03*
D31*
X151640000Y-109381000D03*
X143000000Y-109381000D03*
D30*
X151640000Y-105201000D03*
D19*
X145415000Y-68935600D03*
D20*
X144415000Y-68935600D03*
X143415000Y-68935600D03*
X142415000Y-68935600D03*
D16*
X148590000Y-89789000D03*
X148590000Y-88829000D03*
D18*
X140081000Y-95913000D03*
X140081000Y-96873000D03*
X139065000Y-95913000D03*
X139065000Y-96873000D03*
D32*
X143764000Y-100335000D03*
X143764000Y-102235000D03*
D21*
X143510000Y-96903000D03*
X143510000Y-95883000D03*
D22*
X152884000Y-71776200D03*
X151884000Y-71776200D03*
X150884000Y-71776200D03*
X149884000Y-71776200D03*
D23*
X154184000Y-74301200D03*
X148584000Y-74301200D03*
D32*
X154178000Y-104714000D03*
X154178000Y-106614000D03*
D26*
X152271000Y-84582000D03*
X153291000Y-84582000D03*
D16*
X141986000Y-85062000D03*
X141986000Y-84102000D03*
D33*
X148107000Y-97141000D03*
X148107000Y-99441000D03*
D34*
X154407000Y-99441000D03*
D33*
X148107000Y-101741000D03*
D24*
X141527400Y-79912600D03*
X142527400Y-79912600D03*
X143527400Y-79912600D03*
X144527400Y-79912600D03*
D25*
X145827400Y-77387600D03*
X140227400Y-77387600D03*
D35*
X154686000Y-86570000D03*
X153416000Y-86570000D03*
X152146000Y-86570000D03*
X150876000Y-86570000D03*
X150876000Y-93770000D03*
X152146000Y-93770000D03*
X153416000Y-93770000D03*
X154686000Y-93770000D03*
D21*
X142367000Y-96903000D03*
X142367000Y-95883000D03*
D18*
X146177000Y-97084000D03*
X146177000Y-98044000D03*
D36*
X147328500Y-93659000D03*
X147328500Y-93259000D03*
X147328500Y-92859000D03*
X147328500Y-92459000D03*
X147328500Y-92059000D03*
X147328500Y-91659000D03*
X147328500Y-91259000D03*
X147328500Y-90859000D03*
X147328500Y-90459000D03*
X147328500Y-90059000D03*
X147328500Y-89659000D03*
X147328500Y-89259000D03*
X147328500Y-88859000D03*
X147328500Y-88459000D03*
D37*
X146491000Y-87621500D03*
X146091000Y-87621500D03*
X145691000Y-87621500D03*
X145291000Y-87621500D03*
X144891000Y-87621500D03*
X144491000Y-87621500D03*
X144091000Y-87621500D03*
X143691000Y-87621500D03*
X143291000Y-87621500D03*
X142891000Y-87621500D03*
X142491000Y-87621500D03*
X142091000Y-87621500D03*
X141691000Y-87621500D03*
X141291000Y-87621500D03*
D36*
X140453500Y-88459000D03*
X140453500Y-88859000D03*
X140453500Y-89259000D03*
X140453500Y-89659000D03*
X140453500Y-90059000D03*
X140453500Y-90459000D03*
X140453500Y-90859000D03*
X140453500Y-91259000D03*
X140453500Y-91659000D03*
X140453500Y-92059000D03*
X140453500Y-92459000D03*
X140453500Y-92859000D03*
X140453500Y-93259000D03*
X140453500Y-93659000D03*
D37*
X141291000Y-94496500D03*
X141691000Y-94496500D03*
X142091000Y-94496500D03*
X142491000Y-94496500D03*
X142891000Y-94496500D03*
X143291000Y-94496500D03*
X143691000Y-94496500D03*
X144091000Y-94496500D03*
X144491000Y-94496500D03*
X144891000Y-94496500D03*
X145291000Y-94496500D03*
X145691000Y-94496500D03*
X146091000Y-94496500D03*
X146491000Y-94496500D03*
D38*
X143891000Y-91059000D03*
D26*
X140458000Y-102362000D03*
X141478000Y-102362000D03*
D39*
X155216800Y-95326200D03*
X154256800Y-95326200D03*
D40*
X145796000Y-102235000D03*
X145796000Y-100335000D03*
D16*
X143002000Y-85062000D03*
X143002000Y-84102000D03*
D41*
X141480000Y-103378000D03*
X140460000Y-103378000D03*
M02*
