G04 #@! TF.GenerationSoftware,KiCad,Pcbnew,(6.0.6)*
G04 #@! TF.CreationDate,2022-07-14T08:26:48+02:00*
G04 #@! TF.ProjectId,hs3-arduino-nano,6873332d-6172-4647-9569-6e6f2d6e616e,rev?*
G04 #@! TF.SameCoordinates,Original*
G04 #@! TF.FileFunction,Copper,L1,Top*
G04 #@! TF.FilePolarity,Positive*
%FSLAX46Y46*%
G04 Gerber Fmt 4.6, Leading zero omitted, Abs format (unit mm)*
G04 Created by KiCad (PCBNEW (6.0.6)) date 2022-07-14 08:26:48*
%MOMM*%
%LPD*%
G01*
G04 APERTURE LIST*
G04 Aperture macros list*
%AMRoundRect*
0 Rectangle with rounded corners*
0 $1 Rounding radius*
0 $2 $3 $4 $5 $6 $7 $8 $9 X,Y pos of 4 corners*
0 Add a 4 corners polygon primitive as box body*
4,1,4,$2,$3,$4,$5,$6,$7,$8,$9,$2,$3,0*
0 Add four circle primitives for the rounded corners*
1,1,$1+$1,$2,$3*
1,1,$1+$1,$4,$5*
1,1,$1+$1,$6,$7*
1,1,$1+$1,$8,$9*
0 Add four rect primitives between the rounded corners*
20,1,$1+$1,$2,$3,$4,$5,0*
20,1,$1+$1,$4,$5,$6,$7,0*
20,1,$1+$1,$6,$7,$8,$9,0*
20,1,$1+$1,$8,$9,$2,$3,0*%
G04 Aperture macros list end*
G04 #@! TA.AperFunction,SMDPad,CuDef*
%ADD10R,0.800000X0.900000*%
G04 #@! TD*
G04 #@! TA.AperFunction,ComponentPad*
%ADD11C,2.540000*%
G04 #@! TD*
G04 #@! TA.AperFunction,SMDPad,CuDef*
%ADD12RoundRect,0.140000X0.170000X-0.140000X0.170000X0.140000X-0.170000X0.140000X-0.170000X-0.140000X0*%
G04 #@! TD*
G04 #@! TA.AperFunction,SMDPad,CuDef*
%ADD13R,0.550000X1.500000*%
G04 #@! TD*
G04 #@! TA.AperFunction,SMDPad,CuDef*
%ADD14RoundRect,0.140000X-0.170000X0.140000X-0.170000X-0.140000X0.170000X-0.140000X0.170000X0.140000X0*%
G04 #@! TD*
G04 #@! TA.AperFunction,ComponentPad*
%ADD15R,0.850000X0.850000*%
G04 #@! TD*
G04 #@! TA.AperFunction,ComponentPad*
%ADD16O,0.850000X0.850000*%
G04 #@! TD*
G04 #@! TA.AperFunction,SMDPad,CuDef*
%ADD17RoundRect,0.135000X0.185000X-0.135000X0.185000X0.135000X-0.185000X0.135000X-0.185000X-0.135000X0*%
G04 #@! TD*
G04 #@! TA.AperFunction,SMDPad,CuDef*
%ADD18RoundRect,0.150000X0.150000X0.625000X-0.150000X0.625000X-0.150000X-0.625000X0.150000X-0.625000X0*%
G04 #@! TD*
G04 #@! TA.AperFunction,SMDPad,CuDef*
%ADD19RoundRect,0.250000X0.350000X0.650000X-0.350000X0.650000X-0.350000X-0.650000X0.350000X-0.650000X0*%
G04 #@! TD*
G04 #@! TA.AperFunction,SMDPad,CuDef*
%ADD20RoundRect,0.150000X-0.150000X-0.625000X0.150000X-0.625000X0.150000X0.625000X-0.150000X0.625000X0*%
G04 #@! TD*
G04 #@! TA.AperFunction,SMDPad,CuDef*
%ADD21RoundRect,0.250000X-0.350000X-0.650000X0.350000X-0.650000X0.350000X0.650000X-0.350000X0.650000X0*%
G04 #@! TD*
G04 #@! TA.AperFunction,SMDPad,CuDef*
%ADD22RoundRect,0.135000X-0.135000X-0.185000X0.135000X-0.185000X0.135000X0.185000X-0.135000X0.185000X0*%
G04 #@! TD*
G04 #@! TA.AperFunction,SMDPad,CuDef*
%ADD23R,0.600000X1.450000*%
G04 #@! TD*
G04 #@! TA.AperFunction,SMDPad,CuDef*
%ADD24R,0.300000X1.450000*%
G04 #@! TD*
G04 #@! TA.AperFunction,ComponentPad*
%ADD25O,1.000000X2.100000*%
G04 #@! TD*
G04 #@! TA.AperFunction,ComponentPad*
%ADD26O,1.000000X1.600000*%
G04 #@! TD*
G04 #@! TA.AperFunction,SMDPad,CuDef*
%ADD27RoundRect,0.250000X-0.475000X0.250000X-0.475000X-0.250000X0.475000X-0.250000X0.475000X0.250000X0*%
G04 #@! TD*
G04 #@! TA.AperFunction,SMDPad,CuDef*
%ADD28R,2.000000X1.500000*%
G04 #@! TD*
G04 #@! TA.AperFunction,SMDPad,CuDef*
%ADD29R,2.000000X3.800000*%
G04 #@! TD*
G04 #@! TA.AperFunction,SMDPad,CuDef*
%ADD30RoundRect,0.150000X-0.150000X0.650000X-0.150000X-0.650000X0.150000X-0.650000X0.150000X0.650000X0*%
G04 #@! TD*
G04 #@! TA.AperFunction,SMDPad,CuDef*
%ADD31RoundRect,0.050000X0.387500X0.050000X-0.387500X0.050000X-0.387500X-0.050000X0.387500X-0.050000X0*%
G04 #@! TD*
G04 #@! TA.AperFunction,SMDPad,CuDef*
%ADD32RoundRect,0.050000X0.050000X0.387500X-0.050000X0.387500X-0.050000X-0.387500X0.050000X-0.387500X0*%
G04 #@! TD*
G04 #@! TA.AperFunction,ComponentPad*
%ADD33C,0.600000*%
G04 #@! TD*
G04 #@! TA.AperFunction,SMDPad,CuDef*
%ADD34RoundRect,0.144000X1.456000X1.456000X-1.456000X1.456000X-1.456000X-1.456000X1.456000X-1.456000X0*%
G04 #@! TD*
G04 #@! TA.AperFunction,SMDPad,CuDef*
%ADD35RoundRect,0.140000X0.140000X0.170000X-0.140000X0.170000X-0.140000X-0.170000X0.140000X-0.170000X0*%
G04 #@! TD*
G04 #@! TA.AperFunction,SMDPad,CuDef*
%ADD36RoundRect,0.250000X0.475000X-0.250000X0.475000X0.250000X-0.475000X0.250000X-0.475000X-0.250000X0*%
G04 #@! TD*
G04 #@! TA.AperFunction,SMDPad,CuDef*
%ADD37RoundRect,0.135000X0.135000X0.185000X-0.135000X0.185000X-0.135000X-0.185000X0.135000X-0.185000X0*%
G04 #@! TD*
G04 #@! TA.AperFunction,ViaPad*
%ADD38C,0.400000*%
G04 #@! TD*
G04 #@! TA.AperFunction,ViaPad*
%ADD39C,0.600000*%
G04 #@! TD*
G04 #@! TA.AperFunction,ViaPad*
%ADD40C,0.800000*%
G04 #@! TD*
G04 #@! TA.AperFunction,Conductor*
%ADD41C,0.200000*%
G04 #@! TD*
G04 #@! TA.AperFunction,Conductor*
%ADD42C,0.400000*%
G04 #@! TD*
G04 #@! TA.AperFunction,Conductor*
%ADD43C,0.127000*%
G04 #@! TD*
G04 #@! TA.AperFunction,Conductor*
%ADD44C,0.600000*%
G04 #@! TD*
G04 #@! TA.AperFunction,Conductor*
%ADD45C,0.350000*%
G04 #@! TD*
G04 APERTURE END LIST*
D10*
X145754000Y-84009000D03*
X145754000Y-85409000D03*
X146854000Y-85409000D03*
X146854000Y-84009000D03*
D11*
X139446000Y-68707000D03*
X139446000Y-109347000D03*
X154686000Y-109347000D03*
X154686000Y-68707000D03*
D12*
X148675000Y-93230000D03*
X148675000Y-92270000D03*
D13*
X155091800Y-82804000D03*
X151841800Y-82804000D03*
D14*
X145034000Y-97056000D03*
X145034000Y-98016000D03*
D12*
X144018000Y-84046000D03*
X144018000Y-83086000D03*
D15*
X151765000Y-68961000D03*
D16*
X150765000Y-68961000D03*
D12*
X148590000Y-86205000D03*
X148590000Y-85245000D03*
D17*
X144018000Y-85981000D03*
X144018000Y-84961000D03*
D14*
X141097000Y-95913000D03*
X141097000Y-96873000D03*
D18*
X152858600Y-77288000D03*
X151858600Y-77288000D03*
X150858600Y-77288000D03*
X149858600Y-77288000D03*
D19*
X148558600Y-79813000D03*
X154158600Y-79813000D03*
D12*
X139192000Y-90015000D03*
X139192000Y-89055000D03*
X139192000Y-93571000D03*
X139192000Y-92611000D03*
D20*
X141502000Y-74426200D03*
X142502000Y-74426200D03*
X143502000Y-74426200D03*
X144502000Y-74426200D03*
D21*
X145802000Y-71901200D03*
X140202000Y-71901200D03*
D22*
X154204000Y-84582000D03*
X155224000Y-84582000D03*
D23*
X144070000Y-104286000D03*
X144870000Y-104286000D03*
D24*
X146070000Y-104286000D03*
X147070000Y-104286000D03*
X147570000Y-104286000D03*
X148570000Y-104286000D03*
D23*
X149770000Y-104286000D03*
X150570000Y-104286000D03*
X150570000Y-104286000D03*
X149770000Y-104286000D03*
D24*
X149070000Y-104286000D03*
X148070000Y-104286000D03*
X146570000Y-104286000D03*
X145570000Y-104286000D03*
D23*
X144870000Y-104286000D03*
X144070000Y-104286000D03*
D25*
X143000000Y-105201000D03*
D26*
X151640000Y-109381000D03*
X143000000Y-109381000D03*
D25*
X151640000Y-105201000D03*
D15*
X145415000Y-68935600D03*
D16*
X144415000Y-68935600D03*
X143415000Y-68935600D03*
X142415000Y-68935600D03*
D12*
X148590000Y-89789000D03*
X148590000Y-88829000D03*
D14*
X140081000Y-95913000D03*
X140081000Y-96873000D03*
X139065000Y-95913000D03*
X139065000Y-96873000D03*
D27*
X143764000Y-100335000D03*
X143764000Y-102235000D03*
D17*
X143510000Y-96903000D03*
X143510000Y-95883000D03*
D18*
X152884000Y-71776200D03*
X151884000Y-71776200D03*
X150884000Y-71776200D03*
X149884000Y-71776200D03*
D19*
X154184000Y-74301200D03*
X148584000Y-74301200D03*
D27*
X154178000Y-104714000D03*
X154178000Y-106614000D03*
D22*
X152271000Y-84582000D03*
X153291000Y-84582000D03*
D12*
X141986000Y-85062000D03*
X141986000Y-84102000D03*
D28*
X148107000Y-97141000D03*
X148107000Y-99441000D03*
D29*
X154407000Y-99441000D03*
D28*
X148107000Y-101741000D03*
D20*
X141527400Y-79912600D03*
X142527400Y-79912600D03*
X143527400Y-79912600D03*
X144527400Y-79912600D03*
D21*
X145827400Y-77387600D03*
X140227400Y-77387600D03*
D30*
X154686000Y-86570000D03*
X153416000Y-86570000D03*
X152146000Y-86570000D03*
X150876000Y-86570000D03*
X150876000Y-93770000D03*
X152146000Y-93770000D03*
X153416000Y-93770000D03*
X154686000Y-93770000D03*
D17*
X142367000Y-96903000D03*
X142367000Y-95883000D03*
D14*
X146177000Y-97084000D03*
X146177000Y-98044000D03*
D31*
X147328500Y-93659000D03*
X147328500Y-93259000D03*
X147328500Y-92859000D03*
X147328500Y-92459000D03*
X147328500Y-92059000D03*
X147328500Y-91659000D03*
X147328500Y-91259000D03*
X147328500Y-90859000D03*
X147328500Y-90459000D03*
X147328500Y-90059000D03*
X147328500Y-89659000D03*
X147328500Y-89259000D03*
X147328500Y-88859000D03*
X147328500Y-88459000D03*
D32*
X146491000Y-87621500D03*
X146091000Y-87621500D03*
X145691000Y-87621500D03*
X145291000Y-87621500D03*
X144891000Y-87621500D03*
X144491000Y-87621500D03*
X144091000Y-87621500D03*
X143691000Y-87621500D03*
X143291000Y-87621500D03*
X142891000Y-87621500D03*
X142491000Y-87621500D03*
X142091000Y-87621500D03*
X141691000Y-87621500D03*
X141291000Y-87621500D03*
D31*
X140453500Y-88459000D03*
X140453500Y-88859000D03*
X140453500Y-89259000D03*
X140453500Y-89659000D03*
X140453500Y-90059000D03*
X140453500Y-90459000D03*
X140453500Y-90859000D03*
X140453500Y-91259000D03*
X140453500Y-91659000D03*
X140453500Y-92059000D03*
X140453500Y-92459000D03*
X140453500Y-92859000D03*
X140453500Y-93259000D03*
X140453500Y-93659000D03*
D32*
X141291000Y-94496500D03*
X141691000Y-94496500D03*
X142091000Y-94496500D03*
X142491000Y-94496500D03*
X142891000Y-94496500D03*
X143291000Y-94496500D03*
X143691000Y-94496500D03*
X144091000Y-94496500D03*
X144491000Y-94496500D03*
X144891000Y-94496500D03*
X145291000Y-94496500D03*
X145691000Y-94496500D03*
X146091000Y-94496500D03*
X146491000Y-94496500D03*
D33*
X143891000Y-91059000D03*
X142616000Y-92334000D03*
X145166000Y-92334000D03*
D34*
X143891000Y-91059000D03*
D33*
X145166000Y-91059000D03*
X142616000Y-91059000D03*
X145166000Y-89784000D03*
X143891000Y-89784000D03*
X143891000Y-92334000D03*
X142616000Y-89784000D03*
D22*
X140458000Y-102362000D03*
X141478000Y-102362000D03*
D35*
X155216800Y-95326200D03*
X154256800Y-95326200D03*
D36*
X145796000Y-102235000D03*
X145796000Y-100335000D03*
D12*
X143002000Y-85062000D03*
X143002000Y-84102000D03*
D37*
X141480000Y-103378000D03*
X140460000Y-103378000D03*
D38*
X148844000Y-91948000D03*
D39*
X148336000Y-72009000D03*
D38*
X145796000Y-101219000D03*
X152781000Y-88265000D03*
X153924000Y-96266000D03*
X143002000Y-83185000D03*
D39*
X148209000Y-77470000D03*
D40*
X142240000Y-101346000D03*
D38*
X146177000Y-98679000D03*
X148590000Y-84328000D03*
D39*
X139192000Y-88265000D03*
X146050000Y-79756000D03*
X146050000Y-74295000D03*
D38*
X153797000Y-82804000D03*
D39*
X139192000Y-91821000D03*
D40*
X139573000Y-98171000D03*
X139319000Y-102870000D03*
D38*
X148590000Y-88011000D03*
D40*
X150876000Y-78740000D03*
X150876000Y-99441000D03*
X150876000Y-73406000D03*
D39*
X148717000Y-94107000D03*
D40*
X150876000Y-84455000D03*
D39*
X139192000Y-86995000D03*
D40*
X143510000Y-72644000D03*
X143510000Y-78105000D03*
X147193000Y-69850000D03*
D39*
X148600000Y-90550000D03*
D38*
X141986000Y-86106000D03*
X146177000Y-96393000D03*
X143510000Y-93091000D03*
X143256000Y-88900000D03*
X147708500Y-106338640D03*
X142875000Y-97719000D03*
X147058500Y-106338640D03*
X142875000Y-98369000D03*
X140081000Y-84074000D03*
X140081000Y-85344000D03*
X140843000Y-84074000D03*
X140843000Y-85344000D03*
D41*
X144018000Y-84046000D02*
X145717000Y-84046000D01*
X145717000Y-84046000D02*
X145754000Y-84009000D01*
X148590000Y-86205000D02*
X147292000Y-86205000D01*
X147292000Y-86205000D02*
X146854000Y-85767000D01*
X146854000Y-85767000D02*
X146854000Y-85409000D01*
D42*
X139192000Y-92611000D02*
X139192000Y-91821000D01*
X149676600Y-77470000D02*
X149858600Y-77288000D01*
X139065000Y-96873000D02*
X139065000Y-97663000D01*
D43*
X148463000Y-86995000D02*
X148590000Y-87122000D01*
X144891000Y-87138000D02*
X145034000Y-86995000D01*
X144891000Y-87621500D02*
X144891000Y-87138000D01*
D41*
X139129000Y-89055000D02*
X139192000Y-89055000D01*
D42*
X148590000Y-85245000D02*
X148590000Y-84328000D01*
X140458000Y-102362000D02*
X139827000Y-102362000D01*
X143002000Y-83185000D02*
X143919000Y-83185000D01*
X148590000Y-88829000D02*
X148590000Y-88011000D01*
X154256800Y-95326200D02*
X154256800Y-95933200D01*
D44*
X151640000Y-105920000D02*
X152334000Y-106614000D01*
X143000000Y-105201000D02*
X143155000Y-105201000D01*
D42*
X139065000Y-97663000D02*
X139573000Y-98171000D01*
D44*
X152334000Y-106614000D02*
X154178000Y-106614000D01*
X151640000Y-105201000D02*
X151640000Y-105920000D01*
D42*
X139065000Y-96873000D02*
X141097000Y-96873000D01*
X145034000Y-98016000D02*
X146149000Y-98016000D01*
X143764000Y-102235000D02*
X143129000Y-102235000D01*
D43*
X148590000Y-87122000D02*
X148590000Y-88011000D01*
D42*
X146050000Y-74295000D02*
X144633200Y-74295000D01*
X148675000Y-92270000D02*
X148675000Y-92117000D01*
X146050000Y-79756000D02*
X144684000Y-79756000D01*
X143919000Y-83185000D02*
X144018000Y-83086000D01*
X146177000Y-98044000D02*
X147204000Y-98044000D01*
D45*
X143002000Y-105199000D02*
X143000000Y-105201000D01*
D43*
X145034000Y-86995000D02*
X148463000Y-86995000D01*
D42*
X143129000Y-102235000D02*
X142240000Y-101346000D01*
X149651200Y-72009000D02*
X149884000Y-71776200D01*
X148336000Y-72009000D02*
X149651200Y-72009000D01*
X145796000Y-100335000D02*
X145796000Y-101219000D01*
X148209000Y-77470000D02*
X149676600Y-77470000D01*
X150876000Y-86570000D02*
X150876000Y-87884000D01*
X144633200Y-74295000D02*
X144502000Y-74426200D01*
X143002000Y-84102000D02*
X141986000Y-84102000D01*
X155091800Y-82804000D02*
X153797000Y-82804000D01*
X147204000Y-98044000D02*
X148107000Y-97141000D01*
X139827000Y-103378000D02*
X139319000Y-102870000D01*
X146149000Y-98016000D02*
X146177000Y-98044000D01*
X154256800Y-95933200D02*
X153924000Y-96266000D01*
X148675000Y-92117000D02*
X148844000Y-91948000D01*
D44*
X151640000Y-105201000D02*
X151485000Y-105201000D01*
D42*
X144684000Y-79756000D02*
X144527400Y-79912600D01*
X139192000Y-89055000D02*
X139192000Y-88265000D01*
X139827000Y-102362000D02*
X139319000Y-102870000D01*
X143002000Y-84102000D02*
X143002000Y-83185000D01*
X150876000Y-87884000D02*
X151257000Y-88265000D01*
D44*
X151485000Y-105201000D02*
X150570000Y-104286000D01*
D42*
X146177000Y-98044000D02*
X146177000Y-98679000D01*
X151257000Y-88265000D02*
X152781000Y-88265000D01*
D44*
X143155000Y-105201000D02*
X144070000Y-104286000D01*
D42*
X140460000Y-103378000D02*
X139827000Y-103378000D01*
X144658000Y-99441000D02*
X143764000Y-100335000D01*
X139065000Y-95913000D02*
X140081000Y-95913000D01*
D44*
X146659600Y-68935600D02*
X145415000Y-68935600D01*
D41*
X140453500Y-90059000D02*
X139236000Y-90059000D01*
D43*
X143691000Y-88192000D02*
X143891000Y-88392000D01*
X148320000Y-90059000D02*
X148590000Y-89789000D01*
D41*
X138555000Y-99947000D02*
X138943000Y-100335000D01*
D43*
X147328500Y-93659000D02*
X146618000Y-93659000D01*
D42*
X143510000Y-78105000D02*
X143510000Y-79895200D01*
D43*
X143691000Y-87621500D02*
X143691000Y-86795000D01*
X141291000Y-93793000D02*
X141157000Y-93659000D01*
D42*
X139827000Y-86995000D02*
X140716000Y-87884000D01*
D43*
X148246000Y-93659000D02*
X148675000Y-93230000D01*
D41*
X138555000Y-96423000D02*
X138555000Y-99947000D01*
D42*
X143510000Y-72644000D02*
X143510000Y-74418200D01*
X155216800Y-95326200D02*
X155216800Y-94300800D01*
D43*
X143291000Y-93818000D02*
X143383000Y-93726000D01*
D42*
X148717000Y-93272000D02*
X148675000Y-93230000D01*
D43*
X141224000Y-89948000D02*
X141113000Y-90059000D01*
D42*
X139192000Y-94361000D02*
X139192000Y-93571000D01*
X155216800Y-95326200D02*
X155216800Y-98631200D01*
D43*
X147328500Y-90059000D02*
X148320000Y-90059000D01*
D42*
X148107000Y-99441000D02*
X144658000Y-99441000D01*
X152144000Y-84455000D02*
X152271000Y-84582000D01*
X143510000Y-79895200D02*
X143527400Y-79912600D01*
D43*
X143691000Y-86795000D02*
X143002000Y-86106000D01*
X147328500Y-93659000D02*
X148246000Y-93659000D01*
D42*
X150876000Y-77305400D02*
X150858600Y-77288000D01*
D41*
X139065000Y-95913000D02*
X138555000Y-96423000D01*
D42*
X139065000Y-94488000D02*
X139192000Y-94361000D01*
D43*
X141113000Y-90059000D02*
X141224000Y-90170000D01*
D42*
X150876000Y-84455000D02*
X152144000Y-84455000D01*
X143764000Y-100335000D02*
X143764000Y-98044000D01*
D41*
X140453500Y-93659000D02*
X139280000Y-93659000D01*
D44*
X147193000Y-69850000D02*
X147193000Y-69469000D01*
D42*
X150876000Y-73406000D02*
X150876000Y-71784200D01*
X150876000Y-78740000D02*
X150876000Y-77305400D01*
D43*
X143691000Y-93799000D02*
X143764000Y-93726000D01*
D42*
X148600000Y-89799000D02*
X148590000Y-89789000D01*
D44*
X154407000Y-99441000D02*
X150876000Y-99441000D01*
D43*
X143891000Y-88392000D02*
X144018000Y-88392000D01*
X140716000Y-87884000D02*
X141224000Y-88392000D01*
D44*
X147193000Y-69469000D02*
X146659600Y-68935600D01*
D43*
X143291000Y-94496500D02*
X143291000Y-93818000D01*
X143691000Y-95177000D02*
X145034000Y-96520000D01*
D41*
X139280000Y-93659000D02*
X139192000Y-93571000D01*
D43*
X141224000Y-88392000D02*
X141224000Y-89948000D01*
X141157000Y-93659000D02*
X140453500Y-93659000D01*
D42*
X139065000Y-95913000D02*
X139065000Y-94488000D01*
X148717000Y-94107000D02*
X148717000Y-93272000D01*
X155216800Y-94300800D02*
X154686000Y-93770000D01*
D43*
X140453500Y-90059000D02*
X141113000Y-90059000D01*
D42*
X148600000Y-90550000D02*
X148600000Y-89799000D01*
X143764000Y-98044000D02*
X144752000Y-97056000D01*
D43*
X145034000Y-96520000D02*
X145034000Y-97056000D01*
D42*
X144752000Y-97056000D02*
X145034000Y-97056000D01*
X150876000Y-71784200D02*
X150884000Y-71776200D01*
D43*
X143691000Y-87621500D02*
X143691000Y-88192000D01*
X143002000Y-86106000D02*
X143002000Y-85062000D01*
X143691000Y-94496500D02*
X143691000Y-95177000D01*
X143691000Y-94496500D02*
X143691000Y-93799000D01*
D41*
X138943000Y-100335000D02*
X143764000Y-100335000D01*
D44*
X154407000Y-104485000D02*
X154178000Y-104714000D01*
D43*
X141291000Y-94496500D02*
X141291000Y-93793000D01*
D41*
X139236000Y-90059000D02*
X139192000Y-90015000D01*
D42*
X143510000Y-74418200D02*
X143502000Y-74426200D01*
X139192000Y-86995000D02*
X139827000Y-86995000D01*
D43*
X147328500Y-90059000D02*
X146701000Y-90059000D01*
D44*
X154407000Y-99441000D02*
X154407000Y-104485000D01*
D42*
X155216800Y-98631200D02*
X154407000Y-99441000D01*
D43*
X141691000Y-94496500D02*
X141691000Y-93812000D01*
D44*
X148107000Y-99441000D02*
X150876000Y-99441000D01*
D43*
X144491000Y-87030000D02*
X144780000Y-86741000D01*
X148463000Y-86741000D02*
X148590000Y-86614000D01*
X144491000Y-87621500D02*
X144491000Y-87030000D01*
X148590000Y-86614000D02*
X148590000Y-86205000D01*
X144780000Y-86741000D02*
X148463000Y-86741000D01*
D44*
X148121000Y-101727000D02*
X148107000Y-101741000D01*
D42*
X145288000Y-105311000D02*
X144870000Y-104893000D01*
X144870000Y-104893000D02*
X144870000Y-104286000D01*
X149354999Y-105286000D02*
X149354999Y-106423001D01*
D44*
X149770000Y-102018000D02*
X149479000Y-101727000D01*
D42*
X148789360Y-106988640D02*
X145977640Y-106988640D01*
D45*
X149770000Y-104870999D02*
X149354999Y-105286000D01*
D42*
X145288000Y-106299000D02*
X145288000Y-105311000D01*
D44*
X149479000Y-101727000D02*
X148121000Y-101727000D01*
D45*
X149770000Y-104286000D02*
X149770000Y-104870999D01*
D44*
X149770000Y-104286000D02*
X149770000Y-102018000D01*
D42*
X145977640Y-106988640D02*
X145288000Y-106299000D01*
D44*
X145796000Y-102235000D02*
X147613000Y-102235000D01*
X147613000Y-102235000D02*
X148107000Y-101741000D01*
D42*
X149354999Y-106423001D02*
X148789360Y-106988640D01*
X146177000Y-96393000D02*
X146177000Y-97084000D01*
X141986000Y-86106000D02*
X141986000Y-85062000D01*
D43*
X141196000Y-95913000D02*
X141097000Y-95913000D01*
X143291000Y-87621500D02*
X143291000Y-88427000D01*
X142091000Y-94496500D02*
X142091000Y-93875000D01*
X144091000Y-95255974D02*
X145228026Y-96393000D01*
X142091000Y-94496500D02*
X142091000Y-95018000D01*
X142091000Y-95018000D02*
X141196000Y-95913000D01*
X145228026Y-96393000D02*
X146177000Y-96393000D01*
X142091000Y-93875000D02*
X142240000Y-93726000D01*
X144091000Y-94496500D02*
X144091000Y-95255974D01*
X152146000Y-83947000D02*
X154940000Y-83947000D01*
X154940000Y-83947000D02*
X155194000Y-84201000D01*
X151841800Y-82804000D02*
X151841800Y-83642800D01*
X155194000Y-84201000D02*
X155194000Y-84582000D01*
X151841800Y-83642800D02*
X152146000Y-83947000D01*
X148070000Y-104286000D02*
X148070000Y-105168000D01*
X147955000Y-103251000D02*
X148070000Y-103366000D01*
X148070000Y-103366000D02*
X148070000Y-104286000D01*
X147708500Y-106338640D02*
X147572001Y-106202141D01*
X147572001Y-106202141D02*
X147572001Y-105665999D01*
X147070000Y-104286000D02*
X147070000Y-103374000D01*
X147572001Y-105665999D02*
X148070000Y-105168000D01*
X142744000Y-97704841D02*
X142744000Y-97669000D01*
X142758159Y-97719000D02*
X142744000Y-97704841D01*
X142875000Y-97719000D02*
X142758159Y-97719000D01*
X147193000Y-103251000D02*
X147955000Y-103251000D01*
X147070000Y-103374000D02*
X147193000Y-103251000D01*
X142744000Y-97669000D02*
X143510000Y-96903000D01*
X147066000Y-105537000D02*
X147194999Y-105665999D01*
X147193000Y-105667998D02*
X147193000Y-106204140D01*
X142855000Y-98349000D02*
X142614045Y-98349000D01*
X147066000Y-105410000D02*
X147066000Y-105537000D01*
X147066000Y-105410000D02*
X147570000Y-104906000D01*
X142875000Y-98369000D02*
X142855000Y-98349000D01*
X147194999Y-105665999D02*
X147193000Y-105667998D01*
X147193000Y-106204140D02*
X147058500Y-106338640D01*
X142614045Y-98349000D02*
X142245000Y-97979955D01*
X142245000Y-97979955D02*
X142245000Y-97458045D01*
X142367000Y-97336045D02*
X142367000Y-96903000D01*
X142245000Y-97458045D02*
X142367000Y-97336045D01*
X146570000Y-104914000D02*
X147066000Y-105410000D01*
X141291000Y-87443000D02*
X141291000Y-87621500D01*
X140589000Y-81534000D02*
X141224000Y-81534000D01*
X141502000Y-79887200D02*
X141502000Y-74426200D01*
X141502000Y-71477000D02*
X141502000Y-74426200D01*
X141832000Y-71147000D02*
X141502000Y-71477000D01*
X152884000Y-71776200D02*
X152884000Y-77262600D01*
X144928500Y-70463500D02*
X144245000Y-71147000D01*
X140081000Y-85344000D02*
X140081000Y-86233000D01*
X140081000Y-82042000D02*
X140589000Y-81534000D01*
X140081000Y-86233000D02*
X141291000Y-87443000D01*
X141527400Y-81230600D02*
X141527400Y-79912600D01*
X141224000Y-81534000D02*
X141527400Y-81230600D01*
X141527400Y-79912600D02*
X141502000Y-79887200D01*
X144245000Y-71147000D02*
X141832000Y-71147000D01*
X152251500Y-70463500D02*
X144928500Y-70463500D01*
X152884000Y-71096000D02*
X152251500Y-70463500D01*
X152884000Y-71776200D02*
X152884000Y-71096000D01*
X140081000Y-84074000D02*
X140081000Y-82042000D01*
X152884000Y-77262600D02*
X152858600Y-77288000D01*
X142245500Y-86619500D02*
X141737500Y-86619500D01*
X142494000Y-86868000D02*
X142245500Y-86619500D01*
X139605973Y-84808999D02*
X139092000Y-84295026D01*
X142491000Y-86871000D02*
X142494000Y-86868000D01*
X141737500Y-86619500D02*
X141351000Y-86233000D01*
X143130300Y-70610700D02*
X143415000Y-70326000D01*
X143415000Y-70326000D02*
X143415000Y-68935600D01*
X141351000Y-86233000D02*
X141351000Y-85090000D01*
X142491000Y-87621500D02*
X142491000Y-86871000D01*
X139586697Y-70610700D02*
X143130300Y-70610700D01*
X139092000Y-84295026D02*
X139092001Y-71105396D01*
X141351000Y-85090000D02*
X141070000Y-84809000D01*
X141070000Y-84809000D02*
X139605973Y-84808999D01*
X139092001Y-71105396D02*
X139586697Y-70610700D01*
X144415000Y-70412400D02*
X143989700Y-70837700D01*
X142891000Y-86710199D02*
X142891000Y-87621500D01*
X142245214Y-84582000D02*
X142499500Y-84836286D01*
X139319000Y-84201000D02*
X139700000Y-84582000D01*
X139319000Y-71199423D02*
X139319000Y-84201000D01*
X144415000Y-68935600D02*
X144415000Y-70412400D01*
X142499500Y-84836286D02*
X142499500Y-86318699D01*
X143989700Y-70837700D02*
X139680723Y-70837700D01*
X142499500Y-86318699D02*
X142891000Y-86710199D01*
X139700000Y-84582000D02*
X142245214Y-84582000D01*
X139680723Y-70837700D02*
X139319000Y-71199423D01*
X149882474Y-94971500D02*
X150048000Y-94805974D01*
X154686000Y-84709000D02*
X154559000Y-84582000D01*
X146533500Y-94971500D02*
X149882474Y-94971500D01*
X146491000Y-94929000D02*
X146533500Y-94971500D01*
X154234000Y-84582000D02*
X153291000Y-84582000D01*
X150282974Y-85371000D02*
X152554000Y-85371000D01*
X150048000Y-94805974D02*
X150048001Y-85605973D01*
X154686000Y-87630000D02*
X154686000Y-86570000D01*
X154559000Y-84582000D02*
X154234000Y-84582000D01*
X150048001Y-85605973D02*
X150282974Y-85371000D01*
X154686000Y-86570000D02*
X154686000Y-84709000D01*
X152781000Y-85598000D02*
X152781000Y-87503000D01*
X146491000Y-94496500D02*
X146491000Y-94929000D01*
X152554000Y-85371000D02*
X152781000Y-85598000D01*
X152781000Y-87503000D02*
X153035000Y-87757000D01*
X154559000Y-87757000D02*
X154686000Y-87630000D01*
X153035000Y-87757000D02*
X154559000Y-87757000D01*
X144091000Y-86054000D02*
X144018000Y-85981000D01*
X144091000Y-87621500D02*
X144091000Y-86054000D01*
X141480000Y-103378000D02*
X145923000Y-103378000D01*
X145923000Y-103378000D02*
X146070000Y-103525000D01*
X146070000Y-104286000D02*
X146070000Y-103525000D01*
X147068500Y-94744500D02*
X149479000Y-94742000D01*
X146939000Y-94615000D02*
X147068500Y-94744500D01*
X146939000Y-94107000D02*
X146939000Y-94615000D01*
X153416000Y-85344000D02*
X153416000Y-86570000D01*
X149821000Y-94679000D02*
X149821000Y-92771004D01*
X146271000Y-93886000D02*
X146718000Y-93886000D01*
X150188947Y-85144001D02*
X153216001Y-85144001D01*
X153216001Y-85144001D02*
X153416000Y-85344000D01*
X146091000Y-94066000D02*
X146271000Y-93886000D01*
X149479000Y-94742000D02*
X149758000Y-94742000D01*
X149821000Y-92771004D02*
X149821002Y-92771002D01*
X149821002Y-92771002D02*
X149821002Y-85511946D01*
X149758000Y-94742000D02*
X149821000Y-94679000D01*
X146718000Y-93886000D02*
X146939000Y-94107000D01*
X146091000Y-94496500D02*
X146091000Y-94066000D01*
X149821002Y-85511946D02*
X150188947Y-85144001D01*
X152146000Y-85725000D02*
X152146000Y-86570000D01*
X145691000Y-95018000D02*
X145871500Y-95198500D01*
X145871500Y-95198500D02*
X149976500Y-95198500D01*
X150377000Y-85598000D02*
X152019000Y-85598000D01*
X150275000Y-85700000D02*
X150377000Y-85598000D01*
X145691000Y-94496500D02*
X145691000Y-95018000D01*
X150275000Y-94900000D02*
X150275000Y-85700000D01*
X149976500Y-95198500D02*
X150275000Y-94900000D01*
X152019000Y-85598000D02*
X152146000Y-85725000D01*
X150700500Y-95425500D02*
X150876000Y-95250000D01*
X145291000Y-95126000D02*
X145590500Y-95425500D01*
X150876000Y-95250000D02*
X150876000Y-93770000D01*
X145291000Y-94496500D02*
X145291000Y-95126000D01*
X145590500Y-95425500D02*
X150700500Y-95425500D01*
X152146000Y-95504000D02*
X152146000Y-93770000D01*
X145129578Y-95652500D02*
X151997500Y-95652500D01*
X144891000Y-94496500D02*
X144891000Y-95413922D01*
X144891000Y-95413922D02*
X145129578Y-95652500D01*
X151997500Y-95652500D02*
X152146000Y-95504000D01*
X153416000Y-95631000D02*
X153416000Y-93770000D01*
X145035552Y-95879500D02*
X153167500Y-95879500D01*
X144491000Y-95334948D02*
X145035552Y-95879500D01*
X153167500Y-95879500D02*
X153416000Y-95631000D01*
X144491000Y-94496500D02*
X144491000Y-95334948D01*
D41*
X144018000Y-84046000D02*
X144018000Y-84961000D01*
D43*
X149070000Y-103350000D02*
X149070000Y-104286000D01*
X141986000Y-102362000D02*
X142621000Y-102997000D01*
X142621000Y-102997000D02*
X148717000Y-102997000D01*
X148717000Y-102997000D02*
X149070000Y-103350000D01*
X141478000Y-102362000D02*
X141986000Y-102362000D01*
X151384000Y-70739000D02*
X151884000Y-71239000D01*
X151884000Y-71239000D02*
X151884000Y-71776200D01*
X142113000Y-81915000D02*
X142527400Y-81500600D01*
X144526000Y-71374000D02*
X145161000Y-70739000D01*
X141691000Y-87208000D02*
X141691000Y-87621500D01*
X151884000Y-71776200D02*
X151884000Y-77262600D01*
X140843000Y-86360000D02*
X141691000Y-87208000D01*
X142527400Y-74451600D02*
X142502000Y-74426200D01*
X145161000Y-70739000D02*
X151384000Y-70739000D01*
X140843000Y-86360000D02*
X140843000Y-85344000D01*
X140843000Y-84074000D02*
X140843000Y-82423000D01*
X142527400Y-81500600D02*
X142527400Y-79912600D01*
X142875000Y-71374000D02*
X144526000Y-71374000D01*
X142527400Y-79912600D02*
X142527400Y-74451600D01*
X140843000Y-82423000D02*
X141351000Y-81915000D01*
X151884000Y-77262600D02*
X151858600Y-77288000D01*
X142502000Y-71747000D02*
X142875000Y-71374000D01*
X141351000Y-81915000D02*
X142113000Y-81915000D01*
X142502000Y-74426200D02*
X142502000Y-71747000D01*
X142891000Y-95139000D02*
X143510000Y-95758000D01*
X142891000Y-94496500D02*
X142891000Y-95139000D01*
X143510000Y-95758000D02*
X143510000Y-95883000D01*
X142494000Y-94499500D02*
X142491000Y-94496500D01*
X142367000Y-95377000D02*
X142494000Y-95250000D01*
X142494000Y-95250000D02*
X142494000Y-94499500D01*
X142367000Y-95883000D02*
X142367000Y-95377000D01*
X150903001Y-81566973D02*
X151289974Y-81180000D01*
X150876000Y-70104000D02*
X150757000Y-69985000D01*
X153543000Y-71068026D02*
X152578974Y-70104000D01*
X154813000Y-73152000D02*
X153670000Y-73152000D01*
X149227000Y-91148000D02*
X149367002Y-91007998D01*
X154972974Y-81180000D02*
X155194000Y-80958974D01*
X149367004Y-84470004D02*
X149367004Y-83296996D01*
X155194000Y-80958974D02*
X155194000Y-73533000D01*
X147929500Y-91520500D02*
X148302000Y-91148000D01*
X149367004Y-83296996D02*
X149606000Y-83058000D01*
X150876000Y-81593974D02*
X151032987Y-81436987D01*
X149606000Y-83058000D02*
X150622000Y-83058000D01*
X152578974Y-70104000D02*
X150876000Y-70104000D01*
X151289974Y-81180000D02*
X154972974Y-81180000D01*
X153543000Y-73025000D02*
X153543000Y-71068026D01*
X149367002Y-91007998D02*
X149367002Y-85471000D01*
X147741000Y-92059000D02*
X147929500Y-91870500D01*
X147929500Y-91870500D02*
X147929500Y-91520500D01*
X150757000Y-69985000D02*
X150757000Y-68961000D01*
X153670000Y-73152000D02*
X153543000Y-73025000D01*
X150622000Y-83058000D02*
X150876000Y-82804000D01*
X155194000Y-73533000D02*
X154813000Y-73152000D01*
X149367002Y-85471000D02*
X149367004Y-84470004D01*
X148302000Y-91148000D02*
X149227000Y-91148000D01*
X150876000Y-82804000D02*
X150876000Y-81593974D01*
X147328500Y-92059000D02*
X147741000Y-92059000D01*
X151032987Y-81436987D02*
X151286987Y-81182987D01*
X155067000Y-81407000D02*
X155421000Y-81053000D01*
X153797000Y-72771000D02*
X153797000Y-70866000D01*
X152781000Y-69850000D02*
X152019000Y-69850000D01*
X151757000Y-69588000D02*
X151757000Y-68961000D01*
X147952000Y-92459000D02*
X148156500Y-92254500D01*
X151130000Y-82871026D02*
X151130000Y-81661000D01*
X148156499Y-91618501D02*
X148400000Y-91375000D01*
X153951000Y-72925000D02*
X153797000Y-72771000D01*
X155420999Y-73438973D02*
X154907026Y-72925000D01*
X151384000Y-81407000D02*
X155067000Y-81407000D01*
X152019000Y-69850000D02*
X151757000Y-69588000D01*
X153797000Y-70866000D02*
X152781000Y-69850000D01*
X148156500Y-92254500D02*
X148156499Y-91618501D01*
X150689026Y-83312000D02*
X151130000Y-82871026D01*
X149594002Y-91105998D02*
X149594003Y-83450997D01*
X155421000Y-81053000D02*
X155420999Y-73438973D01*
X149594003Y-83450997D02*
X149733000Y-83312000D01*
X151130000Y-81661000D02*
X151384000Y-81407000D01*
X149325000Y-91375000D02*
X149594002Y-91105998D01*
X148400000Y-91375000D02*
X149325000Y-91375000D01*
X154907026Y-72925000D02*
X153951000Y-72925000D01*
X149733000Y-83312000D02*
X150689026Y-83312000D01*
X147328500Y-92459000D02*
X147952000Y-92459000D01*
G04 #@! TA.AperFunction,Conductor*
G36*
X146670648Y-88279352D02*
G01*
X146685000Y-88314000D01*
X146685000Y-93673000D01*
X146670648Y-93707648D01*
X146636000Y-93722000D01*
X146291304Y-93722000D01*
X146282123Y-93721132D01*
X146267985Y-93718435D01*
X146267984Y-93718435D01*
X146262160Y-93717324D01*
X146228895Y-93727367D01*
X146226503Y-93728021D01*
X146192746Y-93736313D01*
X146189361Y-93739297D01*
X146189334Y-93739311D01*
X146185019Y-93740614D01*
X146182504Y-93742565D01*
X146160138Y-93764931D01*
X146157895Y-93767039D01*
X146132301Y-93789602D01*
X146130703Y-93793766D01*
X146127642Y-93797427D01*
X146086421Y-93838648D01*
X146051773Y-93853000D01*
X143156500Y-93853000D01*
X143121852Y-93838648D01*
X143107500Y-93804000D01*
X143107500Y-93499500D01*
X143121852Y-93464852D01*
X143156500Y-93450500D01*
X143222181Y-93450500D01*
X143249333Y-93458711D01*
X143311153Y-93499862D01*
X143311159Y-93499865D01*
X143314060Y-93501796D01*
X143317386Y-93502835D01*
X143317388Y-93502836D01*
X143336158Y-93508700D01*
X143437233Y-93540278D01*
X143440723Y-93540342D01*
X143466920Y-93540822D01*
X143566255Y-93542643D01*
X143690755Y-93508700D01*
X143693726Y-93506876D01*
X143693728Y-93506875D01*
X143773747Y-93457743D01*
X143799386Y-93450500D01*
X146001000Y-93450500D01*
X146021187Y-93446485D01*
X146039008Y-93442940D01*
X146039012Y-93442939D01*
X146041374Y-93442469D01*
X146059551Y-93434940D01*
X146075130Y-93428487D01*
X146075141Y-93428482D01*
X146076022Y-93428117D01*
X146090771Y-93420602D01*
X146133117Y-93371022D01*
X146147469Y-93336374D01*
X146155500Y-93296000D01*
X146155500Y-88949000D01*
X146147469Y-88908626D01*
X146139940Y-88890449D01*
X146133487Y-88874870D01*
X146133482Y-88874859D01*
X146133117Y-88873978D01*
X146125602Y-88859229D01*
X146076022Y-88816883D01*
X146041374Y-88802531D01*
X146039012Y-88802061D01*
X146039008Y-88802060D01*
X146021187Y-88798515D01*
X146001000Y-88794500D01*
X143734500Y-88794500D01*
X143699852Y-88780148D01*
X143689894Y-88765781D01*
X143640872Y-88657965D01*
X143639428Y-88654788D01*
X143637150Y-88652144D01*
X143627379Y-88640804D01*
X143615500Y-88608819D01*
X143615500Y-88314000D01*
X143629852Y-88279352D01*
X143664500Y-88265000D01*
X146636000Y-88265000D01*
X146670648Y-88279352D01*
G37*
G04 #@! TD.AperFunction*
G04 #@! TA.AperFunction,Conductor*
G36*
X142628148Y-88279352D02*
G01*
X142642500Y-88314000D01*
X142642500Y-89209500D01*
X142628148Y-89244148D01*
X142593500Y-89258500D01*
X142579930Y-89258500D01*
X142578283Y-89258726D01*
X142578277Y-89258726D01*
X142526220Y-89265857D01*
X142473354Y-89273099D01*
X142470288Y-89274426D01*
X142470287Y-89274426D01*
X142344283Y-89328953D01*
X142344282Y-89328954D01*
X142341217Y-89330280D01*
X142229325Y-89420888D01*
X142145921Y-89538249D01*
X142144790Y-89541389D01*
X142144789Y-89541392D01*
X142098283Y-89670567D01*
X142097150Y-89673715D01*
X142086606Y-89817307D01*
X142087266Y-89820580D01*
X142087266Y-89820581D01*
X142100473Y-89886081D01*
X142115064Y-89958444D01*
X142180429Y-90086730D01*
X142181896Y-90088325D01*
X142190500Y-90115782D01*
X142190500Y-90734882D01*
X142181441Y-90763267D01*
X142147856Y-90810526D01*
X142145921Y-90813249D01*
X142144790Y-90816389D01*
X142144789Y-90816392D01*
X142098283Y-90945567D01*
X142097150Y-90948715D01*
X142086606Y-91092307D01*
X142115064Y-91233444D01*
X142180429Y-91361730D01*
X142181895Y-91363324D01*
X142190501Y-91390782D01*
X142190501Y-92009881D01*
X142181442Y-92038266D01*
X142145921Y-92088249D01*
X142144790Y-92091389D01*
X142144789Y-92091392D01*
X142099386Y-92217504D01*
X142097150Y-92223715D01*
X142086606Y-92367307D01*
X142087266Y-92370580D01*
X142087266Y-92370581D01*
X142100473Y-92436081D01*
X142115064Y-92508444D01*
X142180429Y-92636730D01*
X142182688Y-92639187D01*
X142182689Y-92639188D01*
X142192018Y-92649333D01*
X142204906Y-92684552D01*
X142189116Y-92718569D01*
X142155949Y-92731500D01*
X142035000Y-92731500D01*
X142014813Y-92735516D01*
X141996992Y-92739060D01*
X141996988Y-92739061D01*
X141994626Y-92739531D01*
X141976449Y-92747060D01*
X141960870Y-92753513D01*
X141960859Y-92753518D01*
X141959978Y-92753883D01*
X141945229Y-92761398D01*
X141902883Y-92810978D01*
X141888531Y-92845626D01*
X141880500Y-92886000D01*
X141880500Y-93804000D01*
X141866148Y-93838648D01*
X141831500Y-93853000D01*
X141146000Y-93853000D01*
X141111352Y-93838648D01*
X141097000Y-93804000D01*
X141097000Y-88314000D01*
X141111352Y-88279352D01*
X141146000Y-88265000D01*
X142593500Y-88265000D01*
X142628148Y-88279352D01*
G37*
G04 #@! TD.AperFunction*
G04 #@! TA.AperFunction,Conductor*
G36*
X143495648Y-88279352D02*
G01*
X143510000Y-88314000D01*
X143510000Y-88900000D01*
X146001000Y-88900000D01*
X146035648Y-88914352D01*
X146050000Y-88949000D01*
X146050000Y-93296000D01*
X146035648Y-93330648D01*
X146001000Y-93345000D01*
X143002000Y-93345000D01*
X143002000Y-93804000D01*
X142987648Y-93838648D01*
X142953000Y-93853000D01*
X142035000Y-93853000D01*
X142000352Y-93838648D01*
X141986000Y-93804000D01*
X141986000Y-92886000D01*
X142000352Y-92851352D01*
X142035000Y-92837000D01*
X142456672Y-92837000D01*
X142470343Y-92838946D01*
X142538512Y-92858751D01*
X142541074Y-92858939D01*
X142541079Y-92858940D01*
X142545163Y-92859239D01*
X142548712Y-92859500D01*
X142652070Y-92859500D01*
X142653717Y-92859274D01*
X142653723Y-92859274D01*
X142711552Y-92851352D01*
X142758646Y-92844901D01*
X142767593Y-92841029D01*
X142787051Y-92837000D01*
X143731672Y-92837000D01*
X143745343Y-92838946D01*
X143813512Y-92858751D01*
X143816074Y-92858939D01*
X143816079Y-92858940D01*
X143820163Y-92859239D01*
X143823712Y-92859500D01*
X143927070Y-92859500D01*
X143928717Y-92859274D01*
X143928723Y-92859274D01*
X143986552Y-92851352D01*
X144033646Y-92844901D01*
X144042593Y-92841029D01*
X144062051Y-92837000D01*
X145006672Y-92837000D01*
X145020343Y-92838946D01*
X145088512Y-92858751D01*
X145091074Y-92858939D01*
X145091079Y-92858940D01*
X145095163Y-92859239D01*
X145098712Y-92859500D01*
X145202070Y-92859500D01*
X145203717Y-92859274D01*
X145203723Y-92859274D01*
X145261552Y-92851352D01*
X145308646Y-92844901D01*
X145317593Y-92841029D01*
X145337051Y-92837000D01*
X145669000Y-92837000D01*
X145669000Y-92496861D01*
X145671897Y-92480263D01*
X145683717Y-92447433D01*
X145683718Y-92447431D01*
X145684850Y-92444285D01*
X145695394Y-92300693D01*
X145669967Y-92174588D01*
X145669000Y-92164903D01*
X145669000Y-91221861D01*
X145671897Y-91205263D01*
X145683717Y-91172433D01*
X145683718Y-91172431D01*
X145684850Y-91169285D01*
X145695394Y-91025693D01*
X145669967Y-90899588D01*
X145669000Y-90889903D01*
X145669000Y-89946861D01*
X145671897Y-89930263D01*
X145683717Y-89897433D01*
X145683718Y-89897431D01*
X145684850Y-89894285D01*
X145695394Y-89750693D01*
X145669967Y-89624588D01*
X145669000Y-89614903D01*
X145669000Y-89281000D01*
X145325328Y-89281000D01*
X145311657Y-89279054D01*
X145291160Y-89273099D01*
X145243488Y-89259249D01*
X145240926Y-89259061D01*
X145240921Y-89259060D01*
X145236837Y-89258761D01*
X145233288Y-89258500D01*
X145129930Y-89258500D01*
X145128283Y-89258726D01*
X145128277Y-89258726D01*
X145076220Y-89265857D01*
X145023354Y-89273099D01*
X145014407Y-89276971D01*
X144994949Y-89281000D01*
X144050328Y-89281000D01*
X144036657Y-89279054D01*
X144016160Y-89273099D01*
X143968488Y-89259249D01*
X143965926Y-89259061D01*
X143965921Y-89259060D01*
X143961837Y-89258761D01*
X143958288Y-89258500D01*
X143854930Y-89258500D01*
X143853283Y-89258726D01*
X143853277Y-89258726D01*
X143801220Y-89265857D01*
X143748354Y-89273099D01*
X143739407Y-89276971D01*
X143719949Y-89281000D01*
X142797000Y-89281000D01*
X142762352Y-89266648D01*
X142748000Y-89232000D01*
X142748000Y-88314000D01*
X142762352Y-88279352D01*
X142797000Y-88265000D01*
X143461000Y-88265000D01*
X143495648Y-88279352D01*
G37*
G04 #@! TD.AperFunction*
M02*
