%FSLAX45Y45*%
G04 Gerber Fmt 4.5, Leading zero omitted, Abs format (unit mm)*
G04 Created by KiCad (PCBNEW (6.0.6)) date 2022-07-02 21:52:22*
%MOMM*%
%LPD*%
G01*
G04 APERTURE LIST*
%TA.AperFunction,Profile*%
%ADD10C,0.100000*%
%TD*%
%ADD11C,0.200000*%
%ADD12C,0.065000*%
G04 APERTURE END LIST*
D10*
X13843000Y-11061700D02*
X15570200Y-11061700D01*
X15570200Y-6743700D02*
X13843000Y-6743700D01*
X13817600Y-11036300D02*
G75*
G03*
X13843000Y-11061700I25400J0D01*
G01*
X15595600Y-6769100D02*
G75*
G03*
X15570200Y-6743700I-25400J0D01*
G01*
X13843000Y-6743700D02*
G75*
G03*
X13817600Y-6769100I0J-25400D01*
G01*
X15570200Y-11061700D02*
G75*
G03*
X15595600Y-11036300I0J25400D01*
G01*
X15595600Y-11036300D02*
X15595600Y-6769100D01*
X13817600Y-6769100D02*
X13817600Y-11036300D01*
D11*
D12*
X14410500Y-10540600D02*
X14475500Y-10605600D01*
X14475500Y-10540600D02*
X14410500Y-10605600D01*
X14988500Y-10540600D02*
X15053500Y-10605600D01*
X15053500Y-10540600D02*
X14988500Y-10605600D01*
D11*
X14070219Y-11377176D02*
X14070219Y-11177176D01*
X14117838Y-11177176D01*
X14146409Y-11186700D01*
X14165457Y-11205748D01*
X14174981Y-11224795D01*
X14184505Y-11262890D01*
X14184505Y-11291462D01*
X14174981Y-11329557D01*
X14165457Y-11348605D01*
X14146409Y-11367652D01*
X14117838Y-11377176D01*
X14070219Y-11377176D01*
X14270219Y-11377176D02*
X14270219Y-11243843D01*
X14270219Y-11281938D02*
X14279743Y-11262890D01*
X14289267Y-11253367D01*
X14308314Y-11243843D01*
X14327362Y-11243843D01*
X14394028Y-11377176D02*
X14394028Y-11243843D01*
X14394028Y-11177176D02*
X14384505Y-11186700D01*
X14394028Y-11196224D01*
X14403552Y-11186700D01*
X14394028Y-11177176D01*
X14394028Y-11196224D01*
X14517838Y-11377176D02*
X14498790Y-11367652D01*
X14489267Y-11348605D01*
X14489267Y-11177176D01*
X14622600Y-11377176D02*
X14603552Y-11367652D01*
X14594028Y-11348605D01*
X14594028Y-11177176D01*
X14851171Y-11377176D02*
X14851171Y-11177176D01*
X14917838Y-11320033D01*
X14984505Y-11177176D01*
X14984505Y-11377176D01*
X15165457Y-11377176D02*
X15165457Y-11272414D01*
X15155933Y-11253367D01*
X15136886Y-11243843D01*
X15098790Y-11243843D01*
X15079743Y-11253367D01*
X15165457Y-11367652D02*
X15146409Y-11377176D01*
X15098790Y-11377176D01*
X15079743Y-11367652D01*
X15070219Y-11348605D01*
X15070219Y-11329557D01*
X15079743Y-11310509D01*
X15098790Y-11300986D01*
X15146409Y-11300986D01*
X15165457Y-11291462D01*
X15260695Y-11243843D02*
X15260695Y-11443843D01*
X15260695Y-11253367D02*
X15279743Y-11243843D01*
X15317838Y-11243843D01*
X15336886Y-11253367D01*
X15346409Y-11262890D01*
X15355933Y-11281938D01*
X15355933Y-11339081D01*
X15346409Y-11358128D01*
X15336886Y-11367652D01*
X15317838Y-11377176D01*
X15279743Y-11377176D01*
X15260695Y-11367652D01*
X15441648Y-11358128D02*
X15451171Y-11367652D01*
X15441648Y-11377176D01*
X15432124Y-11367652D01*
X15441648Y-11358128D01*
X15441648Y-11377176D01*
X15441648Y-11253367D02*
X15451171Y-11262890D01*
X15441648Y-11272414D01*
X15432124Y-11262890D01*
X15441648Y-11253367D01*
X15441648Y-11272414D01*
D12*
X13747600Y-11674200D02*
X13812600Y-11739200D01*
X13812600Y-11674200D02*
X13747600Y-11739200D01*
D11*
X14108314Y-11597176D02*
X14127362Y-11597176D01*
X14146409Y-11606700D01*
X14155933Y-11616224D01*
X14165457Y-11635271D01*
X14174981Y-11673367D01*
X14174981Y-11720986D01*
X14165457Y-11759081D01*
X14155933Y-11778128D01*
X14146409Y-11787652D01*
X14127362Y-11797176D01*
X14108314Y-11797176D01*
X14089267Y-11787652D01*
X14079743Y-11778128D01*
X14070219Y-11759081D01*
X14060695Y-11720986D01*
X14060695Y-11673367D01*
X14070219Y-11635271D01*
X14079743Y-11616224D01*
X14089267Y-11606700D01*
X14108314Y-11597176D01*
X14260695Y-11778128D02*
X14270219Y-11787652D01*
X14260695Y-11797176D01*
X14251171Y-11787652D01*
X14260695Y-11778128D01*
X14260695Y-11797176D01*
X14441648Y-11597176D02*
X14403552Y-11597176D01*
X14384505Y-11606700D01*
X14374981Y-11616224D01*
X14355933Y-11644795D01*
X14346409Y-11682890D01*
X14346409Y-11759081D01*
X14355933Y-11778128D01*
X14365457Y-11787652D01*
X14384505Y-11797176D01*
X14422600Y-11797176D01*
X14441648Y-11787652D01*
X14451171Y-11778128D01*
X14460695Y-11759081D01*
X14460695Y-11711462D01*
X14451171Y-11692414D01*
X14441648Y-11682890D01*
X14422600Y-11673367D01*
X14384505Y-11673367D01*
X14365457Y-11682890D01*
X14355933Y-11692414D01*
X14346409Y-11711462D01*
X14641648Y-11597176D02*
X14546409Y-11597176D01*
X14536886Y-11692414D01*
X14546409Y-11682890D01*
X14565457Y-11673367D01*
X14613076Y-11673367D01*
X14632124Y-11682890D01*
X14641648Y-11692414D01*
X14651171Y-11711462D01*
X14651171Y-11759081D01*
X14641648Y-11778128D01*
X14632124Y-11787652D01*
X14613076Y-11797176D01*
X14565457Y-11797176D01*
X14546409Y-11787652D01*
X14536886Y-11778128D01*
X14774981Y-11597176D02*
X14794028Y-11597176D01*
X14813076Y-11606700D01*
X14822600Y-11616224D01*
X14832124Y-11635271D01*
X14841648Y-11673367D01*
X14841648Y-11720986D01*
X14832124Y-11759081D01*
X14822600Y-11778128D01*
X14813076Y-11787652D01*
X14794028Y-11797176D01*
X14774981Y-11797176D01*
X14755933Y-11787652D01*
X14746409Y-11778128D01*
X14736886Y-11759081D01*
X14727362Y-11720986D01*
X14727362Y-11673367D01*
X14736886Y-11635271D01*
X14746409Y-11616224D01*
X14755933Y-11606700D01*
X14774981Y-11597176D01*
X14927362Y-11797176D02*
X14927362Y-11663843D01*
X14927362Y-11682890D02*
X14936886Y-11673367D01*
X14955933Y-11663843D01*
X14984505Y-11663843D01*
X15003552Y-11673367D01*
X15013076Y-11692414D01*
X15013076Y-11797176D01*
X15013076Y-11692414D02*
X15022600Y-11673367D01*
X15041648Y-11663843D01*
X15070219Y-11663843D01*
X15089267Y-11673367D01*
X15098790Y-11692414D01*
X15098790Y-11797176D01*
X15194028Y-11797176D02*
X15194028Y-11663843D01*
X15194028Y-11682890D02*
X15203552Y-11673367D01*
X15222600Y-11663843D01*
X15251171Y-11663843D01*
X15270219Y-11673367D01*
X15279743Y-11692414D01*
X15279743Y-11797176D01*
X15279743Y-11692414D02*
X15289267Y-11673367D01*
X15308314Y-11663843D01*
X15336886Y-11663843D01*
X15355933Y-11673367D01*
X15365457Y-11692414D01*
X15365457Y-11797176D01*
X15755933Y-11587652D02*
X15584505Y-11844795D01*
X16013076Y-11597176D02*
X16032124Y-11597176D01*
X16051171Y-11606700D01*
X16060695Y-11616224D01*
X16070219Y-11635271D01*
X16079743Y-11673367D01*
X16079743Y-11720986D01*
X16070219Y-11759081D01*
X16060695Y-11778128D01*
X16051171Y-11787652D01*
X16032124Y-11797176D01*
X16013076Y-11797176D01*
X15994028Y-11787652D01*
X15984505Y-11778128D01*
X15974981Y-11759081D01*
X15965457Y-11720986D01*
X15965457Y-11673367D01*
X15974981Y-11635271D01*
X15984505Y-11616224D01*
X15994028Y-11606700D01*
X16013076Y-11597176D01*
X16165457Y-11778128D02*
X16174981Y-11787652D01*
X16165457Y-11797176D01*
X16155933Y-11787652D01*
X16165457Y-11778128D01*
X16165457Y-11797176D01*
X16298790Y-11597176D02*
X16317838Y-11597176D01*
X16336886Y-11606700D01*
X16346409Y-11616224D01*
X16355933Y-11635271D01*
X16365457Y-11673367D01*
X16365457Y-11720986D01*
X16355933Y-11759081D01*
X16346409Y-11778128D01*
X16336886Y-11787652D01*
X16317838Y-11797176D01*
X16298790Y-11797176D01*
X16279743Y-11787652D01*
X16270219Y-11778128D01*
X16260695Y-11759081D01*
X16251171Y-11720986D01*
X16251171Y-11673367D01*
X16260695Y-11635271D01*
X16270219Y-11616224D01*
X16279743Y-11606700D01*
X16298790Y-11597176D01*
X16441648Y-11616224D02*
X16451171Y-11606700D01*
X16470219Y-11597176D01*
X16517838Y-11597176D01*
X16536886Y-11606700D01*
X16546409Y-11616224D01*
X16555933Y-11635271D01*
X16555933Y-11654319D01*
X16546409Y-11682890D01*
X16432124Y-11797176D01*
X16555933Y-11797176D01*
X16736886Y-11597176D02*
X16641648Y-11597176D01*
X16632124Y-11692414D01*
X16641648Y-11682890D01*
X16660695Y-11673367D01*
X16708314Y-11673367D01*
X16727362Y-11682890D01*
X16736886Y-11692414D01*
X16746409Y-11711462D01*
X16746409Y-11759081D01*
X16736886Y-11778128D01*
X16727362Y-11787652D01*
X16708314Y-11797176D01*
X16660695Y-11797176D01*
X16641648Y-11787652D01*
X16632124Y-11778128D01*
X16917838Y-11597176D02*
X16879743Y-11597176D01*
X16860695Y-11606700D01*
X16851171Y-11616224D01*
X16832124Y-11644795D01*
X16822600Y-11682890D01*
X16822600Y-11759081D01*
X16832124Y-11778128D01*
X16841648Y-11787652D01*
X16860695Y-11797176D01*
X16898790Y-11797176D01*
X16917838Y-11787652D01*
X16927362Y-11778128D01*
X16936886Y-11759081D01*
X16936886Y-11711462D01*
X16927362Y-11692414D01*
X16917838Y-11682890D01*
X16898790Y-11673367D01*
X16860695Y-11673367D01*
X16841648Y-11682890D01*
X16832124Y-11692414D01*
X16822600Y-11711462D01*
X17013076Y-11597176D02*
X17013076Y-11635271D01*
X17089267Y-11597176D02*
X17089267Y-11635271D01*
X17384505Y-11873367D02*
X17374981Y-11863843D01*
X17355933Y-11835271D01*
X17346410Y-11816224D01*
X17336886Y-11787652D01*
X17327362Y-11740033D01*
X17327362Y-11701938D01*
X17336886Y-11654319D01*
X17346410Y-11625748D01*
X17355933Y-11606700D01*
X17374981Y-11578128D01*
X17384505Y-11568605D01*
X17451171Y-11616224D02*
X17460695Y-11606700D01*
X17479743Y-11597176D01*
X17527362Y-11597176D01*
X17546410Y-11606700D01*
X17555933Y-11616224D01*
X17565457Y-11635271D01*
X17565457Y-11654319D01*
X17555933Y-11682890D01*
X17441648Y-11797176D01*
X17565457Y-11797176D01*
X17803552Y-11797176D02*
X17803552Y-11597176D01*
X17889267Y-11797176D02*
X17889267Y-11692414D01*
X17879743Y-11673367D01*
X17860695Y-11663843D01*
X17832124Y-11663843D01*
X17813076Y-11673367D01*
X17803552Y-11682890D01*
X18013076Y-11797176D02*
X17994029Y-11787652D01*
X17984505Y-11778128D01*
X17974981Y-11759081D01*
X17974981Y-11701938D01*
X17984505Y-11682890D01*
X17994029Y-11673367D01*
X18013076Y-11663843D01*
X18041648Y-11663843D01*
X18060695Y-11673367D01*
X18070219Y-11682890D01*
X18079743Y-11701938D01*
X18079743Y-11759081D01*
X18070219Y-11778128D01*
X18060695Y-11787652D01*
X18041648Y-11797176D01*
X18013076Y-11797176D01*
X18194029Y-11797176D02*
X18174981Y-11787652D01*
X18165457Y-11768605D01*
X18165457Y-11597176D01*
X18346410Y-11787652D02*
X18327362Y-11797176D01*
X18289267Y-11797176D01*
X18270219Y-11787652D01*
X18260695Y-11768605D01*
X18260695Y-11692414D01*
X18270219Y-11673367D01*
X18289267Y-11663843D01*
X18327362Y-11663843D01*
X18346410Y-11673367D01*
X18355933Y-11692414D01*
X18355933Y-11711462D01*
X18260695Y-11730509D01*
X18432124Y-11787652D02*
X18451171Y-11797176D01*
X18489267Y-11797176D01*
X18508314Y-11787652D01*
X18517838Y-11768605D01*
X18517838Y-11759081D01*
X18508314Y-11740033D01*
X18489267Y-11730509D01*
X18460695Y-11730509D01*
X18441648Y-11720986D01*
X18432124Y-11701938D01*
X18432124Y-11692414D01*
X18441648Y-11673367D01*
X18460695Y-11663843D01*
X18489267Y-11663843D01*
X18508314Y-11673367D01*
X18584505Y-11873367D02*
X18594029Y-11863843D01*
X18613076Y-11835271D01*
X18622600Y-11816224D01*
X18632124Y-11787652D01*
X18641648Y-11740033D01*
X18641648Y-11701938D01*
X18632124Y-11654319D01*
X18622600Y-11625748D01*
X18613076Y-11606700D01*
X18594029Y-11578128D01*
X18584505Y-11568605D01*
X18946410Y-11873367D02*
X18936886Y-11863843D01*
X18917838Y-11835271D01*
X18908314Y-11816224D01*
X18898790Y-11787652D01*
X18889267Y-11740033D01*
X18889267Y-11701938D01*
X18898790Y-11654319D01*
X18908314Y-11625748D01*
X18917838Y-11606700D01*
X18936886Y-11578128D01*
X18946410Y-11568605D01*
X19022600Y-11663843D02*
X19022600Y-11797176D01*
X19022600Y-11682890D02*
X19032124Y-11673367D01*
X19051171Y-11663843D01*
X19079743Y-11663843D01*
X19098790Y-11673367D01*
X19108314Y-11692414D01*
X19108314Y-11797176D01*
X19232124Y-11797176D02*
X19213076Y-11787652D01*
X19203552Y-11778128D01*
X19194029Y-11759081D01*
X19194029Y-11701938D01*
X19203552Y-11682890D01*
X19213076Y-11673367D01*
X19232124Y-11663843D01*
X19260695Y-11663843D01*
X19279743Y-11673367D01*
X19289267Y-11682890D01*
X19298790Y-11701938D01*
X19298790Y-11759081D01*
X19289267Y-11778128D01*
X19279743Y-11787652D01*
X19260695Y-11797176D01*
X19232124Y-11797176D01*
X19355933Y-11663843D02*
X19432124Y-11663843D01*
X19384505Y-11597176D02*
X19384505Y-11768605D01*
X19394029Y-11787652D01*
X19413076Y-11797176D01*
X19432124Y-11797176D01*
X19651171Y-11663843D02*
X19651171Y-11863843D01*
X19651171Y-11673367D02*
X19670219Y-11663843D01*
X19708314Y-11663843D01*
X19727362Y-11673367D01*
X19736886Y-11682890D01*
X19746410Y-11701938D01*
X19746410Y-11759081D01*
X19736886Y-11778128D01*
X19727362Y-11787652D01*
X19708314Y-11797176D01*
X19670219Y-11797176D01*
X19651171Y-11787652D01*
X19860695Y-11797176D02*
X19841648Y-11787652D01*
X19832124Y-11768605D01*
X19832124Y-11597176D01*
X20022600Y-11797176D02*
X20022600Y-11692414D01*
X20013076Y-11673367D01*
X19994029Y-11663843D01*
X19955933Y-11663843D01*
X19936886Y-11673367D01*
X20022600Y-11787652D02*
X20003552Y-11797176D01*
X19955933Y-11797176D01*
X19936886Y-11787652D01*
X19927362Y-11768605D01*
X19927362Y-11749557D01*
X19936886Y-11730509D01*
X19955933Y-11720986D01*
X20003552Y-11720986D01*
X20022600Y-11711462D01*
X20089267Y-11663843D02*
X20165457Y-11663843D01*
X20117838Y-11597176D02*
X20117838Y-11768605D01*
X20127362Y-11787652D01*
X20146410Y-11797176D01*
X20165457Y-11797176D01*
X20308314Y-11787652D02*
X20289267Y-11797176D01*
X20251171Y-11797176D01*
X20232124Y-11787652D01*
X20222600Y-11768605D01*
X20222600Y-11692414D01*
X20232124Y-11673367D01*
X20251171Y-11663843D01*
X20289267Y-11663843D01*
X20308314Y-11673367D01*
X20317838Y-11692414D01*
X20317838Y-11711462D01*
X20222600Y-11730509D01*
X20489267Y-11797176D02*
X20489267Y-11597176D01*
X20489267Y-11787652D02*
X20470219Y-11797176D01*
X20432124Y-11797176D01*
X20413076Y-11787652D01*
X20403552Y-11778128D01*
X20394029Y-11759081D01*
X20394029Y-11701938D01*
X20403552Y-11682890D01*
X20413076Y-11673367D01*
X20432124Y-11663843D01*
X20470219Y-11663843D01*
X20489267Y-11673367D01*
X20565457Y-11873367D02*
X20574981Y-11863843D01*
X20594029Y-11835271D01*
X20603552Y-11816224D01*
X20613076Y-11787652D01*
X20622600Y-11740033D01*
X20622600Y-11701938D01*
X20613076Y-11654319D01*
X20603552Y-11625748D01*
X20594029Y-11606700D01*
X20574981Y-11578128D01*
X20565457Y-11568605D01*
M02*
