G04 #@! TF.GenerationSoftware,KiCad,Pcbnew,(6.0.6)*
G04 #@! TF.CreationDate,2022-07-02T21:51:47+02:00*
G04 #@! TF.ProjectId,hs3-arduino-nano,6873332d-6172-4647-9569-6e6f2d6e616e,rev?*
G04 #@! TF.SameCoordinates,Original*
G04 #@! TF.FileFunction,Copper,L2,Bot*
G04 #@! TF.FilePolarity,Positive*
%FSLAX46Y46*%
G04 Gerber Fmt 4.6, Leading zero omitted, Abs format (unit mm)*
G04 Created by KiCad (PCBNEW (6.0.6)) date 2022-07-02 21:51:47*
%MOMM*%
%LPD*%
G01*
G04 APERTURE LIST*
G04 #@! TA.AperFunction,ComponentPad*
%ADD10C,2.540000*%
G04 #@! TD*
G04 #@! TA.AperFunction,ComponentPad*
%ADD11R,0.850000X0.850000*%
G04 #@! TD*
G04 #@! TA.AperFunction,ComponentPad*
%ADD12O,0.850000X0.850000*%
G04 #@! TD*
G04 #@! TA.AperFunction,ComponentPad*
%ADD13O,1.000000X2.100000*%
G04 #@! TD*
G04 #@! TA.AperFunction,ComponentPad*
%ADD14O,1.000000X1.600000*%
G04 #@! TD*
G04 #@! TA.AperFunction,ComponentPad*
%ADD15C,0.600000*%
G04 #@! TD*
G04 #@! TA.AperFunction,ViaPad*
%ADD16C,0.400000*%
G04 #@! TD*
G04 #@! TA.AperFunction,ViaPad*
%ADD17C,0.600000*%
G04 #@! TD*
G04 #@! TA.AperFunction,ViaPad*
%ADD18C,0.800000*%
G04 #@! TD*
G04 #@! TA.AperFunction,Conductor*
%ADD19C,0.600000*%
G04 #@! TD*
G04 #@! TA.AperFunction,Conductor*
%ADD20C,0.400000*%
G04 #@! TD*
G04 #@! TA.AperFunction,Conductor*
%ADD21C,0.127000*%
G04 #@! TD*
G04 APERTURE END LIST*
D10*
X139446000Y-68707000D03*
X139446000Y-109347000D03*
X154686000Y-109347000D03*
X154686000Y-68707000D03*
D11*
X151765000Y-68961000D03*
D12*
X150765000Y-68961000D03*
D13*
X143000000Y-105201000D03*
D14*
X151640000Y-109381000D03*
X143000000Y-109381000D03*
D13*
X151640000Y-105201000D03*
D11*
X145415000Y-68935600D03*
D12*
X144415000Y-68935600D03*
X143415000Y-68935600D03*
X142415000Y-68935600D03*
D15*
X143891000Y-91059000D03*
X142616000Y-92334000D03*
X145166000Y-92334000D03*
X145166000Y-91059000D03*
X142616000Y-91059000D03*
X145166000Y-89784000D03*
X143891000Y-89784000D03*
X143891000Y-92334000D03*
X142616000Y-89784000D03*
D16*
X148844000Y-91948000D03*
D17*
X148336000Y-72009000D03*
D16*
X145796000Y-101219000D03*
X152781000Y-88265000D03*
X153924000Y-96266000D03*
X143002000Y-83185000D03*
D17*
X148209000Y-77470000D03*
D18*
X142240000Y-101346000D03*
D16*
X146177000Y-98679000D03*
X148590000Y-84328000D03*
D17*
X139192000Y-88265000D03*
X146050000Y-79756000D03*
X146050000Y-74295000D03*
D16*
X153797000Y-82804000D03*
D17*
X139192000Y-91821000D03*
D18*
X139573000Y-98171000D03*
X139319000Y-102870000D03*
D16*
X148590000Y-88011000D03*
D18*
X150876000Y-78740000D03*
X150876000Y-99441000D03*
X150876000Y-73406000D03*
D17*
X148717000Y-94107000D03*
D18*
X150876000Y-84455000D03*
D17*
X139192000Y-86995000D03*
D18*
X143510000Y-72644000D03*
X143510000Y-78105000D03*
X147193000Y-69850000D03*
D17*
X148600000Y-90550000D03*
D16*
X141986000Y-86106000D03*
X146177000Y-96393000D03*
X143510000Y-93091000D03*
X143256000Y-88900000D03*
X147708500Y-106338640D03*
X142875000Y-97719000D03*
X147058500Y-106338640D03*
X142875000Y-98369000D03*
X140081000Y-84074000D03*
X140081000Y-85344000D03*
X140843000Y-84074000D03*
X140843000Y-85344000D03*
D19*
X152400000Y-67945000D02*
X153016000Y-68561000D01*
X154432000Y-70993000D02*
X154432000Y-72009000D01*
X142415000Y-68935600D02*
X142415000Y-68405000D01*
X153016000Y-69577000D02*
X154432000Y-70993000D01*
X142875000Y-67945000D02*
X152400000Y-67945000D01*
X142415000Y-68405000D02*
X142875000Y-67945000D01*
X153016000Y-68561000D02*
X153016000Y-69577000D01*
D20*
X150876000Y-92202000D02*
X150114000Y-92202000D01*
X150876000Y-89789000D02*
X149236000Y-89789000D01*
D19*
X149987000Y-69850000D02*
X147193000Y-69850000D01*
X139954000Y-81915000D02*
X142875000Y-81915000D01*
X150876000Y-73406000D02*
X150876000Y-70739000D01*
D20*
X150114000Y-92202000D02*
X149479000Y-92837000D01*
D19*
X143510000Y-72644000D02*
X143510000Y-78105000D01*
X150876000Y-99441000D02*
X150876000Y-89789000D01*
X150876000Y-78740000D02*
X150876000Y-73406000D01*
D20*
X149479000Y-92837000D02*
X149479000Y-93726000D01*
X149098000Y-94107000D02*
X148717000Y-94107000D01*
D19*
X139192000Y-82677000D02*
X139954000Y-81915000D01*
X144399000Y-69850000D02*
X147193000Y-69850000D01*
X143510000Y-72644000D02*
X143510000Y-70739000D01*
X139192000Y-86995000D02*
X139192000Y-82677000D01*
D20*
X149236000Y-89789000D02*
X148600000Y-90550000D01*
D19*
X150876000Y-70739000D02*
X149987000Y-69850000D01*
X143510000Y-70739000D02*
X144399000Y-69850000D01*
X142875000Y-81915000D02*
X143510000Y-81280000D01*
X143510000Y-81280000D02*
X143510000Y-78105000D01*
X150876000Y-89789000D02*
X150876000Y-78740000D01*
D20*
X149479000Y-93726000D02*
X149098000Y-94107000D01*
X143256000Y-88900000D02*
X143256000Y-87122000D01*
X145415000Y-96393000D02*
X146177000Y-96393000D01*
X144145000Y-95123000D02*
X145415000Y-96393000D01*
X143510000Y-93472000D02*
X144145000Y-94107000D01*
X143510000Y-93091000D02*
X143510000Y-93472000D01*
X142240000Y-86106000D02*
X141986000Y-86106000D01*
X143256000Y-87122000D02*
X142240000Y-86106000D01*
X144145000Y-94107000D02*
X144145000Y-95123000D01*
D21*
X140781500Y-106377080D02*
X140781500Y-98727920D01*
X147017080Y-107503500D02*
X141907920Y-107503500D01*
X147572001Y-106475139D02*
X147572001Y-106948579D01*
X147572001Y-106948579D02*
X147017080Y-107503500D01*
X147708500Y-106338640D02*
X147572001Y-106475139D01*
X142738501Y-97855499D02*
X142875000Y-97719000D01*
X141653921Y-97855499D02*
X142738501Y-97855499D01*
X141907920Y-107503500D02*
X140781500Y-106377080D01*
X140781500Y-98727920D02*
X141653921Y-97855499D01*
X146860920Y-107126500D02*
X142064080Y-107126500D01*
X147194999Y-106475139D02*
X147194999Y-106792421D01*
X142064080Y-107126500D02*
X141158500Y-106220920D01*
X141810079Y-98232501D02*
X142738501Y-98232501D01*
X141158500Y-106220920D02*
X141158500Y-98884080D01*
X141158500Y-98884080D02*
X141810079Y-98232501D01*
X147058500Y-106338640D02*
X147194999Y-106475139D01*
X147194999Y-106792421D02*
X146860920Y-107126500D01*
X142738501Y-98232501D02*
X142875000Y-98369000D01*
X140081000Y-85344000D02*
X140081000Y-84074000D01*
X140843000Y-84074000D02*
X140843000Y-85344000D01*
G04 #@! TA.AperFunction,Conductor*
G36*
X152907012Y-69015951D02*
G01*
X152945396Y-69075677D01*
X152948078Y-69086590D01*
X152967378Y-69183616D01*
X152968957Y-69188014D01*
X152968959Y-69188021D01*
X153017459Y-69323103D01*
X153056704Y-69432410D01*
X153058921Y-69436536D01*
X153161925Y-69628236D01*
X153181822Y-69665267D01*
X153184617Y-69669011D01*
X153184619Y-69669013D01*
X153312127Y-69839767D01*
X153339985Y-69877073D01*
X153343292Y-69880351D01*
X153343297Y-69880357D01*
X153511254Y-70046853D01*
X153527718Y-70063174D01*
X153740896Y-70219483D01*
X153745031Y-70221659D01*
X153745035Y-70221661D01*
X153868293Y-70286510D01*
X153974836Y-70342565D01*
X154092042Y-70383495D01*
X154219979Y-70428172D01*
X154224400Y-70429716D01*
X154228993Y-70430588D01*
X154479515Y-70478151D01*
X154479518Y-70478151D01*
X154484104Y-70479022D01*
X154616174Y-70484212D01*
X154743575Y-70489218D01*
X154743581Y-70489218D01*
X154748243Y-70489401D01*
X155011015Y-70460622D01*
X155015526Y-70459434D01*
X155015528Y-70459434D01*
X155262124Y-70394511D01*
X155262126Y-70394510D01*
X155266647Y-70393320D01*
X155271754Y-70391126D01*
X155272063Y-70391089D01*
X155275364Y-70389952D01*
X155275608Y-70390660D01*
X155342238Y-70382608D01*
X155406138Y-70413549D01*
X155443165Y-70474126D01*
X155447500Y-70506890D01*
X155447500Y-107550645D01*
X155427498Y-107618766D01*
X155373842Y-107665259D01*
X155303568Y-107675363D01*
X155283092Y-107670648D01*
X155102347Y-107612791D01*
X154959825Y-107589580D01*
X154846053Y-107571051D01*
X154846052Y-107571051D01*
X154841441Y-107570300D01*
X154709281Y-107568570D01*
X154581798Y-107566901D01*
X154581795Y-107566901D01*
X154577121Y-107566840D01*
X154315192Y-107602486D01*
X154310702Y-107603795D01*
X154310696Y-107603796D01*
X154218333Y-107630718D01*
X154061410Y-107676457D01*
X154057163Y-107678415D01*
X154057160Y-107678416D01*
X153966950Y-107720004D01*
X153821348Y-107787127D01*
X153817439Y-107789690D01*
X153604195Y-107929499D01*
X153604190Y-107929503D01*
X153600282Y-107932065D01*
X153596790Y-107935182D01*
X153439577Y-108075500D01*
X153403067Y-108108086D01*
X153234036Y-108311324D01*
X153096901Y-108537314D01*
X152994677Y-108781091D01*
X152993526Y-108785623D01*
X152993525Y-108785626D01*
X152982226Y-108830116D01*
X152929608Y-109037301D01*
X152903124Y-109300314D01*
X152903348Y-109304980D01*
X152903348Y-109304985D01*
X152905518Y-109350160D01*
X152915807Y-109564352D01*
X152967378Y-109823616D01*
X152968957Y-109828014D01*
X152968959Y-109828021D01*
X153009136Y-109939923D01*
X153013330Y-110010796D01*
X152978541Y-110072685D01*
X152915815Y-110105941D01*
X152890548Y-110108500D01*
X141245650Y-110108500D01*
X141177529Y-110088498D01*
X141131036Y-110034842D01*
X141120932Y-109964568D01*
X141124381Y-109948299D01*
X141192414Y-109707069D01*
X141193683Y-109702570D01*
X141227043Y-109440340D01*
X141229487Y-109347000D01*
X141209897Y-109083384D01*
X141151557Y-108825559D01*
X141136028Y-108785626D01*
X141057442Y-108583542D01*
X141057441Y-108583540D01*
X141055749Y-108579189D01*
X141029535Y-108533323D01*
X140926897Y-108353745D01*
X140924578Y-108349687D01*
X140760925Y-108142094D01*
X140568385Y-107960970D01*
X140530187Y-107934471D01*
X140355026Y-107812958D01*
X140355021Y-107812955D01*
X140351188Y-107810296D01*
X140346997Y-107808229D01*
X140118294Y-107695445D01*
X140118291Y-107695444D01*
X140114106Y-107693380D01*
X140057150Y-107675148D01*
X139988227Y-107653086D01*
X139862347Y-107612791D01*
X139719825Y-107589580D01*
X139606053Y-107571051D01*
X139606052Y-107571051D01*
X139601441Y-107570300D01*
X139469281Y-107568570D01*
X139341798Y-107566901D01*
X139341795Y-107566901D01*
X139337121Y-107566840D01*
X139075192Y-107602486D01*
X139070702Y-107603795D01*
X139070696Y-107603796D01*
X138889807Y-107656521D01*
X138859829Y-107665259D01*
X138845759Y-107669360D01*
X138774762Y-107669220D01*
X138715112Y-107630718D01*
X138685747Y-107566078D01*
X138684500Y-107548394D01*
X138684500Y-106377080D01*
X140204565Y-106377080D01*
X140209500Y-106414566D01*
X140209500Y-106414572D01*
X140224223Y-106526402D01*
X140281859Y-106665548D01*
X140294844Y-106682470D01*
X140368516Y-106778482D01*
X140368519Y-106778485D01*
X140373545Y-106785035D01*
X140380095Y-106790061D01*
X140380096Y-106790062D01*
X140396998Y-106803031D01*
X140409389Y-106813899D01*
X141471105Y-107875615D01*
X141481968Y-107888001D01*
X141499965Y-107911455D01*
X141529960Y-107934471D01*
X141529965Y-107934476D01*
X141529981Y-107934488D01*
X141529994Y-107934499D01*
X141612898Y-107998112D01*
X141619452Y-108003141D01*
X141758598Y-108060777D01*
X141789295Y-108064818D01*
X141870417Y-108075499D01*
X141870426Y-108075500D01*
X141870429Y-108075500D01*
X141870441Y-108075501D01*
X141899731Y-108079357D01*
X141899732Y-108079357D01*
X141907920Y-108080435D01*
X141916108Y-108079357D01*
X141916109Y-108079357D01*
X141937218Y-108076578D01*
X141953664Y-108075500D01*
X146971336Y-108075500D01*
X146987782Y-108076578D01*
X147008891Y-108079357D01*
X147008892Y-108079357D01*
X147017080Y-108080435D01*
X147025268Y-108079357D01*
X147025269Y-108079357D01*
X147054559Y-108075501D01*
X147054571Y-108075500D01*
X147054574Y-108075500D01*
X147054583Y-108075499D01*
X147135705Y-108064818D01*
X147166402Y-108060777D01*
X147305548Y-108003141D01*
X147425035Y-107911455D01*
X147443029Y-107888005D01*
X147453896Y-107875614D01*
X147944115Y-107385395D01*
X147956506Y-107374528D01*
X147973403Y-107361563D01*
X147973406Y-107361560D01*
X147979956Y-107356534D01*
X148029428Y-107292062D01*
X148071642Y-107237047D01*
X148129278Y-107097901D01*
X148148937Y-106948579D01*
X148149224Y-106948617D01*
X148167861Y-106885143D01*
X148192028Y-106857453D01*
X148228078Y-106826663D01*
X148233855Y-106821729D01*
X148333924Y-106682470D01*
X148397885Y-106523360D01*
X148402335Y-106492094D01*
X148421466Y-106357671D01*
X148421466Y-106357667D01*
X148422047Y-106353587D01*
X148422204Y-106338640D01*
X148406038Y-106205053D01*
X148402515Y-106175939D01*
X148402514Y-106175936D01*
X148401602Y-106168398D01*
X148340987Y-106007984D01*
X148243857Y-105866659D01*
X148238186Y-105861606D01*
X148121493Y-105757636D01*
X148121490Y-105757634D01*
X148115821Y-105752583D01*
X148107825Y-105748349D01*
X148033541Y-105709018D01*
X147986665Y-105684198D01*
X149372892Y-105684198D01*
X149373249Y-105691015D01*
X149373249Y-105691019D01*
X149378151Y-105784539D01*
X149382370Y-105865047D01*
X149384181Y-105871620D01*
X149384181Y-105871623D01*
X149428648Y-106033059D01*
X149430461Y-106039641D01*
X149514922Y-106199836D01*
X149519327Y-106205049D01*
X149519330Y-106205053D01*
X149627406Y-106332943D01*
X149627410Y-106332947D01*
X149631813Y-106338157D01*
X149637237Y-106342304D01*
X149637238Y-106342305D01*
X149770257Y-106444006D01*
X149770261Y-106444009D01*
X149775678Y-106448150D01*
X149862372Y-106488576D01*
X149933631Y-106521805D01*
X149933634Y-106521806D01*
X149939808Y-106524685D01*
X149946456Y-106526171D01*
X149946459Y-106526172D01*
X150052421Y-106549857D01*
X150116543Y-106564190D01*
X150122088Y-106564500D01*
X150255244Y-106564500D01*
X150390037Y-106549857D01*
X150508190Y-106510094D01*
X150555204Y-106494272D01*
X150555206Y-106494271D01*
X150561675Y-106492094D01*
X150716905Y-106398823D01*
X150721862Y-106394135D01*
X150721865Y-106394133D01*
X150843527Y-106279082D01*
X150843529Y-106279080D01*
X150848485Y-106274393D01*
X150852317Y-106268755D01*
X150852320Y-106268751D01*
X150946442Y-106130255D01*
X150950277Y-106124612D01*
X151017530Y-105956466D01*
X151018644Y-105949738D01*
X151018645Y-105949734D01*
X151045993Y-105784539D01*
X151045993Y-105784536D01*
X151047108Y-105777802D01*
X151046052Y-105757636D01*
X151037987Y-105603766D01*
X151037630Y-105596953D01*
X151014304Y-105512266D01*
X150991352Y-105428941D01*
X150989539Y-105422359D01*
X150905078Y-105262164D01*
X150900673Y-105256951D01*
X150900670Y-105256947D01*
X150792594Y-105129057D01*
X150792590Y-105129053D01*
X150788187Y-105123843D01*
X150782762Y-105119695D01*
X150649743Y-105017994D01*
X150649739Y-105017991D01*
X150644322Y-105013850D01*
X150539186Y-104964825D01*
X150486369Y-104940195D01*
X150486366Y-104940194D01*
X150480192Y-104937315D01*
X150473544Y-104935829D01*
X150473541Y-104935828D01*
X150308494Y-104898936D01*
X150308495Y-104898936D01*
X150303457Y-104897810D01*
X150297912Y-104897500D01*
X150164756Y-104897500D01*
X150029963Y-104912143D01*
X149946609Y-104940195D01*
X149864796Y-104967728D01*
X149864794Y-104967729D01*
X149858325Y-104969906D01*
X149703095Y-105063177D01*
X149698138Y-105067865D01*
X149698135Y-105067867D01*
X149643329Y-105119695D01*
X149571515Y-105187607D01*
X149567683Y-105193245D01*
X149567680Y-105193249D01*
X149516740Y-105268205D01*
X149469723Y-105337388D01*
X149402470Y-105505534D01*
X149401356Y-105512262D01*
X149401355Y-105512266D01*
X149374007Y-105677461D01*
X149372892Y-105684198D01*
X147986665Y-105684198D01*
X147964269Y-105672340D01*
X147946696Y-105667926D01*
X147805322Y-105632415D01*
X147805318Y-105632415D01*
X147797951Y-105630564D01*
X147790352Y-105630524D01*
X147790350Y-105630524D01*
X147718894Y-105630150D01*
X147626469Y-105629666D01*
X147619089Y-105631438D01*
X147619087Y-105631438D01*
X147467102Y-105667926D01*
X147467098Y-105667927D01*
X147459723Y-105669698D01*
X147452980Y-105673178D01*
X147452978Y-105673179D01*
X147442074Y-105678807D01*
X147372367Y-105692275D01*
X147325326Y-105678194D01*
X147320982Y-105675894D01*
X147320980Y-105675893D01*
X147314269Y-105672340D01*
X147260440Y-105658819D01*
X147155322Y-105632415D01*
X147155318Y-105632415D01*
X147147951Y-105630564D01*
X147140352Y-105630524D01*
X147140350Y-105630524D01*
X147068894Y-105630150D01*
X146976469Y-105629666D01*
X146969089Y-105631438D01*
X146969087Y-105631438D01*
X146817102Y-105667926D01*
X146817098Y-105667927D01*
X146809723Y-105669698D01*
X146657339Y-105748349D01*
X146528115Y-105861079D01*
X146429510Y-106001379D01*
X146367218Y-106161149D01*
X146344835Y-106331166D01*
X146347761Y-106357671D01*
X146354054Y-106414674D01*
X146341648Y-106484578D01*
X146293418Y-106536678D01*
X146228815Y-106554500D01*
X145088904Y-106554500D01*
X145020783Y-106534498D01*
X144974290Y-106480842D01*
X144964186Y-106410568D01*
X144993680Y-106345988D01*
X145002331Y-106336952D01*
X145006571Y-106332943D01*
X145068485Y-106274393D01*
X145072317Y-106268755D01*
X145072320Y-106268751D01*
X145166442Y-106130255D01*
X145170277Y-106124612D01*
X145237530Y-105956466D01*
X145238644Y-105949738D01*
X145238645Y-105949734D01*
X145265993Y-105784539D01*
X145265993Y-105784536D01*
X145267108Y-105777802D01*
X145266052Y-105757636D01*
X145257987Y-105603766D01*
X145257630Y-105596953D01*
X145234304Y-105512266D01*
X145211352Y-105428941D01*
X145209539Y-105422359D01*
X145125078Y-105262164D01*
X145120673Y-105256951D01*
X145120670Y-105256947D01*
X145012594Y-105129057D01*
X145012590Y-105129053D01*
X145008187Y-105123843D01*
X145002762Y-105119695D01*
X144869743Y-105017994D01*
X144869739Y-105017991D01*
X144864322Y-105013850D01*
X144759186Y-104964825D01*
X144706369Y-104940195D01*
X144706366Y-104940194D01*
X144700192Y-104937315D01*
X144693544Y-104935829D01*
X144693541Y-104935828D01*
X144528494Y-104898936D01*
X144528495Y-104898936D01*
X144523457Y-104897810D01*
X144517912Y-104897500D01*
X144384756Y-104897500D01*
X144249963Y-104912143D01*
X144166609Y-104940195D01*
X144084796Y-104967728D01*
X144084794Y-104967729D01*
X144078325Y-104969906D01*
X143923095Y-105063177D01*
X143918138Y-105067865D01*
X143918135Y-105067867D01*
X143863329Y-105119695D01*
X143791515Y-105187607D01*
X143787683Y-105193245D01*
X143787680Y-105193249D01*
X143736740Y-105268205D01*
X143689723Y-105337388D01*
X143622470Y-105505534D01*
X143621356Y-105512262D01*
X143621355Y-105512266D01*
X143594007Y-105677461D01*
X143592892Y-105684198D01*
X143593249Y-105691015D01*
X143593249Y-105691019D01*
X143598151Y-105784539D01*
X143602370Y-105865047D01*
X143604181Y-105871620D01*
X143604181Y-105871623D01*
X143648648Y-106033059D01*
X143650461Y-106039641D01*
X143734922Y-106199836D01*
X143739327Y-106205049D01*
X143739330Y-106205053D01*
X143847406Y-106332943D01*
X143847410Y-106332947D01*
X143851813Y-106338157D01*
X143852965Y-106339038D01*
X143887471Y-106398715D01*
X143884139Y-106469633D01*
X143842995Y-106527492D01*
X143777101Y-106553922D01*
X143765042Y-106554500D01*
X142353200Y-106554500D01*
X142285079Y-106534498D01*
X142264105Y-106517595D01*
X141767405Y-106020895D01*
X141733379Y-105958583D01*
X141730500Y-105931800D01*
X141730500Y-99173200D01*
X141750502Y-99105079D01*
X141767405Y-99084105D01*
X142010104Y-98841406D01*
X142072416Y-98807380D01*
X142099199Y-98804501D01*
X142252082Y-98804501D01*
X142320203Y-98824503D01*
X142336882Y-98837308D01*
X142455944Y-98945646D01*
X142455948Y-98945649D01*
X142461565Y-98950760D01*
X142612268Y-99032585D01*
X142778139Y-99076101D01*
X142865586Y-99077474D01*
X142942003Y-99078675D01*
X142942006Y-99078675D01*
X142949602Y-99078794D01*
X142957006Y-99077098D01*
X142957008Y-99077098D01*
X143059587Y-99053604D01*
X143116759Y-99040510D01*
X143269958Y-98963459D01*
X143275729Y-98958530D01*
X143275732Y-98958528D01*
X143394578Y-98857023D01*
X143400355Y-98852089D01*
X143489581Y-98727920D01*
X143495992Y-98718998D01*
X143495993Y-98718997D01*
X143500424Y-98712830D01*
X143564385Y-98553720D01*
X143588547Y-98383947D01*
X143588704Y-98369000D01*
X143582162Y-98314939D01*
X143569015Y-98206299D01*
X143569014Y-98206296D01*
X143568102Y-98198758D01*
X143565417Y-98191651D01*
X143526199Y-98087862D01*
X143520831Y-98017069D01*
X143527157Y-97996329D01*
X143561553Y-97910764D01*
X143564385Y-97903720D01*
X143588547Y-97733947D01*
X143588704Y-97719000D01*
X143568102Y-97548758D01*
X143507487Y-97388344D01*
X143482988Y-97352698D01*
X143414659Y-97253278D01*
X143414658Y-97253276D01*
X143410357Y-97247019D01*
X143404686Y-97241966D01*
X143287993Y-97137996D01*
X143287990Y-97137994D01*
X143282321Y-97132943D01*
X143274325Y-97128709D01*
X143174597Y-97075906D01*
X143130769Y-97052700D01*
X143102654Y-97045638D01*
X142971822Y-97012775D01*
X142971818Y-97012775D01*
X142964451Y-97010924D01*
X142956852Y-97010884D01*
X142956850Y-97010884D01*
X142885394Y-97010510D01*
X142792969Y-97010026D01*
X142785589Y-97011798D01*
X142785587Y-97011798D01*
X142633602Y-97048286D01*
X142633598Y-97048287D01*
X142626223Y-97050058D01*
X142473839Y-97128709D01*
X142344615Y-97241439D01*
X142343474Y-97243063D01*
X142285066Y-97279048D01*
X142251873Y-97283499D01*
X141699672Y-97283499D01*
X141683225Y-97282421D01*
X141662109Y-97279641D01*
X141653921Y-97278563D01*
X141616429Y-97283499D01*
X141504599Y-97298222D01*
X141365453Y-97355858D01*
X141245966Y-97447544D01*
X141240940Y-97454094D01*
X141227972Y-97470994D01*
X141217105Y-97483385D01*
X140409386Y-98291104D01*
X140396995Y-98301971D01*
X140373545Y-98319965D01*
X140350525Y-98349965D01*
X140350524Y-98349966D01*
X140324072Y-98384439D01*
X140281859Y-98439452D01*
X140224223Y-98578598D01*
X140209500Y-98690428D01*
X140209500Y-98690434D01*
X140204565Y-98727920D01*
X140205643Y-98736108D01*
X140205643Y-98736109D01*
X140208422Y-98757218D01*
X140209500Y-98773664D01*
X140209500Y-106331336D01*
X140208422Y-106347782D01*
X140204565Y-106377080D01*
X138684500Y-106377080D01*
X138684500Y-93083526D01*
X142796335Y-93083526D01*
X142799262Y-93110037D01*
X142800739Y-93123416D01*
X142801500Y-93137243D01*
X142801500Y-93443088D01*
X142801208Y-93451658D01*
X142797275Y-93509352D01*
X142798580Y-93516829D01*
X142798580Y-93516830D01*
X142808261Y-93572299D01*
X142809223Y-93578821D01*
X142816898Y-93642242D01*
X142819581Y-93649343D01*
X142820222Y-93651952D01*
X142824685Y-93668262D01*
X142825450Y-93670798D01*
X142826757Y-93678284D01*
X142829811Y-93685241D01*
X142852442Y-93736795D01*
X142854933Y-93742899D01*
X142877513Y-93802656D01*
X142881817Y-93808919D01*
X142883054Y-93811285D01*
X142891299Y-93826097D01*
X142892632Y-93828351D01*
X142895685Y-93835305D01*
X142900985Y-93842211D01*
X142934579Y-93885991D01*
X142938459Y-93891332D01*
X142970339Y-93937720D01*
X142970344Y-93937725D01*
X142974643Y-93943981D01*
X142980313Y-93949032D01*
X142980314Y-93949034D01*
X143021170Y-93985435D01*
X143026446Y-93990416D01*
X143399595Y-94363565D01*
X143433621Y-94425877D01*
X143436500Y-94452660D01*
X143436500Y-95094088D01*
X143436208Y-95102658D01*
X143432275Y-95160352D01*
X143433580Y-95167829D01*
X143433580Y-95167830D01*
X143443261Y-95223299D01*
X143444223Y-95229821D01*
X143451898Y-95293242D01*
X143454581Y-95300343D01*
X143455222Y-95302952D01*
X143459685Y-95319262D01*
X143460450Y-95321798D01*
X143461757Y-95329284D01*
X143464811Y-95336241D01*
X143487442Y-95387795D01*
X143489933Y-95393899D01*
X143512513Y-95453656D01*
X143516817Y-95459919D01*
X143518054Y-95462285D01*
X143526299Y-95477097D01*
X143527632Y-95479351D01*
X143530685Y-95486305D01*
X143535307Y-95492328D01*
X143569579Y-95536991D01*
X143573459Y-95542332D01*
X143605339Y-95588720D01*
X143605344Y-95588725D01*
X143609643Y-95594981D01*
X143615313Y-95600032D01*
X143615314Y-95600034D01*
X143656170Y-95636435D01*
X143661446Y-95641416D01*
X144893557Y-96873528D01*
X144899411Y-96879793D01*
X144937439Y-96923385D01*
X144989729Y-96960136D01*
X144994971Y-96964028D01*
X145045282Y-97003476D01*
X145052201Y-97006600D01*
X145054493Y-97007988D01*
X145069165Y-97016357D01*
X145071525Y-97017622D01*
X145077739Y-97021990D01*
X145084818Y-97024750D01*
X145084820Y-97024751D01*
X145137275Y-97045202D01*
X145143344Y-97047753D01*
X145201573Y-97074045D01*
X145209046Y-97075430D01*
X145211612Y-97076234D01*
X145227835Y-97080855D01*
X145230427Y-97081520D01*
X145237509Y-97084282D01*
X145245044Y-97085274D01*
X145300861Y-97092622D01*
X145307377Y-97093654D01*
X145345770Y-97100770D01*
X145370186Y-97105295D01*
X145377766Y-97104858D01*
X145377767Y-97104858D01*
X145432380Y-97101709D01*
X145439633Y-97101500D01*
X146168253Y-97101500D01*
X146170232Y-97101516D01*
X146244003Y-97102675D01*
X146244006Y-97102675D01*
X146251602Y-97102794D01*
X146292561Y-97093413D01*
X146305540Y-97091149D01*
X146347242Y-97086102D01*
X146374232Y-97075904D01*
X146390630Y-97070953D01*
X146418759Y-97064510D01*
X146456294Y-97045632D01*
X146468355Y-97040338D01*
X146500552Y-97028172D01*
X146500556Y-97028170D01*
X146507656Y-97025487D01*
X146513916Y-97021185D01*
X146513919Y-97021183D01*
X146531430Y-97009148D01*
X146546183Y-97000423D01*
X146565167Y-96990875D01*
X146565171Y-96990873D01*
X146571958Y-96987459D01*
X146603911Y-96960168D01*
X146614349Y-96952158D01*
X146648981Y-96928357D01*
X146654033Y-96922686D01*
X146654036Y-96922684D01*
X146668176Y-96906814D01*
X146680419Y-96894825D01*
X146696577Y-96881024D01*
X146696577Y-96881023D01*
X146702355Y-96876089D01*
X146726871Y-96841972D01*
X146735116Y-96831681D01*
X146758005Y-96805992D01*
X146758007Y-96805988D01*
X146763057Y-96800321D01*
X146776555Y-96774828D01*
X146785589Y-96760258D01*
X146797989Y-96743002D01*
X146797989Y-96743001D01*
X146802424Y-96736830D01*
X146818091Y-96697856D01*
X146823642Y-96685897D01*
X146839748Y-96655478D01*
X146839749Y-96655476D01*
X146843300Y-96648769D01*
X146845149Y-96641407D01*
X146845152Y-96641400D01*
X146850330Y-96620786D01*
X146855625Y-96604489D01*
X146863550Y-96584773D01*
X146863550Y-96584772D01*
X146866385Y-96577720D01*
X146872304Y-96536133D01*
X146874843Y-96523193D01*
X146883224Y-96489824D01*
X146885076Y-96482451D01*
X146885227Y-96453603D01*
X146886482Y-96436509D01*
X146889966Y-96412030D01*
X146889966Y-96412029D01*
X146890547Y-96407947D01*
X146890704Y-96393000D01*
X146890207Y-96388891D01*
X146886711Y-96360002D01*
X146885800Y-96344205D01*
X146885934Y-96318564D01*
X146885974Y-96310969D01*
X146877190Y-96274379D01*
X146874622Y-96260105D01*
X146871015Y-96230300D01*
X146871015Y-96230298D01*
X146870102Y-96222758D01*
X146858355Y-96191670D01*
X146853701Y-96176543D01*
X146847715Y-96151606D01*
X146847713Y-96151602D01*
X146845942Y-96144223D01*
X146828682Y-96110781D01*
X146822786Y-96097539D01*
X146812173Y-96069451D01*
X146812171Y-96069448D01*
X146809487Y-96062344D01*
X146790655Y-96034944D01*
X146782541Y-96021387D01*
X146767291Y-95991839D01*
X146762300Y-95986118D01*
X146762296Y-95986112D01*
X146742558Y-95963487D01*
X146733664Y-95952021D01*
X146716661Y-95927280D01*
X146716656Y-95927275D01*
X146712357Y-95921019D01*
X146687537Y-95898905D01*
X146676412Y-95887662D01*
X146659557Y-95868341D01*
X146659553Y-95868338D01*
X146654561Y-95862615D01*
X146648347Y-95858247D01*
X146648344Y-95858245D01*
X146623778Y-95840979D01*
X146612414Y-95831972D01*
X146601694Y-95822422D01*
X146584321Y-95806943D01*
X146577612Y-95803391D01*
X146577608Y-95803388D01*
X146554946Y-95791389D01*
X146541459Y-95783124D01*
X146520481Y-95768381D01*
X146520478Y-95768379D01*
X146514261Y-95764010D01*
X146507180Y-95761249D01*
X146507176Y-95761247D01*
X146479210Y-95750343D01*
X146466023Y-95744306D01*
X146439482Y-95730254D01*
X146439480Y-95730253D01*
X146432769Y-95726700D01*
X146425409Y-95724851D01*
X146425403Y-95724849D01*
X146400534Y-95718603D01*
X146385457Y-95713791D01*
X146361573Y-95704479D01*
X146361572Y-95704479D01*
X146354491Y-95701718D01*
X146346961Y-95700727D01*
X146346958Y-95700726D01*
X146317193Y-95696808D01*
X146302941Y-95694090D01*
X146298169Y-95692891D01*
X146266451Y-95684924D01*
X146258853Y-95684884D01*
X146258852Y-95684884D01*
X146252239Y-95684849D01*
X146226324Y-95684713D01*
X146224965Y-95684665D01*
X146223706Y-95684500D01*
X146185762Y-95684500D01*
X146185102Y-95684498D01*
X146099372Y-95684049D01*
X146099371Y-95684049D01*
X146094969Y-95684026D01*
X146093452Y-95684390D01*
X146091550Y-95684500D01*
X145760660Y-95684500D01*
X145692539Y-95664498D01*
X145671565Y-95647595D01*
X144890405Y-94866435D01*
X144856379Y-94804123D01*
X144853500Y-94777340D01*
X144853500Y-94135927D01*
X144853792Y-94127358D01*
X144857210Y-94077225D01*
X144857210Y-94077221D01*
X144857726Y-94069648D01*
X144846736Y-94006681D01*
X144845775Y-94000165D01*
X144844284Y-93987846D01*
X144838102Y-93936758D01*
X144835419Y-93929657D01*
X144834778Y-93927048D01*
X144830313Y-93910728D01*
X144829548Y-93908195D01*
X144828243Y-93900717D01*
X144802552Y-93842190D01*
X144800067Y-93836102D01*
X144780172Y-93783449D01*
X144780171Y-93783447D01*
X144777487Y-93776344D01*
X144773186Y-93770085D01*
X144771949Y-93767720D01*
X144763727Y-93752948D01*
X144762372Y-93750656D01*
X144759316Y-93743695D01*
X144754691Y-93737668D01*
X144754689Y-93737664D01*
X144720407Y-93692987D01*
X144716529Y-93687650D01*
X144714874Y-93685241D01*
X144691995Y-93651952D01*
X144684659Y-93641278D01*
X144684658Y-93641277D01*
X144680357Y-93635019D01*
X144633847Y-93593580D01*
X144628571Y-93588600D01*
X144258394Y-93218424D01*
X144224369Y-93156111D01*
X144222841Y-93114157D01*
X144222653Y-93114143D01*
X144222780Y-93112475D01*
X144222747Y-93111571D01*
X144222965Y-93110037D01*
X144222965Y-93110036D01*
X144223547Y-93105947D01*
X144223704Y-93091000D01*
X144203102Y-92920758D01*
X144142487Y-92760344D01*
X144118968Y-92726124D01*
X144049659Y-92625278D01*
X144049658Y-92625276D01*
X144045357Y-92619019D01*
X144039686Y-92613966D01*
X143922993Y-92509996D01*
X143922990Y-92509994D01*
X143917321Y-92504943D01*
X143909325Y-92500709D01*
X143772481Y-92428254D01*
X143772482Y-92428254D01*
X143765769Y-92424700D01*
X143724807Y-92414411D01*
X143606822Y-92384775D01*
X143606818Y-92384775D01*
X143599451Y-92382924D01*
X143591852Y-92382884D01*
X143591850Y-92382884D01*
X143520394Y-92382510D01*
X143427969Y-92382026D01*
X143420589Y-92383798D01*
X143420587Y-92383798D01*
X143268602Y-92420286D01*
X143268598Y-92420287D01*
X143261223Y-92422058D01*
X143108839Y-92500709D01*
X142979615Y-92613439D01*
X142881010Y-92753739D01*
X142849864Y-92833624D01*
X142838939Y-92861646D01*
X142818718Y-92913509D01*
X142796335Y-93083526D01*
X138684500Y-93083526D01*
X138684500Y-87851179D01*
X138704502Y-87783058D01*
X138758158Y-87736565D01*
X138828432Y-87726461D01*
X138852756Y-87732476D01*
X138914743Y-87754549D01*
X138916210Y-87755083D01*
X138995168Y-87784448D01*
X139000831Y-87785204D01*
X139006210Y-87787119D01*
X139013200Y-87787952D01*
X139013202Y-87787953D01*
X139052485Y-87792637D01*
X139089814Y-87797088D01*
X139091477Y-87797299D01*
X139174961Y-87808438D01*
X139180652Y-87807920D01*
X139186320Y-87808596D01*
X139193323Y-87807860D01*
X139193324Y-87807860D01*
X139222338Y-87804811D01*
X139270064Y-87799795D01*
X139271763Y-87799629D01*
X139303648Y-87796727D01*
X139348582Y-87792637D01*
X139348584Y-87792637D01*
X139355600Y-87791998D01*
X139361032Y-87790233D01*
X139366712Y-87789636D01*
X139446425Y-87762500D01*
X139448075Y-87761951D01*
X139521406Y-87738125D01*
X139521409Y-87738124D01*
X139528108Y-87735947D01*
X139533013Y-87733023D01*
X139538421Y-87731182D01*
X139610123Y-87687070D01*
X139611629Y-87686158D01*
X139677858Y-87646678D01*
X139677859Y-87646677D01*
X139683912Y-87643069D01*
X139688048Y-87639130D01*
X139692912Y-87636138D01*
X139753032Y-87577265D01*
X139754296Y-87576044D01*
X139810165Y-87522840D01*
X139810166Y-87522838D01*
X139815266Y-87517982D01*
X139818427Y-87513225D01*
X139822507Y-87509229D01*
X139826321Y-87503311D01*
X139826325Y-87503306D01*
X139868124Y-87438447D01*
X139869087Y-87436975D01*
X139911743Y-87372773D01*
X139911745Y-87372768D01*
X139915643Y-87366902D01*
X139917671Y-87361562D01*
X139920765Y-87356762D01*
X139949526Y-87277740D01*
X139950136Y-87276100D01*
X139977552Y-87203929D01*
X139977554Y-87203923D01*
X139980055Y-87197338D01*
X139980850Y-87191680D01*
X139982803Y-87186315D01*
X139993349Y-87102839D01*
X139993580Y-87101104D01*
X140004747Y-87021642D01*
X140005299Y-87017717D01*
X140005616Y-86995000D01*
X140001285Y-86956388D01*
X140000500Y-86942343D01*
X140000500Y-86179352D01*
X140020502Y-86111231D01*
X140074158Y-86064738D01*
X140128479Y-86053368D01*
X140129117Y-86053378D01*
X140148003Y-86053675D01*
X140148006Y-86053675D01*
X140155602Y-86053794D01*
X140163006Y-86052098D01*
X140163008Y-86052098D01*
X140225846Y-86037706D01*
X140322759Y-86015510D01*
X140405169Y-85974062D01*
X140475013Y-85961324D01*
X140521902Y-85975895D01*
X140580268Y-86007585D01*
X140746139Y-86051101D01*
X140833586Y-86052474D01*
X140910003Y-86053675D01*
X140910006Y-86053675D01*
X140917602Y-86053794D01*
X140925006Y-86052098D01*
X140925008Y-86052098D01*
X140987846Y-86037706D01*
X141084759Y-86015510D01*
X141091824Y-86011957D01*
X141092050Y-86011916D01*
X141098693Y-86009524D01*
X141099092Y-86010631D01*
X141161667Y-85999217D01*
X141227311Y-86026260D01*
X141267914Y-86084500D01*
X141273678Y-86110692D01*
X141276464Y-86135923D01*
X141277223Y-86150411D01*
X141277026Y-86188031D01*
X141278799Y-86195415D01*
X141284786Y-86220356D01*
X141287506Y-86235942D01*
X141291153Y-86268975D01*
X141302356Y-86299590D01*
X141304082Y-86304306D01*
X141308273Y-86318189D01*
X141315283Y-86347386D01*
X141315285Y-86347390D01*
X141317058Y-86354777D01*
X141332301Y-86384310D01*
X141338659Y-86398795D01*
X141347472Y-86422877D01*
X141347475Y-86422883D01*
X141350085Y-86430015D01*
X141354322Y-86436320D01*
X141371070Y-86461243D01*
X141378455Y-86473732D01*
X141395709Y-86507161D01*
X141400705Y-86512887D01*
X141400705Y-86512888D01*
X141417559Y-86532208D01*
X141427191Y-86544760D01*
X141445730Y-86572349D01*
X141473566Y-86597678D01*
X141483701Y-86608028D01*
X141508439Y-86636385D01*
X141514657Y-86640755D01*
X141535630Y-86655495D01*
X141547980Y-86665389D01*
X141572565Y-86687760D01*
X141579243Y-86691386D01*
X141579246Y-86691388D01*
X141605626Y-86705711D01*
X141617956Y-86713356D01*
X141642517Y-86730618D01*
X141642523Y-86730621D01*
X141648739Y-86734990D01*
X141655815Y-86737749D01*
X141655821Y-86737752D01*
X141679707Y-86747064D01*
X141694061Y-86753727D01*
X141716588Y-86765959D01*
X141716595Y-86765962D01*
X141723268Y-86769585D01*
X141747260Y-86775879D01*
X141759656Y-86779131D01*
X141773452Y-86783614D01*
X141793279Y-86791344D01*
X141808509Y-86797282D01*
X141834861Y-86800751D01*
X141841459Y-86801620D01*
X141856985Y-86804666D01*
X141881787Y-86811173D01*
X141881793Y-86811174D01*
X141889139Y-86813101D01*
X141896738Y-86813220D01*
X141904257Y-86814250D01*
X141904018Y-86815997D01*
X141962794Y-86834262D01*
X141982112Y-86850082D01*
X142510595Y-87378565D01*
X142544621Y-87440877D01*
X142547500Y-87467660D01*
X142547500Y-88845036D01*
X142546422Y-88861482D01*
X142542335Y-88892526D01*
X142547170Y-88936316D01*
X142547500Y-88940184D01*
X142547500Y-88943003D01*
X142552083Y-88980867D01*
X142552217Y-88982025D01*
X142561153Y-89062975D01*
X142562446Y-89066509D01*
X142562898Y-89070242D01*
X142568369Y-89084720D01*
X142591639Y-89146305D01*
X142592099Y-89147540D01*
X142616659Y-89214652D01*
X142620085Y-89224015D01*
X142622184Y-89227138D01*
X142623513Y-89230656D01*
X142643208Y-89259312D01*
X142669618Y-89297740D01*
X142670351Y-89298819D01*
X142715730Y-89366349D01*
X142718512Y-89368881D01*
X142720643Y-89371981D01*
X142726315Y-89377035D01*
X142726319Y-89377039D01*
X142781442Y-89426152D01*
X142782357Y-89426975D01*
X142842565Y-89481760D01*
X142845871Y-89483555D01*
X142848679Y-89486057D01*
X142855395Y-89489613D01*
X142855398Y-89489615D01*
X142920556Y-89524114D01*
X142921716Y-89524735D01*
X142993268Y-89563585D01*
X142996906Y-89564539D01*
X143000231Y-89566300D01*
X143079137Y-89586120D01*
X143080345Y-89586429D01*
X143159139Y-89607101D01*
X143162903Y-89607160D01*
X143166549Y-89608076D01*
X143174152Y-89608116D01*
X143174154Y-89608116D01*
X143247920Y-89608502D01*
X143249239Y-89608516D01*
X143323003Y-89609675D01*
X143323006Y-89609675D01*
X143330602Y-89609794D01*
X143334268Y-89608954D01*
X143338031Y-89608974D01*
X143417282Y-89589948D01*
X143418420Y-89589681D01*
X143446616Y-89583224D01*
X143490356Y-89573206D01*
X143490359Y-89573205D01*
X143497759Y-89571510D01*
X143501119Y-89569820D01*
X143504777Y-89568942D01*
X143577155Y-89531585D01*
X143578123Y-89531092D01*
X143650958Y-89494459D01*
X143653818Y-89492017D01*
X143657161Y-89490291D01*
X143662878Y-89485304D01*
X143662882Y-89485301D01*
X143693568Y-89458531D01*
X143718518Y-89436766D01*
X143719453Y-89435959D01*
X143775579Y-89388023D01*
X143775582Y-89388019D01*
X143781355Y-89383089D01*
X143783550Y-89380034D01*
X143786385Y-89377561D01*
X143792486Y-89368881D01*
X143833155Y-89311015D01*
X143833919Y-89309940D01*
X143876990Y-89250001D01*
X143876991Y-89249999D01*
X143881424Y-89243830D01*
X143882828Y-89240337D01*
X143884990Y-89237261D01*
X143914542Y-89161463D01*
X143915028Y-89160237D01*
X143942550Y-89091772D01*
X143945385Y-89084720D01*
X143945915Y-89080998D01*
X143947282Y-89077491D01*
X143949935Y-89057344D01*
X143957911Y-88996757D01*
X143958090Y-88995450D01*
X143968966Y-88919031D01*
X143968966Y-88919028D01*
X143969547Y-88914947D01*
X143969704Y-88900000D01*
X143965413Y-88864540D01*
X143964500Y-88849405D01*
X143964500Y-87150912D01*
X143964792Y-87142342D01*
X143968209Y-87092224D01*
X143968209Y-87092220D01*
X143968725Y-87084648D01*
X143957738Y-87021697D01*
X143956776Y-87015175D01*
X143950014Y-86959298D01*
X143949102Y-86951758D01*
X143946419Y-86944657D01*
X143945778Y-86942048D01*
X143941315Y-86925738D01*
X143940550Y-86923202D01*
X143939243Y-86915716D01*
X143913556Y-86857200D01*
X143911065Y-86851096D01*
X143891173Y-86798452D01*
X143891172Y-86798451D01*
X143888487Y-86791344D01*
X143884183Y-86785081D01*
X143882946Y-86782715D01*
X143874701Y-86767903D01*
X143873368Y-86765649D01*
X143870315Y-86758695D01*
X143831413Y-86707998D01*
X143827541Y-86702668D01*
X143795661Y-86656280D01*
X143795656Y-86656275D01*
X143791357Y-86650019D01*
X143780960Y-86640755D01*
X143744830Y-86608565D01*
X143739554Y-86603584D01*
X142761450Y-85625480D01*
X142755596Y-85619215D01*
X142755201Y-85618762D01*
X142717561Y-85575615D01*
X142665280Y-85538871D01*
X142659986Y-85534939D01*
X142615693Y-85500209D01*
X142609718Y-85495524D01*
X142602802Y-85492401D01*
X142600516Y-85491017D01*
X142585835Y-85482643D01*
X142583475Y-85481378D01*
X142577261Y-85477010D01*
X142570182Y-85474250D01*
X142570180Y-85474249D01*
X142517725Y-85453798D01*
X142511656Y-85451247D01*
X142453427Y-85424955D01*
X142445960Y-85423571D01*
X142443405Y-85422770D01*
X142427152Y-85418141D01*
X142424572Y-85417478D01*
X142417491Y-85414718D01*
X142409960Y-85413727D01*
X142409958Y-85413726D01*
X142380339Y-85409827D01*
X142354139Y-85406378D01*
X142347641Y-85405348D01*
X142284814Y-85393704D01*
X142277234Y-85394141D01*
X142277233Y-85394141D01*
X142222608Y-85397291D01*
X142215354Y-85397500D01*
X141994762Y-85397500D01*
X141994102Y-85397498D01*
X141903969Y-85397026D01*
X141874873Y-85404011D01*
X141867379Y-85405810D01*
X141853105Y-85408378D01*
X141823300Y-85411985D01*
X141823298Y-85411985D01*
X141815758Y-85412898D01*
X141808651Y-85415583D01*
X141808649Y-85415584D01*
X141784670Y-85424645D01*
X141769544Y-85429299D01*
X141737223Y-85437058D01*
X141730468Y-85440545D01*
X141725175Y-85442513D01*
X141654355Y-85447511D01*
X141592074Y-85413428D01*
X141558108Y-85351084D01*
X141556166Y-85339554D01*
X141537015Y-85181299D01*
X141537014Y-85181296D01*
X141536102Y-85173758D01*
X141475487Y-85013344D01*
X141437160Y-84957578D01*
X141415000Y-84886211D01*
X141415000Y-84532752D01*
X141438678Y-84459225D01*
X141441714Y-84455000D01*
X141468424Y-84417830D01*
X141532385Y-84258720D01*
X141556547Y-84088947D01*
X141556704Y-84074000D01*
X141536102Y-83903758D01*
X141475487Y-83743344D01*
X141378357Y-83602019D01*
X141372686Y-83596966D01*
X141255993Y-83492996D01*
X141255990Y-83492994D01*
X141250321Y-83487943D01*
X141098769Y-83407700D01*
X141081192Y-83403285D01*
X140939822Y-83367775D01*
X140939818Y-83367775D01*
X140932451Y-83365924D01*
X140924852Y-83365884D01*
X140924850Y-83365884D01*
X140853394Y-83365510D01*
X140760969Y-83365026D01*
X140753589Y-83366798D01*
X140753587Y-83366798D01*
X140671151Y-83386589D01*
X140594223Y-83405058D01*
X140587471Y-83408543D01*
X140519860Y-83443439D01*
X140450153Y-83456908D01*
X140403112Y-83442827D01*
X140343481Y-83411254D01*
X140343482Y-83411254D01*
X140336769Y-83407700D01*
X140319192Y-83403285D01*
X140177822Y-83367775D01*
X140177818Y-83367775D01*
X140170451Y-83365924D01*
X140162852Y-83365884D01*
X140162850Y-83365884D01*
X140125839Y-83365690D01*
X140057824Y-83345331D01*
X140011613Y-83291432D01*
X140000500Y-83239692D01*
X140000500Y-83064082D01*
X140020502Y-82995961D01*
X140037405Y-82974987D01*
X140251987Y-82760405D01*
X140314299Y-82726379D01*
X140341082Y-82723500D01*
X142865786Y-82723500D01*
X142867106Y-82723507D01*
X142957221Y-82724451D01*
X142999597Y-82715289D01*
X143012163Y-82713231D01*
X143055255Y-82708397D01*
X143061906Y-82706081D01*
X143061910Y-82706080D01*
X143086930Y-82697367D01*
X143101742Y-82693204D01*
X143127619Y-82687609D01*
X143134510Y-82686119D01*
X143173813Y-82667792D01*
X143185589Y-82663010D01*
X143226552Y-82648745D01*
X143232527Y-82645011D01*
X143232530Y-82645010D01*
X143254995Y-82630973D01*
X143268512Y-82623634D01*
X143292514Y-82612441D01*
X143292515Y-82612440D01*
X143298902Y-82609462D01*
X143333153Y-82582894D01*
X143343612Y-82575598D01*
X143374404Y-82556358D01*
X143374407Y-82556356D01*
X143380376Y-82552626D01*
X143409179Y-82524024D01*
X143409804Y-82523439D01*
X143410470Y-82522922D01*
X143436455Y-82496937D01*
X143509082Y-82424815D01*
X143509740Y-82423778D01*
X143510838Y-82422554D01*
X144075112Y-81858279D01*
X144076050Y-81857350D01*
X144135475Y-81799157D01*
X144135476Y-81799156D01*
X144140507Y-81794229D01*
X144144322Y-81788310D01*
X144144328Y-81788302D01*
X144163994Y-81757786D01*
X144171427Y-81747441D01*
X144198476Y-81713557D01*
X144213073Y-81683362D01*
X144220602Y-81669945D01*
X144234948Y-81647684D01*
X144238765Y-81641762D01*
X144241173Y-81635145D01*
X144241176Y-81635140D01*
X144253592Y-81601027D01*
X144258553Y-81589284D01*
X144274353Y-81556600D01*
X144274356Y-81556591D01*
X144277421Y-81550251D01*
X144284966Y-81517572D01*
X144289334Y-81502825D01*
X144300803Y-81471315D01*
X144301685Y-81464330D01*
X144301687Y-81464323D01*
X144306237Y-81428308D01*
X144308472Y-81415757D01*
X144316640Y-81380378D01*
X144318225Y-81373515D01*
X144318367Y-81333068D01*
X144318367Y-81332926D01*
X144318396Y-81332057D01*
X144318500Y-81331231D01*
X144318500Y-81294714D01*
X144318641Y-81254402D01*
X144318846Y-81195664D01*
X144318846Y-81195658D01*
X144318858Y-81192130D01*
X144318589Y-81190927D01*
X144318500Y-81189283D01*
X144318500Y-78555397D01*
X144335380Y-78492398D01*
X144344527Y-78476556D01*
X144403542Y-78294928D01*
X144423504Y-78105000D01*
X144403542Y-77915072D01*
X144344527Y-77733444D01*
X144335380Y-77717602D01*
X144318500Y-77654603D01*
X144318500Y-73094397D01*
X144335380Y-73031398D01*
X144344527Y-73015556D01*
X144403542Y-72833928D01*
X144423504Y-72644000D01*
X144403542Y-72454072D01*
X144344527Y-72272444D01*
X144335380Y-72256602D01*
X144318500Y-72193603D01*
X144318500Y-71126082D01*
X144338502Y-71057961D01*
X144355405Y-71036987D01*
X144696987Y-70695405D01*
X144759299Y-70661379D01*
X144786082Y-70658500D01*
X146748506Y-70658500D01*
X146799755Y-70669393D01*
X146910712Y-70718794D01*
X147004113Y-70738647D01*
X147091056Y-70757128D01*
X147091061Y-70757128D01*
X147097513Y-70758500D01*
X147288487Y-70758500D01*
X147294939Y-70757128D01*
X147294944Y-70757128D01*
X147381887Y-70738647D01*
X147475288Y-70718794D01*
X147586245Y-70669393D01*
X147637494Y-70658500D01*
X149599918Y-70658500D01*
X149668039Y-70678502D01*
X149689013Y-70695405D01*
X150030595Y-71036987D01*
X150064621Y-71099299D01*
X150067500Y-71126082D01*
X150067500Y-72955603D01*
X150050620Y-73018602D01*
X150041473Y-73034444D01*
X149982458Y-73216072D01*
X149962496Y-73406000D01*
X149982458Y-73595928D01*
X150041473Y-73777556D01*
X150050620Y-73793398D01*
X150067500Y-73856397D01*
X150067500Y-78289603D01*
X150050620Y-78352602D01*
X150041473Y-78368444D01*
X149982458Y-78550072D01*
X149962496Y-78740000D01*
X149982458Y-78929928D01*
X150041473Y-79111556D01*
X150050620Y-79127398D01*
X150067500Y-79190397D01*
X150067500Y-84004603D01*
X150050620Y-84067602D01*
X150041473Y-84083444D01*
X149982458Y-84265072D01*
X149981768Y-84271633D01*
X149981768Y-84271635D01*
X149963186Y-84448435D01*
X149962496Y-84455000D01*
X149982458Y-84644928D01*
X150041473Y-84826556D01*
X150050620Y-84842398D01*
X150067500Y-84905397D01*
X150067500Y-88954500D01*
X150047498Y-89022621D01*
X149993842Y-89069114D01*
X149941500Y-89080500D01*
X149320760Y-89080500D01*
X149312453Y-89080088D01*
X149306723Y-89078808D01*
X149229456Y-89080444D01*
X149228154Y-89080472D01*
X149225486Y-89080500D01*
X149192997Y-89080500D01*
X149189226Y-89080957D01*
X149185441Y-89081185D01*
X149185435Y-89081086D01*
X149179566Y-89081501D01*
X149142875Y-89082278D01*
X149142874Y-89082278D01*
X149135278Y-89082439D01*
X149109611Y-89089323D01*
X149092134Y-89092706D01*
X149065758Y-89095898D01*
X149058649Y-89098584D01*
X149058650Y-89098584D01*
X149024330Y-89111552D01*
X149012432Y-89115385D01*
X148976987Y-89124891D01*
X148976986Y-89124892D01*
X148969646Y-89126860D01*
X148962988Y-89130522D01*
X148962986Y-89130523D01*
X148946375Y-89139660D01*
X148930192Y-89147124D01*
X148905344Y-89156513D01*
X148868836Y-89181604D01*
X148858214Y-89188153D01*
X148819392Y-89209507D01*
X148813800Y-89214652D01*
X148799846Y-89227489D01*
X148785905Y-89238601D01*
X148770279Y-89249340D01*
X148770275Y-89249343D01*
X148764019Y-89253643D01*
X148758969Y-89259311D01*
X148758968Y-89259312D01*
X148734554Y-89286714D01*
X148725784Y-89295624D01*
X148722311Y-89298819D01*
X148712119Y-89311015D01*
X148701548Y-89323664D01*
X148698942Y-89326683D01*
X148654999Y-89376003D01*
X148654995Y-89376009D01*
X148649943Y-89381679D01*
X148646389Y-89388392D01*
X148644337Y-89391344D01*
X148637553Y-89400234D01*
X148329790Y-89768486D01*
X148273714Y-89806963D01*
X148253579Y-89813818D01*
X148247575Y-89817512D01*
X148105095Y-89905166D01*
X148105092Y-89905168D01*
X148099088Y-89908862D01*
X148094053Y-89913793D01*
X148094050Y-89913795D01*
X147974525Y-90030843D01*
X147969493Y-90035771D01*
X147871235Y-90188238D01*
X147809197Y-90358685D01*
X147786463Y-90538640D01*
X147804163Y-90719160D01*
X147861418Y-90891273D01*
X147865065Y-90897295D01*
X147865066Y-90897297D01*
X147875978Y-90915314D01*
X147955380Y-91046424D01*
X148081382Y-91176902D01*
X148233159Y-91276222D01*
X148239763Y-91278678D01*
X148239765Y-91278679D01*
X148396558Y-91336990D01*
X148396560Y-91336990D01*
X148403168Y-91339448D01*
X148486995Y-91350633D01*
X148575980Y-91362507D01*
X148575984Y-91362507D01*
X148582961Y-91363438D01*
X148589972Y-91362800D01*
X148589976Y-91362800D01*
X148732459Y-91349832D01*
X148763600Y-91346998D01*
X148770302Y-91344820D01*
X148770304Y-91344820D01*
X148929409Y-91293124D01*
X148929412Y-91293123D01*
X148936108Y-91290947D01*
X149091912Y-91198069D01*
X149223266Y-91072982D01*
X149323643Y-90921902D01*
X149388055Y-90752338D01*
X149389035Y-90745369D01*
X149389037Y-90745359D01*
X149389881Y-90739352D01*
X149417972Y-90676094D01*
X149529456Y-90542698D01*
X149588487Y-90503256D01*
X149626136Y-90497500D01*
X149941500Y-90497500D01*
X150009621Y-90517502D01*
X150056114Y-90571158D01*
X150067500Y-90623500D01*
X150067500Y-91382252D01*
X150047498Y-91450373D01*
X149993842Y-91496866D01*
X149956643Y-91507339D01*
X149943758Y-91508898D01*
X149936657Y-91511581D01*
X149934048Y-91512222D01*
X149917728Y-91516687D01*
X149915195Y-91517452D01*
X149907717Y-91518757D01*
X149849190Y-91544448D01*
X149843108Y-91546930D01*
X149822753Y-91554622D01*
X149790449Y-91566828D01*
X149790447Y-91566829D01*
X149783344Y-91569513D01*
X149777085Y-91573814D01*
X149774720Y-91575051D01*
X149759948Y-91583273D01*
X149757656Y-91584628D01*
X149750695Y-91587684D01*
X149744668Y-91592309D01*
X149744664Y-91592311D01*
X149699987Y-91626593D01*
X149694662Y-91630462D01*
X149642019Y-91666643D01*
X149636967Y-91672313D01*
X149636966Y-91672314D01*
X149600580Y-91713153D01*
X149595600Y-91718429D01*
X148998465Y-92315565D01*
X148992198Y-92321419D01*
X148954340Y-92354444D01*
X148954337Y-92354447D01*
X148948615Y-92359439D01*
X148931495Y-92383798D01*
X148911872Y-92411719D01*
X148907939Y-92417014D01*
X148868524Y-92467282D01*
X148865401Y-92474198D01*
X148864017Y-92476484D01*
X148855643Y-92491165D01*
X148854378Y-92493525D01*
X148850010Y-92499739D01*
X148847250Y-92506818D01*
X148847249Y-92506820D01*
X148826798Y-92559275D01*
X148824247Y-92565344D01*
X148797955Y-92623573D01*
X148796571Y-92631040D01*
X148795770Y-92633595D01*
X148791141Y-92649848D01*
X148790478Y-92652428D01*
X148787718Y-92659509D01*
X148786727Y-92667040D01*
X148786726Y-92667042D01*
X148779379Y-92722852D01*
X148778348Y-92729359D01*
X148766704Y-92792186D01*
X148767141Y-92799766D01*
X148767141Y-92799767D01*
X148770291Y-92854392D01*
X148770500Y-92861646D01*
X148770500Y-93174927D01*
X148750498Y-93243048D01*
X148696842Y-93289541D01*
X148657671Y-93300237D01*
X148604050Y-93305873D01*
X148549289Y-93311628D01*
X148549288Y-93311628D01*
X148542288Y-93312364D01*
X148370579Y-93370818D01*
X148364575Y-93374512D01*
X148222095Y-93462166D01*
X148222092Y-93462168D01*
X148216088Y-93465862D01*
X148211053Y-93470793D01*
X148211050Y-93470795D01*
X148100734Y-93578825D01*
X148086493Y-93592771D01*
X147988235Y-93745238D01*
X147985826Y-93751858D01*
X147985824Y-93751861D01*
X147937005Y-93885991D01*
X147926197Y-93915685D01*
X147903463Y-94095640D01*
X147921163Y-94276160D01*
X147978418Y-94448273D01*
X147982065Y-94454295D01*
X147982066Y-94454297D01*
X148067782Y-94595831D01*
X148072380Y-94603424D01*
X148198382Y-94733902D01*
X148241420Y-94762065D01*
X148328574Y-94819097D01*
X148350159Y-94833222D01*
X148356763Y-94835678D01*
X148356765Y-94835679D01*
X148513558Y-94893990D01*
X148513560Y-94893990D01*
X148520168Y-94896448D01*
X148603995Y-94907633D01*
X148692980Y-94919507D01*
X148692984Y-94919507D01*
X148699961Y-94920438D01*
X148706972Y-94919800D01*
X148706976Y-94919800D01*
X148849459Y-94906832D01*
X148880600Y-94903998D01*
X148887302Y-94901820D01*
X148887304Y-94901820D01*
X149046409Y-94850124D01*
X149046412Y-94850123D01*
X149053108Y-94847947D01*
X149059159Y-94844340D01*
X149071986Y-94836694D01*
X149129217Y-94819307D01*
X149135352Y-94819725D01*
X149142829Y-94818420D01*
X149142831Y-94818420D01*
X149182130Y-94811561D01*
X149198303Y-94808738D01*
X149204821Y-94807777D01*
X149268242Y-94800102D01*
X149275343Y-94797419D01*
X149277952Y-94796778D01*
X149294262Y-94792315D01*
X149296798Y-94791550D01*
X149304284Y-94790243D01*
X149362800Y-94764556D01*
X149368904Y-94762065D01*
X149421548Y-94742173D01*
X149421549Y-94742172D01*
X149428656Y-94739487D01*
X149434919Y-94735183D01*
X149437285Y-94733946D01*
X149452097Y-94725701D01*
X149454351Y-94724368D01*
X149461305Y-94721315D01*
X149512002Y-94682413D01*
X149517332Y-94678541D01*
X149563720Y-94646661D01*
X149563725Y-94646656D01*
X149569981Y-94642357D01*
X149611435Y-94595830D01*
X149616416Y-94590554D01*
X149852405Y-94354566D01*
X149914717Y-94320541D01*
X149985533Y-94325606D01*
X150042368Y-94368153D01*
X150067179Y-94434674D01*
X150067500Y-94443662D01*
X150067500Y-98990603D01*
X150050620Y-99053602D01*
X150041473Y-99069444D01*
X149982458Y-99251072D01*
X149962496Y-99441000D01*
X149982458Y-99630928D01*
X150041473Y-99812556D01*
X150136960Y-99977944D01*
X150264747Y-100119866D01*
X150419248Y-100232118D01*
X150425276Y-100234802D01*
X150425278Y-100234803D01*
X150587681Y-100307109D01*
X150593712Y-100309794D01*
X150687112Y-100329647D01*
X150774056Y-100348128D01*
X150774061Y-100348128D01*
X150780513Y-100349500D01*
X150971487Y-100349500D01*
X150977939Y-100348128D01*
X150977944Y-100348128D01*
X151064888Y-100329647D01*
X151158288Y-100309794D01*
X151164319Y-100307109D01*
X151326722Y-100234803D01*
X151326724Y-100234802D01*
X151332752Y-100232118D01*
X151487253Y-100119866D01*
X151615040Y-99977944D01*
X151710527Y-99812556D01*
X151769542Y-99630928D01*
X151789504Y-99441000D01*
X151769542Y-99251072D01*
X151710527Y-99069444D01*
X151701380Y-99053602D01*
X151684500Y-98990603D01*
X151684500Y-84905397D01*
X151701380Y-84842398D01*
X151710527Y-84826556D01*
X151769542Y-84644928D01*
X151789504Y-84455000D01*
X151788814Y-84448435D01*
X151770232Y-84271635D01*
X151770232Y-84271633D01*
X151769542Y-84265072D01*
X151710527Y-84083444D01*
X151701380Y-84067602D01*
X151684500Y-84004603D01*
X151684500Y-79190397D01*
X151701380Y-79127398D01*
X151710527Y-79111556D01*
X151769542Y-78929928D01*
X151789504Y-78740000D01*
X151769542Y-78550072D01*
X151710527Y-78368444D01*
X151701380Y-78352602D01*
X151684500Y-78289603D01*
X151684500Y-73856397D01*
X151701380Y-73793398D01*
X151710527Y-73777556D01*
X151769542Y-73595928D01*
X151789504Y-73406000D01*
X151769542Y-73216072D01*
X151710527Y-73034444D01*
X151701380Y-73018602D01*
X151684500Y-72955603D01*
X151684500Y-70748214D01*
X151684507Y-70746894D01*
X151685377Y-70663826D01*
X151685451Y-70656779D01*
X151676289Y-70614403D01*
X151674230Y-70601832D01*
X151672982Y-70590701D01*
X151669397Y-70558745D01*
X151663241Y-70541065D01*
X151658367Y-70527070D01*
X151654204Y-70512258D01*
X151648609Y-70486381D01*
X151647119Y-70479490D01*
X151628792Y-70440187D01*
X151624010Y-70428411D01*
X151609745Y-70387448D01*
X151603674Y-70377732D01*
X151591973Y-70359005D01*
X151584634Y-70345488D01*
X151573441Y-70321486D01*
X151573440Y-70321485D01*
X151570462Y-70315098D01*
X151551628Y-70290817D01*
X151543894Y-70280847D01*
X151536598Y-70270388D01*
X151517358Y-70239596D01*
X151517356Y-70239593D01*
X151513626Y-70233624D01*
X151504835Y-70224771D01*
X151485024Y-70204821D01*
X151484439Y-70204196D01*
X151483922Y-70203530D01*
X151457932Y-70177540D01*
X151432898Y-70152331D01*
X151390151Y-70109284D01*
X151356344Y-70046853D01*
X151361656Y-69976056D01*
X151404401Y-69919369D01*
X151471007Y-69894790D01*
X151479557Y-69894500D01*
X152238134Y-69894500D01*
X152300316Y-69887745D01*
X152436705Y-69836615D01*
X152553261Y-69749261D01*
X152640615Y-69632705D01*
X152691745Y-69496316D01*
X152698500Y-69434134D01*
X152698500Y-69111175D01*
X152718502Y-69043054D01*
X152772158Y-68996561D01*
X152842432Y-68986457D01*
X152907012Y-69015951D01*
G37*
G04 #@! TD.AperFunction*
G04 #@! TA.AperFunction,Conductor*
G36*
X142869924Y-67965502D02*
G01*
X142916417Y-68019158D01*
X142926521Y-68089432D01*
X142897027Y-68154012D01*
X142875866Y-68173434D01*
X142786926Y-68238053D01*
X142782505Y-68242963D01*
X142782504Y-68242964D01*
X142740788Y-68289295D01*
X142655623Y-68383880D01*
X142557508Y-68553820D01*
X142496870Y-68740445D01*
X142476358Y-68935600D01*
X142496870Y-69130755D01*
X142498910Y-69137033D01*
X142498910Y-69137034D01*
X142515477Y-69188021D01*
X142557508Y-69317380D01*
X142655623Y-69487320D01*
X142786926Y-69633147D01*
X142792268Y-69637028D01*
X142792270Y-69637030D01*
X142940337Y-69744607D01*
X142945679Y-69748488D01*
X142951712Y-69751174D01*
X142951717Y-69751177D01*
X143062887Y-69800674D01*
X143116983Y-69846654D01*
X143137632Y-69914581D01*
X143118279Y-69982889D01*
X143100733Y-70004875D01*
X142944842Y-70160766D01*
X142943905Y-70161694D01*
X142901184Y-70203530D01*
X142879493Y-70224771D01*
X142856002Y-70261221D01*
X142848583Y-70271546D01*
X142821524Y-70305443D01*
X142818459Y-70311784D01*
X142818458Y-70311785D01*
X142806928Y-70335637D01*
X142799399Y-70349054D01*
X142781235Y-70377238D01*
X142778827Y-70383855D01*
X142778824Y-70383860D01*
X142766408Y-70417973D01*
X142761447Y-70429716D01*
X142745646Y-70462403D01*
X142745644Y-70462408D01*
X142742579Y-70468749D01*
X142740996Y-70475607D01*
X142740995Y-70475609D01*
X142735035Y-70501426D01*
X142730668Y-70516169D01*
X142719197Y-70547685D01*
X142718314Y-70554675D01*
X142718312Y-70554683D01*
X142713762Y-70590701D01*
X142711526Y-70603253D01*
X142710392Y-70608168D01*
X142701776Y-70645485D01*
X142701751Y-70652531D01*
X142701751Y-70652534D01*
X142701634Y-70686056D01*
X142701605Y-70686938D01*
X142701500Y-70687769D01*
X142701500Y-70724419D01*
X142701499Y-70724859D01*
X142701382Y-70758500D01*
X142701143Y-70826870D01*
X142701411Y-70828070D01*
X142701500Y-70829707D01*
X142701500Y-72193603D01*
X142684620Y-72256602D01*
X142675473Y-72272444D01*
X142616458Y-72454072D01*
X142596496Y-72644000D01*
X142616458Y-72833928D01*
X142675473Y-73015556D01*
X142684620Y-73031398D01*
X142701500Y-73094397D01*
X142701500Y-77654603D01*
X142684620Y-77717602D01*
X142675473Y-77733444D01*
X142616458Y-77915072D01*
X142596496Y-78105000D01*
X142616458Y-78294928D01*
X142675473Y-78476556D01*
X142684620Y-78492398D01*
X142701500Y-78555397D01*
X142701500Y-80892918D01*
X142681498Y-80961039D01*
X142664595Y-80982013D01*
X142577013Y-81069595D01*
X142514701Y-81103621D01*
X142487918Y-81106500D01*
X139963214Y-81106500D01*
X139961894Y-81106493D01*
X139960819Y-81106482D01*
X139871779Y-81105549D01*
X139829403Y-81114711D01*
X139816837Y-81116769D01*
X139773745Y-81121603D01*
X139767094Y-81123919D01*
X139767090Y-81123920D01*
X139742070Y-81132633D01*
X139727257Y-81136796D01*
X139694490Y-81143881D01*
X139655187Y-81162208D01*
X139643411Y-81166990D01*
X139602448Y-81181255D01*
X139596473Y-81184989D01*
X139596470Y-81184990D01*
X139574005Y-81199027D01*
X139560488Y-81206366D01*
X139536486Y-81217559D01*
X139530098Y-81220538D01*
X139524533Y-81224855D01*
X139524531Y-81224856D01*
X139495847Y-81247106D01*
X139485388Y-81254402D01*
X139454596Y-81273642D01*
X139454593Y-81273644D01*
X139448624Y-81277374D01*
X139443629Y-81282334D01*
X139443628Y-81282335D01*
X139419821Y-81305976D01*
X139419196Y-81306561D01*
X139418530Y-81307078D01*
X139392540Y-81333068D01*
X139319918Y-81405185D01*
X139319260Y-81406222D01*
X139318157Y-81407451D01*
X138899595Y-81826013D01*
X138837283Y-81860039D01*
X138766468Y-81854974D01*
X138709632Y-81812427D01*
X138684821Y-81745907D01*
X138684500Y-81736918D01*
X138684500Y-70502450D01*
X138704502Y-70434329D01*
X138758158Y-70387836D01*
X138828432Y-70377732D01*
X138852040Y-70383495D01*
X138938104Y-70413549D01*
X138984400Y-70429716D01*
X138988993Y-70430588D01*
X139239515Y-70478151D01*
X139239518Y-70478151D01*
X139244104Y-70479022D01*
X139376174Y-70484212D01*
X139503575Y-70489218D01*
X139503581Y-70489218D01*
X139508243Y-70489401D01*
X139771015Y-70460622D01*
X139775526Y-70459434D01*
X139775528Y-70459434D01*
X140022124Y-70394511D01*
X140022126Y-70394510D01*
X140026647Y-70393320D01*
X140031840Y-70391089D01*
X140265229Y-70290817D01*
X140265231Y-70290816D01*
X140269523Y-70288972D01*
X140449595Y-70177540D01*
X140490332Y-70152331D01*
X140490334Y-70152330D01*
X140494307Y-70149871D01*
X140548444Y-70104041D01*
X140692496Y-69982093D01*
X140692498Y-69982091D01*
X140696063Y-69979073D01*
X140870356Y-69780329D01*
X140886879Y-69754642D01*
X141010831Y-69561936D01*
X141013359Y-69558006D01*
X141121930Y-69316988D01*
X141193683Y-69062570D01*
X141227043Y-68800340D01*
X141227775Y-68772409D01*
X141229404Y-68710160D01*
X141229487Y-68707000D01*
X141222788Y-68616856D01*
X141210243Y-68448036D01*
X141210242Y-68448032D01*
X141209897Y-68443384D01*
X141151557Y-68185559D01*
X141135785Y-68145002D01*
X141124961Y-68117167D01*
X141118914Y-68046428D01*
X141152070Y-67983650D01*
X141213904Y-67948763D01*
X141242394Y-67945500D01*
X142801803Y-67945500D01*
X142869924Y-67965502D01*
G37*
G04 #@! TD.AperFunction*
G04 #@! TA.AperFunction,Conductor*
G36*
X152955350Y-67965502D02*
G01*
X153001843Y-68019158D01*
X153011947Y-68089432D01*
X153003427Y-68120224D01*
X152994677Y-68141091D01*
X152993526Y-68145623D01*
X152993525Y-68145626D01*
X152982226Y-68190116D01*
X152929608Y-68397301D01*
X152929103Y-68397173D01*
X152898937Y-68458031D01*
X152838022Y-68494497D01*
X152767061Y-68492241D01*
X152708585Y-68451979D01*
X152688401Y-68416763D01*
X152643768Y-68297705D01*
X152643767Y-68297704D01*
X152640615Y-68289295D01*
X152553261Y-68172739D01*
X152546081Y-68167358D01*
X152539731Y-68161008D01*
X152542314Y-68158425D01*
X152510192Y-68115460D01*
X152505171Y-68044641D01*
X152539234Y-67982350D01*
X152601567Y-67948363D01*
X152628275Y-67945500D01*
X152887229Y-67945500D01*
X152955350Y-67965502D01*
G37*
G04 #@! TD.AperFunction*
M02*
